<svg width="14" height="14" viewBox="0 0 14 14" fill="none" xmlns="http://www.w3.org/2000/svg">
<path d="M6.99966 0.0634766C3.38179 0.0634766 0.438477 3.00685 0.438477 6.62473C0.438477 10.2426 3.38179 13.1859 6.99966 13.1859C10.6174 13.1859 13.5609 10.2425 13.5609 6.62473C13.5609 3.00695 10.6174 0.0634766 6.99966 0.0634766ZM6.99966 11.7822C4.15588 11.7822 1.8422 9.46848 1.8422 6.62469C1.8422 3.78095 4.15588 1.46716 6.99966 1.46716C9.84348 1.46716 12.1571 3.78091 12.1571 6.62469C12.1571 9.46848 9.84345 11.7822 6.99966 11.7822ZM6.99966 2.40723C4.67413 2.40723 2.7822 4.29916 2.7822 6.62469C2.7822 8.95026 4.6741 10.8421 6.99966 10.8421C9.32529 10.8421 11.2171 8.95029 11.2171 6.62469C11.2171 4.2991 9.32529 2.40723 6.99966 2.40723ZM7.65004 8.82844H7.46966V9.08719C7.46966 9.34682 7.25926 9.55716 6.99966 9.55716C6.74007 9.55716 6.52966 9.34682 6.52966 9.08719V8.82844H6.39285C5.88113 8.82844 5.40844 8.52857 5.18707 8.06763C5.07476 7.83382 5.1736 7.55282 5.40735 7.44051C5.64116 7.32819 5.9222 7.4271 6.03451 7.66082C6.10035 7.79788 6.24029 7.88844 6.39285 7.88844H7.65004C7.86882 7.88844 8.04691 7.71035 8.04691 7.49157C8.04691 7.27279 7.86885 7.09466 7.65004 7.09466H6.34926C5.6121 7.09466 5.01238 6.49498 5.01238 5.75782C5.01238 5.02063 5.61207 4.42091 6.34926 4.42091H6.52963V4.16216C6.52963 3.90254 6.74004 3.6922 6.99963 3.6922C7.25923 3.6922 7.46963 3.90254 7.46963 4.16216V4.42091H7.60645C8.1181 4.42091 8.5907 4.72088 8.8121 5.18173C8.92441 5.41554 8.82579 5.6966 8.59198 5.80891C8.35823 5.9212 8.0771 5.82229 7.96482 5.5886C7.89895 5.45154 7.75907 5.36098 7.60648 5.36098H6.34929C6.13048 5.36098 5.95245 5.53904 5.95245 5.75785C5.95245 5.9766 6.13054 6.15473 6.34929 6.15473H7.65007C8.38726 6.15473 8.98695 6.75441 8.98695 7.4916C8.98691 8.22876 8.3872 8.82844 7.65004 8.82844Z" fill="url(#paint0_linear_1293_342)"/>
<defs>
<linearGradient id="paint0_linear_1293_342" x1="2.36235" y1="11.262" x2="11.6369" y2="1.98741" gradientUnits="userSpaceOnUse">
<stop stop-color="#FC4422"/>
<stop offset="1" stop-color="#FFBB32"/>
</linearGradient>
</defs>
</svg>
