<svg width="18" height="14" viewBox="0 0 18 14" fill="none" xmlns="http://www.w3.org/2000/svg">
<path d="M11.8125 11.5C12.0611 11.5 12.2996 11.5988 12.4754 11.7746C12.6512 11.9504 12.75 12.1889 12.75 12.4375C12.75 12.6861 12.6512 12.9246 12.4754 13.1004C12.2996 13.2762 12.0611 13.375 11.8125 13.375H6.1875C5.93886 13.375 5.7004 13.2762 5.52459 13.1004C5.34877 12.9246 5.25 12.6861 5.25 12.4375C5.25 12.1889 5.34877 11.9504 5.52459 11.7746C5.7004 11.5988 5.93886 11.5 6.1875 11.5H11.8125ZM14.3125 6.1875C14.5611 6.1875 14.7996 6.28627 14.9754 6.46209C15.1512 6.6379 15.25 6.87636 15.25 7.125C15.25 7.37364 15.1512 7.6121 14.9754 7.78791C14.7996 7.96373 14.5611 8.0625 14.3125 8.0625H3.6875C3.43886 8.0625 3.2004 7.96373 3.02459 7.78791C2.84877 7.6121 2.75 7.37364 2.75 7.125C2.75 6.87636 2.84877 6.6379 3.02459 6.46209C3.2004 6.28627 3.43886 6.1875 3.6875 6.1875H14.3125ZM16.8125 0.875C17.0611 0.875 17.2996 0.973772 17.4754 1.14959C17.6512 1.3254 17.75 1.56386 17.75 1.8125C17.75 2.06114 17.6512 2.2996 17.4754 2.47541C17.2996 2.65123 17.0611 2.75 16.8125 2.75H1.1875C0.93886 2.75 0.700403 2.65123 0.524587 2.47541C0.348772 2.2996 0.25 2.06114 0.25 1.8125C0.25 1.56386 0.348772 1.3254 0.524587 1.14959C0.700403 0.973772 0.93886 0.875 1.1875 0.875H16.8125Z" fill="#562E9C"/>
</svg>
