<svg width="86" height="84" viewBox="0 0 86 84" fill="none" xmlns="http://www.w3.org/2000/svg">
<g clip-path="url(#clip0_1406_4879)">
<path d="M23.0512 25.9236C25.6735 26.7994 28.5102 25.381 29.387 22.7555C30.2639 20.13 28.8489 17.2916 26.2266 16.4158C23.6043 15.54 20.7677 16.9585 19.8908 19.584C19.014 22.2095 20.4289 25.0478 23.0512 25.9236Z" fill="#B57E05"/>
<path d="M28.2818 24.748C30.443 23.0201 30.7968 19.8666 29.0721 17.7046C27.3474 15.5425 24.1973 15.1906 22.0361 16.9186C19.8749 18.6466 19.5211 21.8 21.2458 23.9621C22.9705 26.1241 26.1206 26.476 28.2818 24.748Z" fill="#FFB81D"/>
<path opacity="0.67" d="M23.7135 25.0385C22.6028 24.6676 21.6449 23.8491 21.1335 22.6949C20.1692 20.517 21.1548 17.9591 23.3298 16.9918C24.3834 16.5225 25.559 16.4951 26.6318 16.9081C27.7077 17.322 28.5576 18.1317 29.0257 19.1861C29.9899 21.364 29.0043 23.9219 26.8294 24.8892C25.8064 25.3431 24.6984 25.3675 23.7135 25.0385ZM26.342 17.1476C25.3955 16.8315 24.38 16.8799 23.4609 17.2883C22.4855 17.7223 21.7369 18.5087 21.3544 19.506C20.9703 20.5029 20.9964 21.5889 21.4293 22.5649C22.322 24.5789 24.6865 25.4898 26.6992 24.5947C27.6746 24.1607 28.4217 23.3739 28.8058 22.377C29.1898 21.3802 29.1638 20.2942 28.7309 19.3181C28.298 18.3421 27.513 17.5933 26.5169 17.2112C26.4596 17.1886 26.4003 17.1671 26.342 17.1476Z" fill="white"/>
<path d="M24.1027 22.4895C23.8757 22.3522 23.6804 22.1965 23.5169 22.0224C23.3534 21.8482 23.2277 21.6782 23.1378 21.5133C23.0868 21.416 23.0838 21.3228 23.1263 21.2363C23.1617 21.1662 23.217 21.118 23.2927 21.0904C23.3684 21.0628 23.4431 21.0689 23.5178 21.1058C23.5761 21.1355 23.6256 21.1811 23.669 21.2451C23.7758 21.4105 23.8954 21.5631 24.0282 21.7014C24.1611 21.8397 24.3272 21.9601 24.5277 22.0594C24.6023 22.0963 24.6754 22.1276 24.747 22.1532C24.8186 22.1788 24.8907 22.1978 24.9633 22.2101C25.036 22.2224 25.1045 22.2265 25.171 22.2214C25.2375 22.2163 25.2979 22.204 25.3542 22.1835C25.4105 22.1631 25.4637 22.1313 25.5108 22.0873C25.5579 22.0433 25.5984 21.9885 25.6322 21.923C25.6932 21.8016 25.6994 21.6808 25.6515 21.5589C25.6035 21.437 25.4977 21.3044 25.3337 21.1625L24.8123 20.7118C24.7096 20.6212 24.6258 20.5454 24.5593 20.4839C24.4929 20.4225 24.4259 20.3523 24.3544 20.2755C24.2834 20.1971 24.2282 20.1275 24.1904 20.067C24.1516 20.0046 24.1179 19.937 24.0893 19.8591C24.0602 19.7828 24.0444 19.7076 24.044 19.6323C24.043 19.5586 24.0533 19.4766 24.0754 19.3901C24.096 19.3031 24.1319 19.2109 24.1795 19.1141C24.2246 19.0251 24.2769 18.9452 24.3388 18.8771C24.4008 18.809 24.4673 18.7527 24.5385 18.7082C24.6096 18.6637 24.6879 18.6283 24.7713 18.6033C24.8547 18.5782 24.9438 18.5618 25.0343 18.5562C25.1264 18.5511 25.2205 18.5552 25.3202 18.5681C25.42 18.5809 25.5202 18.6024 25.6215 18.6311C25.7227 18.6598 25.8281 18.6967 25.936 18.7412L26.307 17.9979C26.3439 17.9231 26.3956 17.8755 26.4611 17.8581C26.5271 17.8392 26.5895 17.8464 26.6524 17.8776C26.7153 17.9089 26.7603 17.958 26.7873 18.0251C26.8144 18.0922 26.8102 18.1608 26.7738 18.234L26.3987 18.9846C26.5183 19.0604 26.6308 19.1423 26.7345 19.235C26.8388 19.3262 26.9226 19.4071 26.9844 19.4773C27.0463 19.5474 27.1045 19.6181 27.1587 19.6908C27.2471 19.804 27.2618 19.9182 27.2054 20.0308C27.1936 20.0559 27.1777 20.0779 27.1578 20.0969C27.1388 20.1179 27.1163 20.1342 27.0923 20.145C27.0677 20.1573 27.0426 20.166 27.0165 20.1726C26.9904 20.1793 26.9628 20.1803 26.9321 20.1752C26.9014 20.17 26.8723 20.1603 26.8431 20.1454C26.8283 20.1388 26.816 20.1296 26.8038 20.1203C26.7915 20.1111 26.7792 20.1019 26.7644 20.0901C26.7511 20.0789 26.7378 20.0676 26.7251 20.0548C26.722 20.0538 26.6969 20.0266 26.6484 19.9728C26.5999 19.9191 26.5646 19.8817 26.5431 19.8591C26.5217 19.8366 26.4818 19.7977 26.4246 19.7444C26.3673 19.6912 26.3152 19.6481 26.2707 19.6128C26.2257 19.579 26.1705 19.5401 26.1051 19.496C26.0397 19.452 25.9722 19.4141 25.9052 19.3797C25.7651 19.3091 25.6342 19.2619 25.512 19.2348C25.3897 19.2076 25.2746 19.2101 25.1687 19.2413C25.0628 19.2726 24.984 19.3401 24.9322 19.4441C24.8666 19.5741 24.8578 19.6873 24.9032 19.781C24.9502 19.8752 25.0718 20.0063 25.2712 20.1753L25.7848 20.6132C26.1166 20.8964 26.3255 21.1643 26.4102 21.4162C26.4949 21.6681 26.468 21.9324 26.3297 22.2088C26.1646 22.5396 25.9255 22.7448 25.6129 22.8231C25.3003 22.9014 24.953 22.8691 24.5705 22.7225L24.2051 23.4541C24.1687 23.5274 24.1165 23.5714 24.0469 23.5908C23.9778 23.6087 23.9103 23.6015 23.8444 23.5693C23.8065 23.5498 23.7743 23.5237 23.7483 23.4894C23.7237 23.4556 23.7084 23.4146 23.7039 23.367C23.6993 23.3194 23.7091 23.2697 23.7347 23.2185L24.1001 22.4869L24.1027 22.4895Z" fill="white"/>
<path d="M54.3922 71.2624L29.8182 71.1343C27.8913 71.1242 26.3408 69.5529 26.3518 67.6257L26.6631 14.7619C26.6746 12.8331 28.2455 11.2799 30.1709 11.2895L54.7454 11.4161C56.6723 11.4263 58.2244 12.998 58.2118 14.9248L57.8985 67.7896C57.887 69.7184 56.3161 71.2715 54.3907 71.2619L54.3922 71.2624Z" fill="#353148"/>
<path d="M53.8615 70.3953L30.3582 70.2731C28.6046 70.2645 27.1931 68.8336 27.2025 67.0799L27.5109 15.0569C27.5207 13.3017 28.9513 11.8877 30.7033 11.8958L54.2082 12.0185C55.9617 12.0271 57.3732 13.458 57.3639 15.2117L57.0554 67.2347C57.0456 68.99 55.615 70.4039 53.863 70.3958L53.8615 70.3953Z" fill="#423E49"/>
<path d="M55.5134 18.5002L29.3231 18.3643L29.0719 60.8528L55.2622 60.9888L55.5134 18.5002Z" fill="white"/>
<path d="M55.513 18.5017L29.3226 18.3657L29.311 20.3314L55.5013 20.4673L55.513 18.5017Z" fill="#1E87D5"/>
<path d="M31.146 41.0016L31.1581 39.0303C31.1607 38.4558 31.5852 37.9914 32.1059 37.9946L52.4956 38.1014C53.0163 38.1045 53.4348 38.5721 53.4317 39.1481L53.3167 58.6346C53.3141 59.2091 52.8896 59.6734 52.3688 59.6702L31.9792 59.5635C31.4584 59.5603 31.0399 59.0927 31.043 58.5167L31.0608 55.3897" fill="#ECF1F7"/>
<path opacity="0.14" d="M31.1455 40.9776L31.1589 38.7472C31.1608 38.3279 31.5852 37.9915 32.1059 37.9947L52.4956 38.1015C53.0163 38.1047 53.436 38.4463 53.4325 38.8651L53.4192 40.9982" fill="#3E479B"/>
<path d="M49.2823 40.0843C49.2163 40.0623 49.1575 40.0239 49.1069 39.9711C49.0262 39.8861 48.9833 39.7745 48.9839 39.6552C48.9862 39.4084 49.1792 39.2082 49.4176 39.2093C49.656 39.2104 49.8476 39.4127 49.8453 39.6595C49.8431 39.9063 49.65 40.1064 49.4117 40.1053C49.3671 40.1059 49.3221 40.0976 49.2807 40.0838L49.2823 40.0843ZM49.4952 39.3854C49.4707 39.3773 49.4435 39.3716 49.4159 39.3726C49.2676 39.3726 49.1467 39.4996 49.1451 39.6578C49.145 39.7346 49.172 39.8068 49.2236 39.8616C49.2742 39.9143 49.3407 39.9451 49.4123 39.9451C49.5607 39.9451 49.6815 39.8182 49.6832 39.6599C49.6833 39.5319 49.6041 39.4218 49.4952 39.3854Z" fill="white"/>
<path d="M50.5964 40.0913C50.5304 40.0692 50.4716 40.0308 50.421 39.9781C50.3403 39.893 50.2974 39.7814 50.2981 39.6621C50.2987 39.5428 50.3443 39.4317 50.4252 39.3478C50.5082 39.2628 50.6156 39.2167 50.7317 39.2162C50.9701 39.2173 51.1618 39.4196 51.1595 39.6664C51.1572 39.9132 50.9626 40.1128 50.7258 40.1123C50.6813 40.1128 50.6378 40.1051 50.5948 40.0907L50.5964 40.0913ZM50.8109 39.3929C50.7863 39.3847 50.7592 39.3791 50.7316 39.3801C50.66 39.3801 50.5924 39.4087 50.5422 39.462C50.49 39.5162 50.4608 39.5884 50.4607 39.6652C50.4606 39.742 50.4892 39.8147 50.5393 39.869C50.5899 39.9218 50.6564 39.9525 50.728 39.9525C50.8763 39.9526 50.9987 39.8261 50.9988 39.6674C50.999 39.5394 50.9198 39.4293 50.8109 39.3929Z" fill="white"/>
<path d="M51.8849 40.098C51.71 40.0396 51.5843 39.8696 51.5866 39.6689C51.5889 39.4221 51.7819 39.2219 52.0203 39.223C52.1359 39.224 52.2448 39.2706 52.325 39.3572C52.4058 39.4422 52.4486 39.5538 52.448 39.6731C52.4474 39.7924 52.4017 39.9035 52.3208 39.9875C52.2379 40.0725 52.1304 40.1185 52.0143 40.119C51.9683 40.119 51.9248 40.1113 51.8849 40.098ZM52.0979 39.3991C52.0718 39.3904 52.0457 39.3868 52.0186 39.3863C51.8702 39.3863 51.7494 39.5132 51.7477 39.6715C51.746 39.8297 51.8666 39.9587 52.015 39.9588C52.0866 39.9588 52.1541 39.9301 52.2043 39.8769C52.2565 39.8226 52.2858 39.7504 52.2858 39.6736C52.2859 39.5968 52.2589 39.5246 52.2073 39.4698C52.1756 39.437 52.1393 39.413 52.0979 39.3991Z" fill="white"/>
<g opacity="0.14">
<path d="M42.4231 44.5441L42.4242 44.3823L50.0143 44.4228L50.0132 44.5846L42.4231 44.5441Z" fill="#3E479B"/>
</g>
<g opacity="0.14">
<path d="M42.3974 49.0478L42.3986 48.886L46.1931 48.9052L46.1919 49.067L42.3974 49.0478Z" fill="#3E479B"/>
</g>
<g opacity="0.14">
<path d="M42.414 45.9804L42.4157 45.8171L45.2496 45.8331L45.2484 45.9949L42.414 45.9804Z" fill="#3E479B"/>
</g>
<g opacity="0.14">
<path d="M47.1702 46.0053L47.1713 45.8435L50.0057 45.858L50.0045 46.0198L47.1702 46.0053Z" fill="#3E479B"/>
</g>
<g opacity="0.14">
<path d="M42.4047 47.622L42.4058 47.4602L45.2397 47.4761L45.2386 47.6379L42.4047 47.622Z" fill="#3E479B"/>
</g>
<g opacity="0.14">
<path d="M47.1611 47.6459L47.1623 47.4841L49.9962 47.5001L49.995 47.6619L47.1611 47.6459Z" fill="#3E479B"/>
</g>
<path opacity="0.14" d="M40.5919 43.4726L33.5538 43.436L33.5139 50.1912L40.552 50.2277L40.5919 43.4726Z" fill="#3E479B"/>
<g opacity="0.14">
<path d="M42.3568 55.7658L42.3579 55.604L49.947 55.6425L49.9458 55.8043L42.3568 55.7658Z" fill="#3E479B"/>
</g>
<g opacity="0.14">
<path d="M42.348 57.2016L42.3492 57.0398L45.1836 57.0542L45.1824 57.2161L42.348 57.2016Z" fill="#3E479B"/>
</g>
<g opacity="0.14">
<path d="M47.1043 57.226L47.1054 57.0642L49.9378 57.0796L49.9366 57.2414L47.1043 57.226Z" fill="#3E479B"/>
</g>
<g opacity="0.14">
<path d="M42.3382 58.8442L42.3394 58.6824L45.1738 58.6968L45.1726 58.8586L42.3382 58.8442Z" fill="#3E479B"/>
</g>
<g opacity="0.14">
<path d="M47.0947 58.8681L47.0959 58.7063L49.9287 58.7202L49.9276 58.882L47.0947 58.8681Z" fill="#3E479B"/>
</g>
<path opacity="0.14" d="M40.5243 54.6947L33.4862 54.6582L33.4575 59.5157L40.4956 59.5522L40.5243 54.6947Z" fill="#3E479B"/>
<path d="M42.0497 66.6416L42.0647 64.2991L42.2263 64.3001L42.2113 66.6427L42.0497 66.6416Z" fill="#423E49"/>
<path d="M41.2145 68.5599C40.0378 68.1669 39.1897 67.0505 39.1971 65.7417C39.2014 64.9527 39.5131 64.2134 40.0738 63.6579C40.6344 63.1025 41.377 62.799 42.1652 62.8028C43.7924 62.8118 45.1089 64.1444 45.0986 65.7732C45.0943 66.5622 44.7826 67.3015 44.2219 67.857C43.6613 68.4124 42.9188 68.7159 42.1305 68.7121C41.8103 68.7111 41.5024 68.6577 41.214 68.5614L41.2145 68.5599ZM43.0305 63.1071C42.7574 63.0159 42.4669 62.9667 42.1641 62.9646C41.4188 62.9598 40.7172 63.2479 40.1872 63.7727C39.6573 64.2974 39.3625 64.9962 39.3587 65.7428C39.3534 66.4888 39.6408 67.1909 40.1646 67.7209C40.6884 68.251 41.3864 68.5456 42.1322 68.5488C42.8775 68.5536 43.5791 68.2655 44.109 67.7407C44.6389 67.216 44.9337 66.5171 44.9375 65.7706C44.9448 64.5335 44.1432 63.477 43.031 63.1056L43.0305 63.1071Z" fill="white"/>
<path d="M43.0309 67.7821C44.1493 67.2947 44.6619 65.9924 44.1758 64.8732C43.6897 63.7541 42.3891 63.242 41.2707 63.7293C40.1522 64.2167 39.6397 65.5191 40.1257 66.6382C40.6118 67.7573 41.9125 68.2695 43.0309 67.7821Z" fill="#353148"/>
<path opacity="0.89" d="M39.8123 16.5434L39.7893 16.5254C39.6636 16.422 39.5905 16.2883 39.5856 16.1501C39.5811 16.0308 39.6236 15.9187 39.7091 15.8362C39.788 15.7584 39.8908 15.7159 40.0029 15.7175L44.866 15.7436C44.9765 15.7447 45.0798 15.7877 45.1575 15.8666C45.2351 15.9454 45.2775 16.0484 45.2779 16.1595C45.2767 16.3366 45.163 16.4933 44.9957 16.5501C44.9517 16.5644 44.9066 16.5716 44.8606 16.5716L39.8133 16.5454L39.8123 16.5434ZM44.9431 15.9162C44.9185 15.908 44.8909 15.9039 44.8638 15.9034L40.0007 15.8773C39.9326 15.8767 39.8697 15.9018 39.8231 15.9494C39.7719 16.0006 39.7442 16.0682 39.7487 16.1414C39.7528 16.2264 39.7962 16.3109 39.8733 16.3811L44.8628 16.4067C44.8899 16.4072 44.9191 16.4016 44.9457 16.3934C45.0475 16.3591 45.1172 16.2629 45.1173 16.1554C45.1173 16.0888 45.0913 16.0238 45.0438 15.9772C45.0157 15.949 44.9819 15.9275 44.9451 15.9152L44.9431 15.9162Z" fill="white"/>
<path d="M37.3564 16.5902C37.2751 16.563 37.2015 16.518 37.1392 16.4545C37.0359 16.35 36.9788 16.2097 36.9799 16.0632C36.9816 15.9153 37.0395 15.7775 37.1445 15.6726C37.2489 15.5692 37.3892 15.5119 37.5355 15.5129C37.8403 15.514 38.0861 15.7634 38.0848 16.0686C38.0847 16.2171 38.0252 16.3543 37.9203 16.4592C37.8158 16.5626 37.6756 16.62 37.5293 16.6189C37.47 16.6179 37.4117 16.6086 37.3564 16.5902ZM37.6555 15.6947C37.6171 15.6819 37.5767 15.6752 37.5343 15.6747C37.4304 15.6742 37.3317 15.7146 37.258 15.7873C37.1837 15.8615 37.1427 15.9588 37.1421 16.0628C37.1415 16.1667 37.1818 16.2655 37.2544 16.3393C37.3285 16.4135 37.4256 16.4545 37.5295 16.4551C37.6333 16.4556 37.7321 16.4152 37.8058 16.3425C37.88 16.2682 37.921 16.171 37.9217 16.067C37.9234 15.8934 37.8104 15.7465 37.654 15.6942L37.6555 15.6947Z" fill="white"/>
<path d="M42.3482 14.7964C42.2331 14.758 42.1503 14.6484 42.1505 14.5204C42.1511 14.442 42.1818 14.3704 42.2361 14.3151C42.2919 14.2603 42.3646 14.2316 42.4413 14.2316C42.518 14.2317 42.5911 14.2629 42.6463 14.3172C42.701 14.373 42.7296 14.4457 42.7295 14.5225C42.7294 14.5993 42.6982 14.6726 42.6439 14.7278C42.5881 14.7826 42.517 14.8118 42.4387 14.8113C42.408 14.8113 42.3773 14.8061 42.3482 14.7964ZM42.4805 14.4001C42.4682 14.396 42.4539 14.3929 42.4401 14.3934C42.4058 14.394 42.3741 14.4073 42.3495 14.4298C42.3245 14.4538 42.3121 14.4856 42.3111 14.5194C42.31 14.589 42.3672 14.6474 42.4389 14.6474C42.4731 14.6469 42.5049 14.6336 42.5294 14.6111C42.553 14.5865 42.5668 14.5553 42.5663 14.521C42.5659 14.4867 42.5526 14.4549 42.5301 14.4303C42.5163 14.4155 42.4994 14.4047 42.4795 14.3981L42.4805 14.4001Z" fill="white"/>
<path opacity="0.14" d="M40.9661 23.1222L33.0141 23.081C32.5048 23.0783 32.0896 23.4894 32.0866 23.9991L32.0395 31.9589C32.0365 32.4686 32.4469 32.884 32.9561 32.8866L40.9081 32.9279C41.4174 32.9306 41.8326 32.5195 41.8356 32.0098L41.8827 24.0499C41.8857 23.5402 41.4753 23.1249 40.9661 23.1222Z" fill="#3E479B"/>
<path d="M48.4737 35.6323L45.3877 35.6157C44.671 35.612 44.0935 35.0282 44.0978 34.3108C44.102 33.5934 44.6857 33.015 45.4024 33.0187L48.4885 33.0352C49.2051 33.039 49.7826 33.6228 49.7783 34.3402C49.7741 35.0575 49.1904 35.636 48.4737 35.6323Z" fill="#ECF1F7"/>
<path opacity="0.14" d="M52.4352 23.7236L44.0027 23.6799C43.8268 23.679 43.6832 23.821 43.6822 23.9972L43.6804 24.3032C43.6793 24.4794 43.8212 24.6229 43.9972 24.6239L52.4296 24.6676C52.6056 24.6685 52.7491 24.5265 52.7502 24.3503L52.752 24.0443C52.753 23.8681 52.6112 23.7246 52.4352 23.7236Z" fill="#3E479B"/>
<path opacity="0.14" d="M39.2877 34.3966L34.3714 34.3715C34.2031 34.3699 34.0677 34.2342 34.0694 34.0657C34.0711 33.8973 34.2068 33.7616 34.375 33.7632L39.2914 33.7883C39.4597 33.7899 39.5951 33.9256 39.5934 34.094C39.5917 34.2625 39.456 34.3981 39.2877 34.3966Z" fill="#3E479B"/>
<g opacity="0.14">
<path d="M51.7714 26.3214L44.1818 26.2754L44.1807 26.4373L51.7703 26.4833L51.7714 26.3214Z" fill="#3E479B"/>
</g>
<g opacity="0.14">
<path d="M47.9482 30.8043L44.1533 30.7812L44.1522 30.9432L47.9471 30.9662L47.9482 30.8043Z" fill="#3E479B"/>
</g>
<g opacity="0.14">
<path d="M47.0086 27.7267L44.1746 27.7095L44.1735 27.8714L47.0075 27.8886L47.0086 27.7267Z" fill="#3E479B"/>
</g>
<g opacity="0.14">
<path d="M51.7622 27.7545L48.9282 27.7373L48.9271 27.8992L51.7611 27.9164L51.7622 27.7545Z" fill="#3E479B"/>
</g>
<g opacity="0.14">
<path d="M46.9972 29.3727L44.1632 29.3555L44.1621 29.5174L46.9961 29.5346L46.9972 29.3727Z" fill="#3E479B"/>
</g>
<g opacity="0.14">
<path d="M51.7538 29.3976L48.9198 29.3804L48.9187 29.5423L51.7527 29.5595L51.7538 29.3976Z" fill="#3E479B"/>
</g>
<path d="M19.1856 45.7971C21.3578 46.3042 23.5306 44.9525 24.0388 42.7779C24.5471 40.6033 23.1982 38.4293 21.0261 37.9221C18.854 37.415 16.6811 38.7668 16.1729 40.9414C15.6647 43.116 17.0135 45.2899 19.1856 45.7971Z" fill="#FFB81D"/>
<path d="M19.4775 45.4554C21.6379 46.0102 23.8399 44.7066 24.3958 42.5437C24.9517 40.3808 23.6509 38.1776 21.4905 37.6228C19.3301 37.0679 17.1281 38.3716 16.5722 40.5345C16.0164 42.6974 17.3171 44.9006 19.4775 45.4554Z" fill="#FFD98A"/>
<path opacity="0.67" d="M19.3141 44.9663C18.5241 44.7024 17.8606 44.1718 17.426 43.4513C16.9408 42.6473 16.7979 41.7015 17.0239 40.7902C17.2498 39.8788 17.8158 39.1083 18.6193 38.6221C19.4229 38.1358 20.3678 37.9921 21.2782 38.2176C22.1885 38.4431 22.9578 39.009 23.443 39.813C23.9282 40.617 24.071 41.5628 23.8451 42.4742C23.6192 43.3855 23.0532 44.156 22.2496 44.6423C21.4461 45.1285 20.5011 45.2722 19.5908 45.0467C19.4977 45.0242 19.4047 44.9965 19.3157 44.9668L19.3141 44.9663ZM21.4507 38.6047C21.3694 38.5776 21.2855 38.553 21.2006 38.5315C20.3737 38.327 19.5167 38.4574 18.7879 38.8986C18.059 39.3398 17.5443 40.0386 17.3394 40.8665C17.1345 41.6944 17.2642 42.5521 17.7044 43.2814C18.1447 44.0106 18.8409 44.5248 19.6694 44.7298C20.4963 44.9343 21.3533 44.8039 22.0821 44.3627C22.811 43.9215 23.3257 43.2226 23.5306 42.3947C23.7355 41.5668 23.6058 40.7091 23.1656 39.9799C22.7703 39.3254 22.1692 38.843 21.4512 38.6032L21.4507 38.6047Z" fill="white"/>
<path d="M19.807 42.9695C19.6112 42.8819 19.4399 42.7768 19.2917 42.6539C19.1435 42.531 19.0259 42.4081 18.9376 42.2847C18.887 42.2114 18.8758 42.1377 18.9004 42.064C18.9204 42.0041 18.9609 41.9595 19.0182 41.9309C19.0755 41.9022 19.1364 41.8986 19.2008 41.9202C19.2499 41.9366 19.2954 41.9688 19.3358 42.0165C19.4385 42.1378 19.5499 42.2485 19.6695 42.3447C19.7901 42.4431 19.9343 42.522 20.1056 42.5809C20.1701 42.6024 20.2304 42.6208 20.2907 42.6342C20.3511 42.6475 20.4099 42.6552 20.4687 42.6578C20.5276 42.6603 20.5833 42.6568 20.635 42.645C20.6877 42.6353 20.7343 42.6184 20.7788 42.5974C20.8218 42.5759 20.8612 42.5447 20.895 42.5048C20.9288 42.4648 20.9549 42.4172 20.9754 42.3609C21.0113 42.2585 21.0048 42.1607 20.9542 42.067C20.9037 41.9733 20.8055 41.879 20.6609 41.7812L20.1977 41.4729C20.1062 41.4099 20.0316 41.3576 19.9723 41.3156C19.913 41.2736 19.8511 41.2239 19.7878 41.1686C19.7228 41.1128 19.6712 41.0631 19.6349 41.0186C19.5971 40.9735 19.5634 40.9213 19.5318 40.8629C19.5001 40.8045 19.4807 40.7451 19.4731 40.6862C19.4655 40.6273 19.4655 40.5608 19.4743 40.4886C19.4831 40.4164 19.5005 40.3386 19.5298 40.2561C19.5554 40.1793 19.5918 40.1112 19.6328 40.0498C19.6738 39.9884 19.7234 39.9367 19.7751 39.8942C19.8284 39.8522 19.8867 39.8153 19.9512 39.7857C20.0157 39.756 20.0843 39.7345 20.1569 39.7212C20.2296 39.7079 20.3068 39.7013 20.3866 39.7023C20.4664 39.7033 20.5498 39.709 20.6342 39.7218C20.7186 39.7346 20.806 39.7536 20.8965 39.7787L21.1197 39.1464C21.1412 39.0819 21.1791 39.0399 21.2287 39.0189C21.2784 38.9979 21.33 38.9964 21.3837 39.0143C21.4374 39.0323 21.4783 39.0681 21.5059 39.1183C21.535 39.169 21.537 39.2243 21.516 39.2873L21.2908 39.9257C21.3941 39.9739 21.4917 40.0287 21.5848 40.0922C21.6778 40.1557 21.7529 40.2115 21.8097 40.2612C21.8664 40.3109 21.9191 40.3626 21.9696 40.4154C22.0514 40.4973 22.0759 40.5874 22.042 40.6837C22.0354 40.7037 22.0251 40.7241 22.0108 40.7416C21.998 40.7595 21.9811 40.7743 21.9632 40.7871C21.9452 40.7999 21.9268 40.8091 21.9053 40.8173C21.8838 40.8255 21.8623 40.8286 21.8368 40.8286C21.8112 40.8286 21.7872 40.8239 21.7616 40.8137C21.7493 40.8096 21.737 40.8055 21.7273 40.7988C21.7171 40.7937 21.7059 40.7865 21.6931 40.7789C21.6803 40.7712 21.6696 40.7625 21.6583 40.7553C21.6568 40.7548 21.6328 40.7348 21.5888 40.6979C21.5448 40.6611 21.5132 40.6334 21.4927 40.618C21.4723 40.6027 21.437 40.5755 21.3859 40.5397C21.3347 40.5038 21.2887 40.4731 21.2504 40.45C21.2121 40.427 21.1625 40.4019 21.1057 40.3727C21.0484 40.345 20.9917 40.321 20.9339 40.3C20.8148 40.2585 20.7058 40.2323 20.6045 40.2241C20.5038 40.2144 20.4122 40.2282 20.3303 40.264C20.2484 40.2998 20.1921 40.3612 20.1608 40.4498C20.1218 40.5614 20.1259 40.6515 20.1723 40.7217C20.2188 40.7919 20.3308 40.8856 20.5071 41.0008L20.9631 41.3C21.2566 41.4936 21.4513 41.6866 21.5442 41.8782C21.6387 42.0702 21.6436 42.2853 21.5595 42.5218C21.4605 42.8029 21.2899 42.9918 21.0469 43.0865C20.8038 43.1811 20.523 43.1898 20.2028 43.1119L19.9828 43.735C19.9623 43.7964 19.9228 43.8379 19.8696 43.8594C19.8164 43.8809 19.7617 43.8814 19.7064 43.8629C19.6727 43.8517 19.6446 43.8337 19.6221 43.8091C19.5981 43.7841 19.5827 43.7533 19.5731 43.7159C19.5634 43.6786 19.5685 43.6376 19.5829 43.5946L19.8029 42.9715L19.807 42.9695Z" fill="white"/>
<path d="M35.7015 47.4454C39.9433 45.3243 41.6667 40.164 39.5508 35.9196C37.4349 31.6752 32.2809 29.9539 28.0391 32.075C23.7972 34.196 22.0738 39.3563 24.1897 43.6007C26.3056 47.8452 31.4596 49.5665 35.7015 47.4454Z" fill="#B57E05"/>
<path d="M29.2226 47.0971C33.845 48.1456 38.444 45.2443 39.495 40.6167C40.5459 35.9891 37.6507 31.3876 33.0284 30.339C28.4061 29.2905 23.807 32.1918 22.756 36.8194C21.7051 41.447 24.6003 46.0485 29.2226 47.0971Z" fill="#FFB81D"/>
<path d="M29.9976 45.5635C26.2359 44.9457 23.68 41.3809 24.3 37.6151C24.9199 33.8492 28.4831 31.2882 32.2449 31.906C36.0066 32.5238 38.5625 36.0886 37.9425 39.8545C37.3226 43.6204 33.7594 46.1813 29.9976 45.5635ZM32.1718 32.3494C28.654 31.7721 25.3217 34.1678 24.7429 37.6879C24.1636 41.2095 26.5544 44.5433 30.0707 45.1201C33.5885 45.6974 36.9208 43.3018 37.4996 39.7817C38.0789 36.2601 35.6881 32.9262 32.1718 32.3494Z" fill="#FFD98A"/>
<path d="M30.37 41.8342C29.9573 41.722 29.585 41.5652 29.2547 41.3696C28.9234 41.1719 28.653 40.9655 28.441 40.7478C28.3188 40.6182 28.2724 40.4764 28.3017 40.3223C28.3243 40.1984 28.3884 40.0985 28.4938 40.0228C28.5993 39.947 28.7185 39.922 28.8499 39.9471C28.9527 39.966 29.0524 40.0147 29.148 40.0961C29.3882 40.3061 29.6413 40.4879 29.9092 40.6457C30.1771 40.8035 30.488 40.9141 30.8429 40.9798C30.9759 41.0054 31.1037 41.0208 31.2255 41.029C31.3477 41.0357 31.4679 41.0331 31.5866 41.0198C31.7038 41.006 31.8128 40.981 31.9136 40.9446C32.0129 40.9078 32.1034 40.8612 32.1818 40.8054C32.2601 40.7496 32.3272 40.6764 32.3825 40.5873C32.4363 40.4978 32.4758 40.3948 32.4974 40.2791C32.538 40.0656 32.4947 39.8736 32.3664 39.7061C32.2382 39.5387 32.0153 39.3789 31.6978 39.2319L30.6895 38.7636C30.4911 38.6684 30.3254 38.5874 30.1971 38.5224C30.0688 38.4573 29.9312 38.3789 29.7855 38.2893C29.6414 38.2002 29.5243 38.1167 29.4379 38.0383C29.3516 37.96 29.2683 37.8673 29.1875 37.7618C29.1068 37.6563 29.0517 37.5457 29.017 37.43C28.9839 37.3147 28.964 37.1852 28.958 37.0398C28.952 36.8944 28.9655 36.7366 28.9974 36.5646C29.0267 36.4054 29.0754 36.2595 29.139 36.1253C29.2041 35.9917 29.2824 35.8745 29.3741 35.7736C29.4657 35.6728 29.5717 35.5852 29.69 35.5069C29.8082 35.4286 29.9382 35.3661 30.0774 35.317C30.2165 35.2679 30.367 35.2311 30.5261 35.2091C30.6857 35.1856 30.8499 35.1738 31.0208 35.1728C31.1916 35.1718 31.3707 35.1821 31.5563 35.2031L31.8036 33.8857C31.8293 33.7526 31.8882 33.6579 31.9809 33.6001C32.0735 33.5422 32.1753 33.5233 32.2873 33.5453C32.3983 33.5653 32.4903 33.6217 32.5619 33.7139C32.6339 33.8045 32.6568 33.9146 32.6327 34.0431L32.3828 35.3733C32.6022 35.4363 32.8124 35.5168 33.0159 35.6121C33.2194 35.7073 33.384 35.7965 33.5103 35.8779C33.6365 35.9594 33.7582 36.0444 33.8737 36.1325C34.0598 36.2697 34.1348 36.4382 34.0978 36.641C34.0901 36.6845 34.0747 36.7254 34.0542 36.7664C34.0337 36.8074 34.0071 36.8412 33.9748 36.8714C33.9426 36.9016 33.9088 36.9261 33.8709 36.9476C33.833 36.9691 33.7906 36.984 33.7409 36.9896C33.6913 36.9952 33.6407 36.9937 33.589 36.9849C33.5634 36.9798 33.5384 36.9732 33.5159 36.9639C33.4929 36.9562 33.4678 36.9445 33.4422 36.9342C33.4157 36.9219 33.3906 36.9101 33.3661 36.8968C33.3615 36.8953 33.3103 36.8646 33.2112 36.8041C33.112 36.7437 33.0399 36.6991 32.9969 36.6745C32.954 36.6499 32.8742 36.6079 32.7607 36.5495C32.6467 36.4927 32.5491 36.4481 32.4632 36.4143C32.3788 36.381 32.275 36.3446 32.1548 36.3062C32.0331 36.2673 31.9134 36.2375 31.7932 36.2145C31.5447 36.1673 31.3201 36.1504 31.1175 36.1647C30.9155 36.1774 30.7384 36.2327 30.589 36.3279C30.4375 36.4241 30.3447 36.5639 30.3103 36.7487C30.2671 36.9801 30.3012 37.1588 30.4162 37.2843C30.5312 37.4098 30.7781 37.5588 31.1631 37.7335L32.1546 38.1859C32.7952 38.4784 33.2364 38.8016 33.4806 39.1529C33.7247 39.5042 33.8001 39.9271 33.707 40.4202C33.5965 41.0064 33.3163 41.4319 32.8659 41.6929C32.4155 41.954 31.8614 42.0557 31.2031 41.9998L30.9589 43.2977C30.9347 43.4263 30.8727 43.52 30.7729 43.5788C30.6731 43.6377 30.5662 43.6566 30.4506 43.6351C30.3816 43.6223 30.3207 43.5951 30.2665 43.5531C30.2124 43.5111 30.1715 43.4548 30.1424 43.3836C30.1133 43.3124 30.1083 43.2305 30.1247 43.1404L30.3689 41.8424L30.37 41.8342Z" fill="white"/>
<path d="M23.1232 37.1842C25.291 37.2265 27.084 35.5017 27.1278 33.3318C27.1717 31.1618 25.4499 29.3684 23.2821 29.3261C21.1143 29.2838 19.3214 31.0086 19.2775 33.1785C19.2337 35.3485 20.9555 37.1419 23.1232 37.1842Z" fill="#B57E05"/>
<path d="M25.1661 35.9587C26.9193 34.6805 27.3064 32.2224 26.0307 30.4684C24.755 28.7144 22.2996 28.3287 20.5463 29.6069C18.7931 30.8852 18.406 33.3433 19.6817 35.0973C20.9574 36.8513 23.4129 37.237 25.1661 35.9587Z" fill="#FFB81D"/>
<path d="M22.3435 35.911C20.6235 35.6285 19.4546 33.9969 19.7366 32.2745C20.0201 30.5526 21.6509 29.3814 23.3714 29.6623C25.0915 29.9448 26.2603 31.5764 25.9784 33.2988C25.6949 35.0207 24.064 36.1919 22.3435 35.911ZM23.3375 29.8661C21.729 29.6021 20.2036 30.6975 19.9386 32.3078C19.6736 33.9181 20.7669 35.4442 22.3754 35.7082C23.9839 35.9722 25.5093 34.8768 25.7743 33.2665C26.0393 31.6562 24.946 30.1302 23.3375 29.8661Z" fill="#FFD98A"/>
<path d="M22.5144 34.2047C22.3252 34.1535 22.1549 34.0813 22.0041 33.9916C21.8533 33.902 21.7286 33.8057 21.632 33.7069C21.5768 33.6474 21.5559 33.5824 21.5687 33.5133C21.579 33.457 21.6082 33.4104 21.6574 33.3756C21.7065 33.3408 21.7597 33.3295 21.8206 33.3413C21.8671 33.35 21.9126 33.372 21.9566 33.4089C22.0659 33.5052 22.1815 33.5882 22.3042 33.6599C22.4269 33.7316 22.5685 33.7823 22.7322 33.8131C22.793 33.8249 22.8519 33.8326 22.9071 33.8356C22.9639 33.8392 23.0191 33.8372 23.0723 33.8311C23.1255 33.8249 23.1757 33.8127 23.2217 33.7973C23.2678 33.782 23.3077 33.7594 23.3451 33.7344C23.3809 33.7088 23.4127 33.675 23.4362 33.635C23.4618 33.5941 23.4793 33.547 23.4885 33.4937C23.5076 33.3959 23.4872 33.3089 23.4279 33.231C23.3702 33.1537 23.2679 33.082 23.1217 33.0144L22.6595 32.8003C22.5685 32.7562 22.4938 32.7193 22.434 32.6891C22.3742 32.6589 22.3128 32.623 22.2464 32.582C22.1799 32.5411 22.1262 32.5027 22.0869 32.4673C22.0475 32.432 22.0087 32.39 21.9724 32.3403C21.9356 32.2922 21.9101 32.241 21.8953 32.1882C21.8805 32.1355 21.8714 32.0761 21.8679 32.01C21.8643 31.944 21.8716 31.8713 21.886 31.7924C21.8998 31.7202 21.9209 31.6521 21.9511 31.5922C21.9803 31.5303 22.0167 31.4775 22.0592 31.432C22.1017 31.3864 22.1493 31.346 22.2041 31.3096C22.2583 31.2748 22.3177 31.2451 22.3817 31.2221C22.4456 31.1991 22.5142 31.1827 22.5874 31.173C22.661 31.1618 22.7362 31.1561 22.8145 31.1567C22.8933 31.1557 22.9751 31.1608 23.0605 31.1705L23.1731 30.5679C23.1849 30.507 23.2116 30.4629 23.2546 30.4363C23.2976 30.4097 23.3431 30.401 23.3943 30.4113C23.4454 30.4215 23.4868 30.4456 23.5205 30.4876C23.5527 30.5291 23.5649 30.5793 23.5536 30.6386L23.439 31.2474C23.5387 31.2756 23.6354 31.313 23.7284 31.356C23.8215 31.3991 23.8966 31.4395 23.9554 31.478C24.0142 31.5164 24.0684 31.5532 24.121 31.5947C24.2059 31.6572 24.2411 31.7356 24.2226 31.8267C24.2195 31.8462 24.2129 31.8661 24.2036 31.8835C24.1939 31.9025 24.1821 31.9173 24.1673 31.9311C24.1524 31.945 24.1366 31.9567 24.1197 31.9665C24.1028 31.9762 24.0818 31.9828 24.0603 31.9859C24.0373 31.9885 24.0138 31.9874 23.9913 31.9833C23.98 31.9813 23.9693 31.9777 23.9585 31.9741C23.9478 31.9705 23.9371 31.9669 23.9243 31.9593C23.912 31.9552 23.9008 31.948 23.889 31.9424C23.8875 31.9418 23.8629 31.9285 23.8179 31.8998C23.7724 31.8727 23.7402 31.8517 23.7203 31.8399C23.7003 31.8281 23.664 31.8092 23.6129 31.7836C23.5603 31.7574 23.5158 31.7375 23.4769 31.7211C23.438 31.7047 23.3905 31.6888 23.3363 31.6724C23.2821 31.656 23.2258 31.6406 23.1711 31.6309C23.057 31.6099 22.9542 31.6011 22.8616 31.6078C22.769 31.6144 22.6892 31.639 22.6201 31.6825C22.551 31.726 22.509 31.7905 22.4931 31.874C22.473 31.9799 22.4883 32.0619 22.5409 32.1187C22.5936 32.1756 22.7071 32.2442 22.8814 32.3246L23.336 32.5311C23.629 32.6648 23.8319 32.8128 23.9433 32.9746C24.0551 33.1349 24.0892 33.329 24.0466 33.5538C23.9962 33.822 23.8681 34.0166 23.6613 34.1353C23.4561 34.2546 23.2018 34.3011 22.9 34.2755L22.7885 34.8699C22.7772 34.9293 22.7495 34.9713 22.7029 34.9984C22.6579 35.0261 22.6078 35.0332 22.5546 35.024C22.5223 35.0184 22.4963 35.0045 22.4697 34.9871C22.4451 34.9687 22.4268 34.942 22.412 34.9098C22.3992 34.8765 22.3962 34.8396 22.4044 34.7997L22.5159 34.2052L22.5144 34.2047Z" fill="white"/>
<path d="M69.7274 57.3956C73.9692 55.2745 75.6926 50.1142 73.5767 45.8698C71.4608 41.6254 66.3068 39.9041 62.0649 42.0252C57.8231 44.1462 56.0997 49.3065 58.2156 53.5509C60.3315 57.7954 65.4855 59.5167 69.7274 57.3956Z" fill="#FFB81D"/>
<path d="M63.2519 56.7449C67.8167 58.0206 72.5531 55.35 73.831 50.7798C75.1088 46.2096 72.4442 41.4705 67.8794 40.1948C63.3146 38.919 58.5782 41.5896 57.3003 46.1598C56.0225 50.73 58.6871 55.4691 63.2519 56.7449Z" fill="#FFD98A"/>
<path opacity="0.67" d="M63.3119 55.2058C62.8747 55.0598 62.4457 54.8687 62.0311 54.6295C58.6486 52.6872 57.4777 48.3505 59.4206 44.9633C61.3636 41.5761 65.6969 40.4009 69.0794 42.3433C72.4618 44.2856 73.6327 48.6223 71.6898 52.0095C69.9846 54.9809 66.4415 56.251 63.3135 55.2063L63.3119 55.2058ZM62.1915 54.3485C65.419 56.2032 69.5543 55.0797 71.4081 51.8471C73.2619 48.6145 72.144 44.4765 68.9159 42.6233C65.6878 40.7701 61.5531 41.8921 59.6993 45.1247C57.8455 48.3573 58.9634 52.4952 62.1915 54.3485ZM63.4602 54.7824C63.0444 54.6436 62.641 54.4627 62.2535 54.2394C60.7212 53.3589 59.6223 51.9316 59.1604 50.2203C58.6986 48.509 58.9274 46.721 59.8082 45.1867C60.689 43.6523 62.1156 42.5512 63.8256 42.0877C65.5361 41.6226 67.3232 41.8524 68.8539 42.7324C70.3861 43.6129 71.4851 45.0401 71.9469 46.7514C72.4088 48.4628 72.18 50.2507 71.2992 51.7851C70.4184 53.3195 68.9917 54.4206 67.2818 54.8841C66.0046 55.231 64.6844 55.1913 63.4602 54.7824ZM67.5446 42.4965C66.3802 42.1077 65.1244 42.069 63.9092 42.399C62.2816 42.8405 60.924 43.8879 60.0873 45.3465C59.2501 46.8066 59.0321 48.506 59.472 50.1349C59.912 51.7637 60.9573 53.1219 62.4138 53.9583C63.872 54.7953 65.5711 55.0128 67.1971 54.5707C68.8247 54.1292 70.1808 53.0813 71.019 51.6232C71.8563 50.1631 72.0747 48.4622 71.6343 46.8348C71.1944 45.206 70.1491 43.8478 68.6925 43.0114C68.3234 42.7993 67.9394 42.6267 67.5451 42.495L67.5446 42.4965Z" fill="white"/>
<path d="M63.7669 51.1272C63.4193 50.8762 63.1259 50.6007 62.8853 50.3C62.6446 49.9994 62.4633 49.7101 62.3413 49.432C62.2734 49.2676 62.2787 49.1192 62.3597 48.984C62.4247 48.876 62.5199 48.8053 62.6458 48.7705C62.7717 48.7357 62.8914 48.7552 63.0064 48.8244C63.0958 48.8782 63.171 48.9596 63.2333 49.0692C63.3854 49.3488 63.5576 49.6094 63.7533 49.8507C63.949 50.0919 64.202 50.3044 64.5108 50.4929C64.6258 50.5621 64.7403 50.6225 64.8528 50.6737C64.9658 50.7234 65.0788 50.7629 65.1934 50.7926C65.3079 50.8223 65.4194 50.8356 65.5248 50.8367C65.6302 50.8377 65.7315 50.8255 65.8251 50.8004C65.9188 50.7753 66.0068 50.7313 66.0897 50.6668C66.1726 50.6023 66.2433 50.5184 66.3038 50.419C66.417 50.2332 66.4427 50.0386 66.381 49.8353C66.3209 49.6326 66.1661 49.4067 65.9208 49.1558L65.1404 48.3625C64.9871 48.2037 64.8614 48.0695 64.7638 47.9635C64.6667 47.856 64.5655 47.7351 64.4603 47.6009C64.355 47.4668 64.2774 47.3469 64.2217 47.243C64.1676 47.1395 64.1212 47.0233 64.0834 46.8963C64.0457 46.7693 64.031 46.6449 64.0398 46.5266C64.0491 46.4068 64.0748 46.2788 64.121 46.1405C64.1672 46.0023 64.2338 45.8589 64.3245 45.71C64.408 45.5722 64.5027 45.4519 64.6123 45.3485C64.7198 45.2461 64.8345 45.1632 64.9558 45.1013C65.0771 45.0394 65.2065 44.9938 65.3452 44.9616C65.4838 44.9294 65.6261 44.9171 65.7754 44.9192C65.9243 44.9228 66.0767 44.9413 66.2342 44.9751C66.3917 45.0089 66.5503 45.055 66.7113 45.114C66.8724 45.1729 67.036 45.2446 67.2017 45.3307L67.8954 44.1828C67.9646 44.0676 68.0542 43.9985 68.1606 43.976C68.2685 43.954 68.3698 43.9725 68.4664 44.0304C68.563 44.0882 68.63 44.1738 68.6647 44.2844C68.6993 44.395 68.6829 44.5056 68.6163 44.6182L67.9159 45.7758C68.0989 45.912 68.2676 46.0605 68.4255 46.2208C68.5829 46.3827 68.7065 46.523 68.7959 46.6433C68.8853 46.7637 68.9691 46.8856 69.0473 47.009C69.1734 47.2031 69.185 47.3879 69.079 47.5625C69.0564 47.5993 69.0278 47.6342 68.994 47.6639C68.9602 47.6935 68.9233 47.7171 68.8834 47.7345C68.844 47.7504 68.802 47.7637 68.7591 47.7698C68.7156 47.7775 68.6706 47.7744 68.6215 47.7631C68.5724 47.7518 68.5264 47.7313 68.4809 47.7042C68.4584 47.6899 68.4374 47.676 68.4205 47.6601C68.4021 47.6438 68.3827 47.6253 68.3618 47.6064C68.3413 47.5859 68.3209 47.5654 68.304 47.5444C68.2994 47.5429 68.2626 47.4947 68.1906 47.4041C68.1191 47.3119 68.0675 47.2469 68.0348 47.2069C68.0021 47.167 67.9438 47.1014 67.8574 47.0077C67.7711 46.914 67.6944 46.8372 67.6275 46.7772C67.561 46.7158 67.4767 46.6466 67.3765 46.5688C67.2763 46.4909 67.1741 46.4192 67.0703 46.3572C66.8545 46.2271 66.6495 46.1314 66.4557 46.0734C66.2619 46.0155 66.0783 46.0037 65.9038 46.0411C65.7293 46.0784 65.5926 46.1762 65.4963 46.3369C65.3744 46.5387 65.3451 46.7184 65.4068 46.8756C65.4701 47.0333 65.6499 47.2607 65.9479 47.5582L66.7185 48.3295C67.2153 48.8283 67.5161 49.2857 67.6211 49.7015C67.7261 50.1172 67.65 50.5391 67.3908 50.9682C67.0818 51.4796 66.6718 51.7781 66.1581 51.866C65.645 51.9524 65.0911 51.8545 64.4939 51.5697L63.8109 52.7006C63.7428 52.8128 63.6527 52.8783 63.5386 52.8982C63.4245 52.9182 63.3171 52.8977 63.2164 52.8367C63.1566 52.8014 63.1096 52.7532 63.0723 52.6964C63.035 52.6395 63.0167 52.572 63.0152 52.4946C63.0137 52.4173 63.0363 52.3395 63.0829 52.2612L63.7659 51.1302L63.7669 51.1272Z" fill="white"/>
<path d="M61.0818 44.3656C63.1749 43.7976 64.4129 41.639 63.8469 39.5443C63.2809 37.4496 61.1254 36.212 59.0323 36.78C56.9392 37.3481 55.7012 39.5067 56.2672 41.6014C56.8332 43.6961 58.9888 44.9337 61.0818 44.3656Z" fill="#FFB81D"/>
<path d="M60.9296 43.8002C63.0227 43.2321 64.2606 41.0735 63.6947 38.9788C63.1287 36.8842 60.9731 35.6466 58.8801 36.2146C56.787 36.7827 55.549 38.9412 56.115 41.0359C56.681 43.1306 58.8365 44.3682 60.9296 43.8002Z" fill="#FFD98A"/>
<path opacity="0.67" d="M58.8468 43.1735C58.6412 43.1049 58.4392 43.0152 58.2449 42.9026C57.4765 42.4615 56.9247 41.7446 56.6928 40.8869C56.4614 40.0276 56.5763 39.1321 57.018 38.3611C57.9315 36.7694 59.9664 36.2163 61.5559 37.1296C63.1454 38.0429 63.6965 40.0793 62.7829 41.6711C61.9826 43.0667 60.3164 43.6644 58.8468 43.1735ZM60.7833 37.3598C60.2663 37.1872 59.7108 37.1707 59.171 37.3165C58.449 37.5124 57.847 37.9772 57.476 38.6233C57.1046 39.271 57.0077 40.0257 57.2029 40.7482C57.3982 41.4707 57.8621 42.073 58.5073 42.4438C59.154 42.8152 59.9064 42.9111 60.6283 42.7151C61.3503 42.5192 61.9523 42.0544 62.3233 41.4083C62.6947 40.7606 62.7916 40.0059 62.5964 39.2834C62.4012 38.5609 61.9372 37.9586 61.292 37.5878C61.129 37.4941 60.9582 37.4182 60.7833 37.3598Z" fill="white"/>
<path d="M59.0819 41.2233C58.9224 41.1085 58.789 40.982 58.6781 40.8443C58.5673 40.7065 58.485 40.5749 58.4289 40.4469C58.3978 40.3716 58.3999 40.304 58.4378 40.2416C58.468 40.1919 58.511 40.1602 58.5678 40.1433C58.6241 40.1279 58.6793 40.1361 58.7335 40.1679C58.7749 40.192 58.8081 40.2304 58.8378 40.2795C58.9077 40.4071 58.9869 40.5274 59.0763 40.6375C59.1657 40.7476 59.2812 40.8459 59.4234 40.931C59.476 40.9622 59.5282 40.9899 59.5798 41.014C59.6315 41.038 59.6836 41.0555 59.7358 41.0678C59.7879 41.0801 59.8386 41.0867 59.8877 41.0878C59.9368 41.0888 59.9818 41.0816 60.0248 41.0704C60.0678 41.0591 60.1087 41.0386 60.1461 41.0084C60.1835 40.9782 60.2162 40.9414 60.2439 40.8943C60.2962 40.8093 60.307 40.7207 60.28 40.628C60.2529 40.5353 60.1819 40.4314 60.07 40.3172L59.7138 39.9541C59.6443 39.8814 59.5861 39.8209 59.5411 39.7718C59.4961 39.7226 59.4496 39.6678 59.4021 39.6058C59.3546 39.5439 59.3183 39.4891 59.2933 39.4414C59.2683 39.3938 59.2469 39.3406 59.2305 39.2822C59.2142 39.2238 59.2071 39.1685 59.2102 39.1132C59.2149 39.0584 59.2262 38.999 59.2472 38.9361C59.2683 38.8731 59.299 38.8065 59.3405 38.7384C59.3784 38.676 59.4225 38.6207 59.4721 38.5741C59.5218 38.5275 59.574 38.4886 59.6293 38.461C59.6846 38.4333 59.7444 38.4124 59.8074 38.3975C59.8703 38.3827 59.9368 38.3776 60.0048 38.3781C60.0723 38.3802 60.1429 38.3884 60.2145 38.4037C60.2861 38.4191 60.3593 38.4401 60.4319 38.4678C60.5045 38.4955 60.5807 38.5277 60.6563 38.5667L60.973 38.0424C61.0042 37.9897 61.0457 37.9574 61.0948 37.9482C61.1439 37.939 61.191 37.9462 61.2349 37.9728C61.2789 37.9995 61.3101 38.0389 61.3259 38.0886C61.3417 38.1382 61.3345 38.1905 61.3037 38.2417L60.9835 38.7715C61.0669 38.8335 61.1445 38.9022 61.2171 38.9759C61.2897 39.0496 61.3449 39.1142 61.3862 39.169C61.4276 39.2238 61.4654 39.2791 61.5007 39.3369C61.5579 39.426 61.5639 39.51 61.5148 39.5909C61.504 39.6078 61.4917 39.6242 61.4753 39.6375C61.4605 39.6513 61.4431 39.6626 61.4236 39.6697C61.4057 39.6774 61.3868 39.6831 61.3668 39.6866C61.3469 39.6902 61.3269 39.6887 61.3044 39.6846C61.2824 39.6789 61.2615 39.6702 61.24 39.6579C61.2303 39.6513 61.2206 39.6446 61.2124 39.6385C61.2042 39.6323 61.1955 39.6226 61.1848 39.6139C61.1761 39.6042 61.1669 39.596 61.1582 39.5862C61.1567 39.5857 61.1383 39.5642 61.1066 39.5212C61.0744 39.4797 61.0504 39.4495 61.0361 39.4311C61.0218 39.4126 60.9942 39.3829 60.9554 39.3409C60.9165 39.2989 60.8808 39.2631 60.8491 39.2354C60.8174 39.2078 60.7806 39.175 60.7346 39.1391C60.6886 39.1033 60.6415 39.0705 60.5945 39.0428C60.4953 38.9824 60.4023 38.9394 60.3138 38.9132C60.2253 38.8871 60.1404 38.8809 60.0611 38.8988C59.9803 38.9162 59.9194 38.9608 59.8743 39.0345C59.8179 39.1267 59.8056 39.2096 59.8331 39.2803C59.8617 39.353 59.945 39.4559 60.0799 39.5932L60.4325 39.9465C60.6599 40.1745 60.7979 40.3844 60.8453 40.5744C60.8926 40.7644 60.8587 40.9579 60.7388 41.1535C60.5974 41.388 60.4101 41.5251 60.1752 41.5645C59.9404 41.6039 59.6877 41.5588 59.4137 41.4297L59.1012 41.9468C59.0704 41.998 59.0279 42.0282 58.9773 42.0369C58.9246 42.0466 58.8765 42.0374 58.83 42.0082C58.8029 41.9923 58.7814 41.9698 58.7646 41.9436C58.7477 41.9175 58.7396 41.8858 58.7391 41.8515C58.7391 41.8156 58.7489 41.7813 58.7699 41.7439L59.0824 41.2269L59.0819 41.2233Z" fill="white"/>
<path d="M67.7239 67.0937L41.217 66.5345C40.554 66.5199 40.0115 65.9132 40.0041 65.1764L39.8245 48.4005C39.8171 47.6638 40.3468 47.0794 41.0097 47.0939L67.5167 47.6532C68.1796 47.6677 68.7221 48.2745 68.7295 49.0112L68.9092 65.7871C68.9164 66.5223 68.3868 67.1083 67.7239 67.0937Z" fill="#1E87D5"/>
<path opacity="0.47" d="M67.7239 67.0939L48.9681 66.6092C48.3052 66.5947 58.9085 47.5498 59.5713 47.5627L67.5167 47.6533C68.1796 47.6679 68.7221 48.2746 68.7295 49.0114L68.9092 65.7873C68.9165 66.5224 68.3868 67.1084 67.7239 67.0939Z" fill="#0461A5"/>
<path opacity="0.33" d="M67.2073 66.2528L41.5502 65.7117C41.2772 65.7065 41.0522 65.4556 41.0484 65.1506L40.8719 48.6716C40.8682 48.3682 41.0882 48.1257 41.3613 48.1325L67.0185 48.6736C67.2914 48.6789 67.5165 48.9297 67.5202 49.2347L67.6968 65.7137C67.7004 66.0171 67.4804 66.2596 67.2073 66.2528Z" fill="#0461A5"/>
<path d="M47.4364 58.4996L43.4892 58.4491C43.4535 58.4486 43.423 58.4314 43.423 58.4103L43.4083 57.791C43.4067 57.77 43.4363 57.7532 43.4736 57.7536L47.4208 57.8041C47.4565 57.8046 47.487 57.8218 47.487 57.8429L47.5016 58.4622C47.5032 58.4832 47.4737 58.5 47.4364 58.4996Z" fill="white"/>
<path d="M50.0249 62.3126L43.4404 62.1785C43.4047 62.1779 43.3747 62.1461 43.3734 62.1072L43.3601 60.973C43.3603 60.934 43.3888 60.9026 43.4246 60.9048L50.0092 61.0389C50.0449 61.0394 50.0749 61.0712 50.0762 61.1101L50.0895 62.2443C50.0892 62.2833 50.0608 62.3147 50.0249 62.3126Z" fill="#3E479B"/>
<path d="M54.3432 62.4016L51.1167 62.3352C51.081 62.3347 51.051 62.3028 51.0496 62.264L51.0363 61.1298C51.0366 61.0908 51.065 61.0594 51.1009 61.0615L54.3274 61.1279C54.3631 61.1284 54.3931 61.1602 54.3945 61.1991L54.4078 62.3333C54.4075 62.3723 54.379 62.4037 54.3432 62.4016Z" fill="#3E479B"/>
<path d="M52.3564 58.632L48.4093 58.5814C48.3735 58.5809 48.343 58.5637 48.3431 58.5426L48.3284 57.9234C48.3268 57.9024 48.3563 57.8855 48.3937 57.8859L52.3408 57.9364C52.3765 57.937 52.407 57.9541 52.407 57.9752L52.4217 58.5945C52.4233 58.6155 52.3938 58.6324 52.3564 58.632Z" fill="white"/>
<path d="M57.1545 58.6945L53.2074 58.6439C53.1716 58.6434 53.1411 58.6262 53.1412 58.6051L53.1265 57.9859C53.1249 57.9649 53.1544 57.948 53.1918 57.9484L57.1389 57.9989C57.1746 57.9995 57.2051 58.0166 57.2051 58.0377L57.2198 58.657C57.2214 58.678 57.1918 58.6949 57.1545 58.6945Z" fill="white"/>
<path d="M61.9525 58.756L58.0053 58.7055C57.9696 58.7049 57.9391 58.6878 57.9391 58.6667L57.9245 58.0474C57.9229 58.0264 57.9524 58.0095 57.9897 58.0099L61.9369 58.0605C61.9726 58.061 62.0031 58.0781 62.0031 58.0993L62.0178 58.7185C62.0194 58.7395 61.9898 58.7564 61.9525 58.756Z" fill="white"/>
<path d="M62.5574 51.4624C62.5658 50.9973 62.7713 50.5854 63.0935 50.2994C62.8154 50.0347 62.441 49.8683 62.0286 49.8624C61.1515 49.8479 60.4278 50.5477 60.412 51.4275C60.3977 52.3056 61.0968 53.0303 61.9756 53.0463C62.3898 53.0538 62.7674 52.9 63.0545 52.6443C62.7432 52.348 62.549 51.9276 62.5576 51.4641L62.5574 51.4624Z" fill="white"/>
<path d="M64.7349 49.9149C64.3207 49.9074 63.9431 50.0612 63.656 50.3169C63.3339 50.6029 63.1268 51.0149 63.12 51.4799C63.1115 51.945 63.3056 52.3639 63.6169 52.6601C63.8949 52.9248 64.2693 53.0912 64.6818 53.0972C65.5588 53.1117 66.2826 52.4119 66.2983 51.5321C66.3127 50.654 65.6135 49.9292 64.7348 49.9132L64.7349 49.9149Z" fill="#FFB81D"/>
<path d="M47.7912 54.6778L44.1513 54.6786C43.8187 54.6779 43.545 54.4064 43.5455 54.0718L43.5443 52.2854L43.5441 51.8356C43.5447 51.5026 43.8159 51.2286 44.15 51.2292L47.79 51.2283C48.1225 51.229 48.3962 51.5005 48.3957 51.8351L48.3972 54.0714C48.3965 54.4043 48.1254 54.6783 47.7912 54.6778Z" fill="#FFD3FF"/>
<path d="M43.5435 52.2023L43.5424 52.3643L48.388 52.4002L48.3892 52.2383L43.5435 52.2023Z" fill="white"/>
<path d="M43.5595 53.5485L43.5583 53.7104L48.404 53.7464L48.4052 53.5845L43.5595 53.5485Z" fill="white"/>
<path d="M44.4891 51.2226L44.4811 54.6621L44.6428 54.6625L44.6509 51.223L44.4891 51.2226Z" fill="white"/>
<path d="M46.9558 51.2316L46.9819 54.6694L47.1437 54.6682L47.1176 51.2304L46.9558 51.2316Z" fill="white"/>
</g>
<defs>
<clipPath id="clip0_1406_4879">
<rect width="67.8118" height="64.8889" fill="white" transform="translate(21.1179) rotate(18.4681)"/>
</clipPath>
</defs>
</svg>
