<svg width="22" height="22" viewBox="0 0 22 22" fill="none" xmlns="http://www.w3.org/2000/svg">
<g clip-path="url(#clip0_1289_2792)">
<path d="M20.1042 10.5696V8.13797C20.1042 6.94333 19.1537 5.96706 17.9692 5.92444V4.43191C17.9692 3.65449 17.3367 3.022 16.5593 3.022H12.6777L12.1765 1.62872C12.0486 1.27343 11.7899 0.98951 11.448 0.829304C11.1061 0.669057 10.7224 0.651977 10.3676 0.781125L3.32387 3.34479C2.96946 3.47377 2.68671 3.73316 2.52767 4.07516C2.36863 4.41717 2.35248 4.80054 2.48223 5.15471L2.76522 5.92714C1.60768 5.99873 0.687737 6.9627 0.687737 8.13797V19.095C0.687737 20.3167 1.68164 21.3106 2.90331 21.3106H17.8887C19.1103 21.3106 20.1042 20.3167 20.1042 19.095V16.5828C20.7866 16.4848 21.3127 15.8966 21.3127 15.1875V11.9649C21.3127 11.2558 20.7866 10.6676 20.1042 10.5696ZM20.1042 15.1875C20.1042 15.2986 20.0139 15.3889 19.9028 15.3889H16.6802C15.6806 15.3889 14.8674 14.5757 14.8674 13.5762C14.8674 12.5767 15.6806 11.7635 16.6802 11.7635H19.9028C20.0139 11.7635 20.1042 11.8538 20.1042 11.9649V15.1875ZM3.61697 4.73899C3.59195 4.67071 3.61028 4.61306 3.62346 4.58475C3.63663 4.55647 3.66889 4.50527 3.73722 4.48041L10.7809 1.91675C10.8493 1.89189 10.9069 1.91038 10.9353 1.92364C10.9636 1.93689 11.0147 1.96936 11.0393 2.03784L11.3934 3.02204H11.1211C10.3437 3.02204 9.71117 3.65453 9.71117 4.43195V5.92243H4.05054L3.61697 4.73899ZM16.7607 4.43191V5.92239H10.9197V4.43191C10.9197 4.32085 11.01 4.23049 11.1211 4.23049H16.5593C16.6704 4.23049 16.7607 4.32085 16.7607 4.43191ZM17.8887 20.1021H2.90331C2.34801 20.1021 1.89623 19.6503 1.89623 19.095V8.13797C1.89623 7.58266 2.34801 7.13089 2.90331 7.13089H17.8887C18.444 7.13089 18.8957 7.58266 18.8957 8.13797V10.555H16.6802C15.0143 10.555 13.6589 11.9103 13.6589 13.5762C13.6589 15.2421 15.0143 16.5974 16.6802 16.5974H18.8957V19.095C18.8957 19.6503 18.444 20.1021 17.8887 20.1021Z" fill="#2B2727" fill-opacity="0.6"/>
<path d="M16.6805 14.1812C17.0142 14.1812 17.2848 13.9106 17.2848 13.5769C17.2848 13.2432 17.0142 12.9727 16.6805 12.9727C16.3468 12.9727 16.0763 13.2432 16.0763 13.5769C16.0763 13.9106 16.3468 14.1812 16.6805 14.1812Z" fill="#2B2727" fill-opacity="0.6"/>
</g>
<defs>
<clipPath id="clip0_1289_2792">
<rect width="22" height="22" fill="white" transform="translate(0.000236511 0.00292969)"/>
</clipPath>
</defs>
</svg>
