<svg width="54" height="52" viewBox="0 0 54 52" fill="none" xmlns="http://www.w3.org/2000/svg">
<path d="M31.4472 50.5652C44.5096 48.5437 55.0901 36.1529 53.1159 22.4255C51.4318 10.7182 41.1334 1.63661 28.8162 0.815854C27.9243 0.756258 27.023 0.740716 26.1121 0.769227C19.243 0.98996 13.1482 3.75756 8.64738 7.93025C4.16774 12.0829 1.2666 17.6272 0.753934 23.4357C-0.611324 38.8896 15.2005 53.0797 31.4472 50.5652Z" fill="#F4F7FA"/>
<path d="M43.7097 49.8158C46.7646 49.4133 50.6361 48.369 52.1829 45.4548C52.5509 44.7615 52.9181 43.4158 51.982 42.9126C51.1263 42.4526 50.0233 42.945 49.3904 43.5493C48.925 43.9936 48.564 44.983 48.0405 45.2972C47.2743 45.7571 46.857 44.5104 46.8715 43.9953C46.9039 42.8436 48.3189 42.3676 49.2595 42.1144C50.8209 41.6943 52.6391 41.3326 52.5355 39.5719C52.4319 37.8112 50.7115 36.7605 49.3931 37.5351C48.3069 38.1735 48.4645 39.528 47.7235 40.3433C47.0652 41.0677 46.8315 39.8962 46.8738 39.3213C46.9655 38.0727 48.0602 37.1662 48.8651 36.3271C49.7752 35.3783 50.7778 33.4721 49.8004 32.2248C49.238 31.5069 47.8146 31.343 46.9741 31.4672C42.8596 32.0749 45.6065 37.3931 44.86 37.9899C44.1135 38.5867 43.402 37.5485 43.3987 35.9665C43.3954 34.3845 43.1495 33.2186 41.5002 33.7303C39.8509 34.2419 39.55 38.3751 41.4403 39.957C43.3306 41.5389 41.3328 43.278 40.823 42.1416C40.4549 41.3211 40.1268 39.1701 39.0701 38.9375C37.3093 38.5507 37.3471 42.1432 37.8561 42.9778C38.5698 44.1476 40.1756 44.397 41.0752 45.4054C41.3366 45.6983 41.9268 46.424 41.6999 46.8541C41.3833 47.454 40.4926 46.8163 40.1652 46.5398C39.4292 45.9181 38.4064 43.8008 37.377 45.2124C36.1059 46.9556 38.2495 49.5266 43.7097 49.8158Z" fill="url(#paint0_linear_1293_146)"/>
<g style="mix-blend-mode:soft-light" opacity="0.8">
<path d="M44.1491 49.5553C44.0773 49.5555 44.0181 49.4736 44.0166 49.4015C44.0152 49.3391 43.9097 43.0624 46.6214 35.6027C46.6329 35.5692 46.657 35.5415 46.6886 35.5256C46.7203 35.5097 46.7569 35.5068 46.7906 35.5175C46.8068 35.5231 46.8218 35.5318 46.8345 35.5433C46.8473 35.5547 46.8577 35.5685 46.8651 35.584C46.8724 35.5995 46.8766 35.6163 46.8774 35.6334C46.8782 35.6505 46.8755 35.6676 46.8696 35.6837C44.1747 43.0974 44.2793 49.3353 44.2806 49.3972C44.2822 49.4702 44.2245 49.555 44.1516 49.5553L44.1491 49.5553Z" fill="white"/>
</g>
<path style="mix-blend-mode:multiply" d="M46.1394 49.2911C46.0348 48.6491 44.8059 48.4698 44.3106 48.378C44.0234 48.3248 43.6146 48.2702 43.4662 47.9741C43.3102 47.6632 43.5451 47.4216 43.8469 47.3655C44.3872 47.265 44.9699 47.6065 45.4729 47.7612C46.0132 47.9273 46.5734 48.0045 47.1079 47.771C47.5341 47.5848 47.9696 47.1442 48.061 46.6818C48.3139 45.4019 47.0327 45.4796 46.1982 45.662C45.7932 45.7505 44.9967 45.8188 44.9234 45.2464C44.8454 44.6375 45.6196 44.3278 46.0984 44.308C46.7241 44.2822 47.3397 44.4178 47.9606 44.4608C48.5205 44.4996 49.1831 44.4365 49.3362 43.7918C49.4545 43.2938 49.1724 42.7228 48.7669 42.4289C47.8293 41.7494 46.6006 42.9173 45.6021 42.9181C45.2491 42.9184 44.6656 42.6613 44.5667 42.2826C44.4664 41.8967 44.9671 41.635 45.2416 41.4933C46.0554 41.0732 49.7975 40.5266 48.4512 38.9145C48.1123 38.5087 47.459 38.1688 46.9326 38.1561C45.9395 38.1321 44.8258 38.8098 44.0627 39.3937C42.8622 40.3122 41.8135 41.5742 41.1342 42.9251C39.6331 45.9105 40.3714 47.9067 40.3714 47.9067C40.8118 48.6275 41.4921 49.3765 42.2399 49.781C43.119 50.2564 44.4788 50.4622 45.4321 50.0872C45.7405 49.9658 46.2041 49.6888 46.1394 49.2911Z" fill="url(#paint1_linear_1293_146)"/>
<g style="mix-blend-mode:multiply" opacity="0.7">
<path d="M5.21723 31.6619L6.48589 31.7433C6.62727 31.1825 6.8176 30.6351 7.05468 30.1075L6.00011 29.4048C5.93167 29.3588 5.873 29.2998 5.82748 29.2311C5.78197 29.1624 5.75051 29.0854 5.73492 29.0045C5.71933 28.9235 5.71993 28.8403 5.73667 28.7596C5.75341 28.6789 5.78596 28.6023 5.83246 28.5343L7.0539 26.7245C7.14717 26.5855 7.2915 26.4887 7.4556 26.4554C7.61971 26.422 7.79035 26.4546 7.93055 26.5462L8.99922 27.2545C9.40322 26.8376 9.84208 26.456 10.311 26.1138L9.74499 24.9611C9.59235 24.6503 9.72382 24.2717 10.0387 24.1155L12.0116 23.1368C12.3276 22.98 12.7084 23.1051 12.8618 23.4165L13.4318 24.573C13.9916 24.409 14.5644 24.2936 15.144 24.2282L15.2384 22.9289C15.252 22.76 15.3312 22.603 15.459 22.4916C15.5868 22.3802 15.7531 22.3233 15.9224 22.3329L18.1315 22.456C18.2148 22.4599 18.2965 22.4804 18.3718 22.5163C18.4471 22.5523 18.5145 22.6029 18.5699 22.6652C18.6254 22.7276 18.6678 22.8004 18.6947 22.8794C18.7216 22.9583 18.7325 23.0419 18.7266 23.1251L18.632 24.4282C19.2009 24.5599 19.7573 24.7409 20.2947 24.9692L21.0361 23.8807C21.1325 23.7394 21.2802 23.6413 21.4477 23.6073C21.6153 23.5732 21.7895 23.6058 21.9334 23.6982L23.7859 24.9061C23.8563 24.9518 23.9168 25.0112 23.9638 25.0807C24.0108 25.1502 24.0434 25.2285 24.0596 25.3108C24.0758 25.3931 24.0753 25.4779 24.0581 25.56C24.041 25.6422 24.0075 25.7201 23.9597 25.789L23.2158 26.8778C23.6411 27.2773 24.0307 27.7134 24.3799 28.1809L25.574 27.5993C25.8973 27.4418 26.287 27.57 26.4444 27.8857L27.4293 29.8623C27.587 30.1787 27.4519 30.5626 27.1277 30.7194L25.9424 31.2931C26.107 31.8554 26.2208 32.4314 26.2823 33.0142L27.5971 33.0986C27.957 33.1217 28.2282 33.4264 28.2026 33.7793L28.0423 35.986C28.0167 36.3388 27.704 36.6052 27.3442 36.5811L26.0401 36.4935C25.8972 37.0665 25.7032 37.6256 25.4605 38.1639L26.5354 38.8763C26.606 38.9224 26.6668 38.9822 26.714 39.0521C26.7612 39.1221 26.7939 39.2008 26.8102 39.2836C26.8265 39.3664 26.826 39.4516 26.8089 39.5343C26.7917 39.6169 26.7581 39.6952 26.7102 39.7647L25.4489 41.5938C25.3503 41.7346 25.2006 41.8311 25.0318 41.8629C24.8629 41.8947 24.6883 41.859 24.5454 41.7637L23.4789 41.053C23.0621 41.4774 22.6091 41.8645 22.1248 42.2099L22.6847 43.3458C22.7218 43.4213 22.7435 43.5034 22.7485 43.5873C22.7535 43.6713 22.7417 43.7554 22.7138 43.8347C22.6859 43.914 22.6424 43.987 22.586 44.0493C22.5295 44.1116 22.4612 44.162 22.385 44.1976L20.3754 45.152C20.2213 45.2252 20.0446 45.235 19.8833 45.1793C19.722 45.1235 19.5891 45.0067 19.513 44.8539L18.9605 43.7286C18.3866 43.8885 17.7997 43.9974 17.2067 44.0543L17.1162 45.3004C17.1098 45.384 17.0868 45.4654 17.0488 45.54C17.0108 45.6147 16.9584 45.6811 16.8946 45.7355C16.8309 45.7898 16.757 45.831 16.6773 45.8568C16.5975 45.8825 16.5135 45.8923 16.43 45.8855L14.2241 45.7186C14.0557 45.7066 13.8989 45.6283 13.7881 45.5009C13.6772 45.3735 13.6214 45.2073 13.6328 45.0389L13.723 43.7964C13.1494 43.6538 12.5896 43.4608 12.05 43.2197L11.3492 44.2453C11.2539 44.3839 11.1075 44.4792 10.9422 44.5103C10.7768 44.5414 10.6058 44.5058 10.4666 44.4113L8.65396 43.1839C8.58524 43.1376 8.52634 43.0782 8.48064 43.009C8.43494 42.9399 8.40335 42.8624 8.38767 42.781C8.372 42.6996 8.37255 42.6159 8.38929 42.5348C8.40604 42.4536 8.43865 42.3765 8.48525 42.308L9.18796 41.2763C8.76875 40.8703 8.38595 40.4283 8.04396 39.9554L6.91718 40.5007C6.7668 40.5737 6.59364 40.584 6.43568 40.5294C6.27772 40.4748 6.14786 40.3598 6.07462 40.2095L5.12637 38.2573C5.05376 38.1072 5.04372 37.9343 5.09845 37.7768C5.15318 37.6192 5.2682 37.4898 5.41826 37.417L6.54726 36.8671C6.3904 36.3098 6.28335 35.7397 6.22737 35.1635L4.96906 35.079C4.8869 35.0736 4.80662 35.052 4.73285 35.0155C4.65907 34.9789 4.59327 34.9281 4.53923 34.866C4.48519 34.8038 4.44398 34.7316 4.41798 34.6535C4.39198 34.5754 4.3817 34.4929 4.38774 34.4107L4.5448 32.2479C4.55721 32.0813 4.63477 31.9264 4.76065 31.8167C4.88653 31.707 5.05058 31.6514 5.21723 31.6619ZM16.6377 27.7393C13.0823 27.525 10.0092 30.1965 9.75441 33.705C9.49963 37.2134 12.1574 40.2613 15.71 40.5139C19.2842 40.7681 22.4063 38.0999 22.6639 34.5529C22.9215 31.0059 20.2147 27.9548 16.6377 27.7393Z" fill="#D8DEE8"/>
</g>
<g style="mix-blend-mode:multiply" opacity="0.7">
<path d="M9.16331 12.4648L9.86078 12.5095C9.93851 12.2012 10.0431 11.9003 10.1735 11.6102L9.59372 11.2239C9.55609 11.1986 9.52383 11.1662 9.49881 11.1284C9.47379 11.0906 9.45649 11.0483 9.44792 11.0038C9.43935 10.9593 9.43968 10.9136 9.44888 10.8692C9.45809 10.8248 9.47598 10.7827 9.50154 10.7453L10.1731 9.75037C10.2243 9.6739 10.3037 9.62073 10.3939 9.60238C10.4841 9.58402 10.5779 9.60197 10.655 9.65233L11.2425 10.0417C11.4646 9.81252 11.7059 9.60273 11.9637 9.41462L11.6526 8.78087C11.6126 8.69777 11.6071 8.60223 11.6374 8.51512C11.6677 8.42802 11.7312 8.35643 11.814 8.316L12.8987 7.7779C12.9394 7.75722 12.9839 7.7448 13.0295 7.74134C13.0751 7.73788 13.1209 7.74346 13.1643 7.75775C13.2077 7.77204 13.2479 7.79476 13.2825 7.82461C13.3172 7.85447 13.3456 7.89086 13.3661 7.93171L13.6795 8.56749C13.9872 8.47734 14.3021 8.41393 14.6208 8.37794L14.6727 7.66365C14.6801 7.57075 14.7237 7.48446 14.7939 7.42323C14.8642 7.362 14.9556 7.33068 15.0487 7.33598L16.2632 7.40364C16.309 7.40578 16.3539 7.41706 16.3953 7.43682C16.4367 7.45657 16.4738 7.4844 16.5042 7.51868C16.5347 7.55295 16.5581 7.59298 16.5728 7.6364C16.5876 7.67982 16.5936 7.72576 16.5904 7.77152L16.5384 8.48793C16.8511 8.56028 17.157 8.65979 17.4525 8.78532L17.8601 8.18688C17.9131 8.10923 17.9942 8.05531 18.0864 8.03657C18.1785 8.01784 18.2743 8.03576 18.3534 8.08654L19.3718 8.75065C19.4105 8.77577 19.4438 8.80841 19.4696 8.84663C19.4955 8.88485 19.5134 8.92786 19.5223 8.97313C19.5312 9.0184 19.5309 9.065 19.5215 9.11016C19.5121 9.15532 19.4937 9.19813 19.4674 9.23604L19.0584 9.83461C19.2922 10.0543 19.5064 10.294 19.6984 10.551L20.3549 10.2313C20.4393 10.1893 20.5369 10.1824 20.6264 10.2118C20.716 10.2413 20.7903 10.3049 20.8334 10.3887L21.3749 11.4754C21.3953 11.5172 21.4072 11.5626 21.4099 11.609C21.4127 11.6554 21.4061 11.7019 21.3907 11.7458C21.3752 11.7896 21.3512 11.83 21.3201 11.8645C21.2889 11.8989 21.2511 11.9269 21.2091 11.9466L20.5574 12.262C20.6479 12.5712 20.7105 12.8879 20.7443 13.2082L21.4671 13.2546C21.5137 13.2571 21.5592 13.2687 21.6012 13.2889C21.6432 13.3091 21.6808 13.3374 21.7117 13.3722C21.7427 13.4071 21.7664 13.4477 21.7816 13.4917C21.7967 13.5358 21.803 13.5824 21.8 13.6289L21.7119 14.842C21.704 14.9362 21.6593 15.0234 21.5874 15.0847C21.5155 15.1459 21.4223 15.1763 21.3281 15.1692L20.6112 15.1211C20.5326 15.4361 20.4259 15.7434 20.2925 16.0394L20.8834 16.431C20.9223 16.4564 20.9557 16.4893 20.9816 16.5277C21.0076 16.5662 21.0255 16.6095 21.0345 16.655C21.0435 16.7005 21.0432 16.7474 21.0338 16.7928C21.0243 16.8382 21.0059 16.8813 20.9795 16.9195L20.2861 17.9251C20.2319 18.0024 20.1496 18.0555 20.0568 18.073C19.9639 18.0905 19.868 18.0709 19.7894 18.0185L19.2031 17.6278C18.9739 17.8611 18.7248 18.0739 18.4586 18.2638L18.7664 18.8883C18.7868 18.9297 18.7988 18.9749 18.8015 19.021C18.8043 19.0672 18.7978 19.1134 18.7824 19.157C18.7671 19.2006 18.7432 19.2408 18.7121 19.275C18.6811 19.3093 18.6435 19.337 18.6016 19.3566L17.4969 19.8813C17.4121 19.9215 17.315 19.9269 17.2263 19.8963C17.1376 19.8656 17.0645 19.8014 17.0227 19.7174L16.719 19.0987C16.4035 19.1866 16.0808 19.2465 15.7548 19.2778L15.7051 19.9629C15.7015 20.0088 15.6889 20.0536 15.668 20.0946C15.6471 20.1356 15.6183 20.1721 15.5832 20.202C15.5482 20.2319 15.5076 20.2546 15.4637 20.2687C15.4199 20.2829 15.3737 20.2882 15.3278 20.2845L14.115 20.1928C14.0224 20.1861 13.9362 20.1431 13.8753 20.0731C13.8144 20.003 13.7837 19.9117 13.79 19.8191L13.8396 19.136C13.5242 19.0576 13.2164 18.9515 12.9198 18.819L12.5345 19.3828C12.4821 19.459 12.4017 19.5114 12.3107 19.5285C12.2198 19.5456 12.1258 19.526 12.0493 19.474L11.0527 18.7993C11.015 18.7738 10.9826 18.7411 10.9574 18.7031C10.9323 18.6651 10.915 18.6225 10.9063 18.5778C10.8977 18.533 10.898 18.487 10.9072 18.4424C10.9164 18.3978 10.9344 18.3554 10.96 18.3177L11.3463 17.7505C11.1158 17.5273 10.9054 17.2843 10.7174 17.0243L10.0979 17.3241C10.0152 17.3642 9.92003 17.3699 9.83319 17.3399C9.74635 17.3099 9.67496 17.2466 9.63469 17.164L9.11337 16.0908C9.07345 16.0082 9.06793 15.9132 9.09802 15.8266C9.12811 15.74 9.19134 15.6688 9.27384 15.6288L9.89454 15.3265C9.8083 15.0201 9.74944 14.7067 9.71867 14.3899L9.02689 14.3434C8.98172 14.3405 8.93758 14.3286 8.89702 14.3085C8.85646 14.2884 8.82028 14.2604 8.79057 14.2263C8.76086 14.1921 8.73821 14.1524 8.72392 14.1095C8.70962 14.0665 8.70398 14.0212 8.7073 13.976L8.79364 12.7869C8.80046 12.6954 8.8431 12.6102 8.9123 12.5499C8.9815 12.4896 9.07169 12.459 9.16331 12.4648ZM15.442 10.3082C13.4873 10.1905 11.7978 11.6591 11.6577 13.588C11.5176 15.5169 12.9788 17.1925 14.932 17.3314C16.8969 17.4711 18.6134 16.0042 18.755 14.0542C18.8966 12.1042 17.4085 10.4267 15.442 10.3082Z" fill="#D8DEE8"/>
</g>
<path d="M8.12606 48.4659C7.74588 48.7752 7.72503 48.9942 7.73771 49.1008C7.75814 49.2727 7.88798 49.339 8.19924 49.6626C8.62025 50.1003 8.55627 50.1593 8.77051 50.3174C9.24333 50.6663 9.91025 50.641 9.95008 50.5217C9.97805 50.4379 9.67618 50.3706 9.33159 49.9742C9.11965 49.7329 8.96408 49.4474 8.8762 49.1385C8.83388 48.9828 8.81047 48.8225 8.80644 48.6611L8.12606 48.4659Z" fill="url(#paint2_linear_1293_146)"/>
<path d="M9.39916 47.5226L8.6528 48.833C8.47231 48.9136 8.29932 48.8737 8.13826 48.6411L8.42596 47.05L9.39916 47.5226Z" fill="url(#paint3_linear_1293_146)"/>
<path d="M10.2554 30.742C10.9908 31.9742 12.1848 34.3531 12.4353 37.5742C12.6825 40.7536 11.8882 43.1799 11.5551 44.0848C10.931 45.7805 9.84177 47.5623 9.20847 48.412C8.7789 48.234 8.52545 47.9534 8.09588 47.7754C8.15955 47.5418 8.35596 46.7703 8.47967 46.3107C8.57553 45.9547 8.75227 45.296 8.78859 45.1552C9.09278 43.9764 8.84675 43.0933 8.92677 41.6363C9.02012 39.9371 9.41 40.1333 9.34814 39.1136C9.25579 37.5909 8.39167 37.2382 7.39379 35.0369C6.71076 33.5302 5.99338 31.9477 6.64518 31.0791C7.46559 29.9858 9.97529 30.6634 10.2554 30.742Z" fill="url(#paint4_linear_1293_146)"/>
<path d="M5.02488 49.6718C4.7967 49.818 4.65984 50.1641 4.76471 50.3814C4.86781 50.5949 5.1286 50.5265 5.7632 50.7193C6.44294 50.9258 6.57797 51.1362 7.07854 51.1341C7.28078 51.1332 7.64732 51.0973 7.67751 50.9611C7.69872 50.8655 7.54276 50.7708 7.02915 50.4281C6.30004 49.9418 6.30754 49.928 6.14491 49.8536C5.73639 49.6666 5.32613 49.4789 5.02488 49.6718Z" fill="url(#paint5_linear_1293_146)"/>
<path d="M6.10757 48.6328L5.83298 49.9068C5.79422 49.964 5.39779 50.1014 5.11915 49.9092L5.21749 48.6357L6.10757 48.6328Z" fill="url(#paint6_linear_1293_146)"/>
<path style="mix-blend-mode:multiply" opacity="0.3" d="M6.6445 31.0792C7.46491 29.9859 9.9746 30.6635 10.2548 30.7421C10.6522 31.4096 11.0002 32.1053 11.2959 32.8236C10.4067 32.6517 10.0215 32.8116 9.84245 33.0229C9.14745 33.8433 11.3376 35.6424 10.8974 38.3847C10.7252 39.4573 10.2683 39.9412 10.3564 41.2501C10.422 42.2242 10.7262 42.7164 10.9378 43.429C11.0893 43.9453 11.1675 44.4804 11.1703 45.0185C10.5466 46.4016 9.72514 47.718 9.20778 48.4121C8.77821 48.2341 8.52476 47.9536 8.09519 47.7756C8.15886 47.5419 8.35527 46.7704 8.47898 46.3109C8.57484 45.9548 8.75158 45.2961 8.7879 45.1553C9.09209 43.9765 8.84606 43.0934 8.92609 41.6365C9.01944 39.9373 9.40931 40.1334 9.34745 39.1137C9.25509 37.5911 8.39098 37.2383 7.3931 35.037C6.71008 33.5303 5.9927 31.9478 6.6445 31.0792Z" fill="url(#paint7_linear_1293_146)"/>
<path d="M8.29896 31.4174C8.46762 37.3899 7.79777 43.3565 6.30897 49.1429C6.22481 49.1908 5.92959 49.345 5.5506 49.2745C5.3545 49.2372 5.17202 49.1479 5.02228 49.0159C5.1159 48.3287 5.14003 47.6339 5.0943 46.9418C4.99454 45.4408 4.64006 45.1361 4.4833 43.5829C4.34584 42.2209 4.4824 41.1074 4.54867 40.591C4.75268 39.0018 5.03651 38.9682 5.03907 38.0169C5.043 36.5519 4.37149 36.0295 3.99874 34.6349C3.75007 33.7046 3.61532 32.315 4.22684 30.4068C5.58421 30.7436 6.94158 31.0805 8.29896 31.4174Z" fill="url(#paint8_linear_1293_146)"/>
<path d="M9.71207 20.0774C10.4049 20.4606 11.027 20.9596 11.5514 21.5528C13.044 23.2508 13.9727 26.05 13.0199 26.9699C12.3717 27.5958 10.8289 27.4118 10.2953 26.6733C9.90277 26.1301 10.1819 25.4605 10.3137 24.5096C10.4555 23.4864 10.4455 22.0032 9.71207 20.0774Z" fill="url(#paint9_linear_1293_146)"/>
<path d="M3.97243 31.0932C4.49953 23.8327 6.24566 20.8555 6.08934 19.9739C6.30979 19.8143 7.18201 19.559 9.1607 19.8129C9.55556 19.9587 9.91866 20.1792 10.2302 20.4623C10.3173 20.5445 10.3998 20.6314 10.4771 20.7228C9.08852 20.9897 7.67574 21.7855 7.16988 22.908C6.29429 25.0542 7.9411 27.4444 7.19076 29.3381C6.79644 30.3333 6.16333 31.2162 5.40677 32.0422C4.538 31.8286 3.94205 31.5117 3.97243 31.0932Z" fill="url(#paint10_linear_1293_146)"/>
<path style="mix-blend-mode:multiply" opacity="0.3" d="M4.22684 30.407L5.41888 30.7029C5.21358 31.4189 5.01762 32.4932 5.26133 33.7112C5.59784 35.3932 6.45467 35.7598 6.58544 37.2771C6.70308 38.6421 6.05939 38.9226 5.75667 40.7448C5.44647 42.6122 5.92798 43.4883 6.03316 45.049C6.10514 46.117 5.99848 47.515 5.35401 49.218C5.23263 49.1703 5.1204 49.102 5.02227 49.0161C5.11589 48.3289 5.14002 47.6341 5.09429 46.942C4.99453 45.441 4.64004 45.1363 4.48329 43.5831C4.34583 42.2211 4.48239 41.1076 4.54867 40.5912C4.75267 39.002 5.0365 38.9684 5.03906 38.0171C5.04299 36.5521 4.37148 36.0297 3.99872 34.6351C3.75007 33.7049 3.61531 32.3152 4.22684 30.407Z" fill="url(#paint11_linear_1293_146)"/>
<path d="M10.2302 20.4618C10.2302 20.4618 10.758 20.939 11.0671 21.6415C11.5328 22.6998 11.0379 23.6113 10.8942 25.3426C10.7366 27.2418 10.9786 30.404 11.5164 31.5354C11.5379 31.5814 11.5461 31.6325 11.5399 31.6829C11.399 32.7785 3.86627 32.5548 3.97243 31.0927C4.49953 23.8321 6.24566 20.8549 6.08934 19.9734C6.30979 19.8138 7.18201 19.5584 9.1607 19.8123C9.55556 19.9582 9.91866 20.1787 10.2302 20.4618Z" fill="url(#paint12_linear_1293_146)"/>
<path d="M7.98279 17.9939C7.98279 17.9939 7.5014 19.5221 7.34452 19.7062C7.18763 19.8904 7.97883 20.368 8.58346 20.1496C9.13869 19.949 8.57961 19.1036 8.57961 19.1036L7.98279 17.9939Z" fill="url(#paint13_linear_1293_146)"/>
<path d="M9.49174 17.6316C9.68138 17.3302 9.65305 16.8342 9.38089 16.5419C9.14671 16.2905 8.81047 16.28 8.60918 16.2737C8.02586 16.2554 7.31713 16.5578 7.10818 17.1108C6.9844 17.4385 7.36431 18.066 7.42506 18.1794C7.49385 18.3076 7.60216 18.3445 7.70724 18.4371C7.85292 18.5654 8.08125 18.7697 8.45465 19.1121C8.47572 18.9752 8.50866 18.8403 8.55307 18.7091C8.57304 18.6505 8.65387 18.4212 8.78875 18.2254C9.05908 17.833 9.31199 17.9173 9.49174 17.6316Z" fill="url(#paint14_linear_1293_146)"/>
<path d="M7.93931 18.8416C7.93931 18.8416 8.37137 19.4328 9.12341 19.3202C9.79674 19.2193 9.76855 17.6928 9.30908 17.4068C9.1558 17.3115 8.86313 17.2911 8.6337 17.3766C8.4982 17.4271 8.45605 17.4887 8.23305 17.567C8.02735 17.6392 7.966 17.6208 7.90702 17.6796C7.83322 17.7531 7.78881 17.9218 7.95861 18.3545C7.81847 18.2345 7.65922 18.1973 7.55372 18.2584C7.51783 18.2819 7.48916 18.315 7.47092 18.3538C7.39082 18.5352 7.56776 18.7434 7.93931 18.8416Z" fill="url(#paint15_linear_1293_146)"/>
<path d="M9.40283 18.5851C9.40283 18.5851 9.26299 18.6737 9.00914 18.6807C8.99677 18.681 8.98355 18.6858 8.98253 18.6923C8.9787 18.7167 9.14983 18.8106 9.29566 18.7561C9.39921 18.7174 9.47332 18.61 9.45691 18.5857C9.44995 18.5754 9.42605 18.5789 9.40283 18.5851Z" fill="url(#paint16_linear_1293_146)"/>
<path style="mix-blend-mode:multiply" opacity="0.3" d="M6.07569 24.6773C6.89846 24.9632 7.9916 25.7704 8.06811 26.8091C8.18563 28.4043 5.81225 29.2875 6.13247 30.4045C6.21979 30.7091 6.49361 30.9831 8.27464 31.6194C8.99532 31.8769 9.66474 32.0866 10.2724 32.2599C8.09667 32.5878 3.89351 32.1875 3.97298 31.0928C4.17473 28.3137 4.55513 26.1641 4.93903 24.5175C5.32461 24.4985 5.7103 24.5527 6.07569 24.6773Z" fill="url(#paint17_linear_1293_146)"/>
<path d="M8.67372 27.9323C7.34133 29.2938 5.43423 29.7275 3.96472 29.0533C1.92397 28.1171 1.60018 25.4447 2.06985 23.77C2.854 20.9742 6.30554 19.3341 7.39698 20.0746C8.18629 20.6102 8.18554 22.6922 7.25035 23.7374C6.40971 24.6769 5.11309 24.4445 4.76376 25.4C4.50208 26.1156 5.01451 26.8342 5.05853 26.894C5.62843 27.6689 6.86579 27.9284 8.03347 27.3913C8.24689 27.5716 8.46031 27.752 8.67372 27.9323Z" fill="url(#paint18_linear_1293_146)"/>
<path d="M11.3125 25.5853C11.2025 25.236 10.8483 25.0579 10.5699 25.0201C10.2974 24.983 9.84888 25.0464 9.67136 25.403C9.50533 25.7365 9.63825 26.202 10.0232 26.4533C10.0769 26.319 10.1732 26.1422 10.3436 26.0881C10.6571 25.9886 10.9304 26.3967 11.162 26.2891C11.3465 26.2033 11.3932 25.8417 11.3125 25.5853Z" fill="url(#paint19_linear_1293_146)"/>
<path d="M10.0364 27.7091L9.00823 27.8913C8.96224 27.8995 8.91494 27.8962 8.8705 27.8818C8.82606 27.8674 8.78584 27.8423 8.75336 27.8087C8.72088 27.7752 8.69715 27.7341 8.68423 27.6892C8.67132 27.6443 8.66962 27.597 8.6793 27.5513L9.0479 25.8098C9.06087 25.7485 9.09365 25.6932 9.14118 25.6524C9.18871 25.6116 9.24834 25.5875 9.31089 25.584L10.5423 25.5141C10.5892 25.5114 10.636 25.5204 10.6786 25.5401C10.7212 25.5599 10.7583 25.5899 10.7865 25.6274C10.8148 25.665 10.8333 25.7089 10.8405 25.7553C10.8477 25.8017 10.8433 25.8492 10.8278 25.8935L10.2558 27.5227C10.2391 27.5704 10.2099 27.6129 10.1714 27.6456C10.1328 27.6784 10.0862 27.7003 10.0364 27.7091Z" fill="white"/>
<path d="M8.23967 27.5671C8.32214 26.9608 8.57706 26.8014 8.66936 26.756C8.82413 26.68 8.90073 26.7384 9.44188 26.7281C9.92532 26.7188 10.0397 26.6689 10.1011 26.7514C10.2174 26.9076 9.98079 27.3201 9.71188 27.5623C9.3349 27.9018 8.86615 27.9324 8.6732 27.9334L8.23967 27.5671Z" fill="url(#paint20_linear_1293_146)"/>
<path d="M23.1587 3.17165L18.8519 47.9627C18.7878 48.6297 19.2489 49.2112 19.8781 49.255L41.5763 51.0015C42.8988 51.0437 43.6101 50.329 43.6796 49.6232L48.3495 2.2113C48.4197 1.49909 47.757 0.871082 46.4212 0.902621L24.4364 1.90103C23.7976 1.92718 23.2234 2.49898 23.1587 3.17165Z" fill="url(#paint21_linear_1293_146)"/>
<path d="M22.1727 3.11778L17.8479 48.1396C17.7835 48.81 18.2464 49.3946 18.8781 49.4388L41.373 51.0144C42.0753 51.0636 42.7087 50.5235 42.7785 49.8139L47.4692 2.15078C47.5396 1.43476 47.012 0.872919 46.2986 0.902198L23.4556 1.84047C22.8141 1.86682 22.2376 2.44161 22.1727 3.11778Z" fill="#2B2727"/>
<path d="M22.6538 5.59943L18.6426 47.328C18.5824 47.9544 19.0156 48.4996 19.6069 48.5397L40.7646 49.9746C41.4177 50.0189 42.0066 49.5147 42.0716 48.8539L46.4009 4.82959C46.4664 4.16331 45.9764 3.63715 45.3138 3.6604L23.8531 4.41317C23.2535 4.43419 22.7145 4.96802 22.6538 5.59943Z" fill="#D8DEE8"/>
<path d="M34.0223 2.80366C33.9989 3.04447 34.1694 3.23268 34.4035 3.22404C34.6378 3.21537 34.8469 3.01276 34.8703 2.77151C34.8938 2.53022 34.7227 2.342 34.4883 2.35112C34.2542 2.36024 34.0457 2.56284 34.0223 2.80366Z" fill="white"/>
<g style="mix-blend-mode:soft-light" opacity="0.3">
<path d="M36.1757 24.7662C38.3894 18.1548 34.4883 14.8404 36.6716 8.7164C37.8594 5.38438 40.2509 2.89735 42.8846 1.04243L46.2986 0.902199C47.012 0.872907 47.5396 1.43475 47.4692 2.15077L42.7785 49.8139C42.7087 50.5235 42.0753 51.0636 41.373 51.0144L21.9519 49.6541C21.9967 44.6789 23.2492 41.134 24.6467 38.6123C28.487 31.6831 33.8835 31.6121 36.1757 24.7662Z" fill="#F4F7FA"/>
</g>
<path d="M23.33 8.96982L13.3114 17.3241C21.9625 21.1806 20.9958 33.0573 29.6469 36.9138L39.6655 28.5595C31.0144 24.703 31.9811 12.8263 23.33 8.96982Z" fill="url(#paint22_linear_1293_146)"/>
<path d="M15.005 17.1767C22.3466 21.2823 22.1042 31.7119 29.4458 35.8175L37.9728 28.707C30.6312 24.6014 30.8735 14.1718 23.5319 10.0662L15.005 17.1767Z" fill="white"/>
<path d="M36.4499 27.4932C36.4124 27.5245 36.3794 27.5542 36.3454 27.5871C36.3425 27.59 36.3397 27.5927 36.3367 27.5956C35.9482 27.9718 35.7669 28.4466 35.8134 28.9001C35.8535 29.2964 36.0697 29.6747 36.4778 29.9529C36.5395 29.9944 36.6033 30.0327 36.6691 30.0674C36.9242 30.2036 37.2168 30.2938 37.5267 30.3425L39.6661 28.5585C38.789 28.1687 37.9642 27.6708 37.2106 27.0763C36.9504 27.1533 36.675 27.3055 36.4499 27.4932Z" fill="url(#paint23_linear_1293_146)"/>
<path d="M27.7243 34.7707C27.49 34.966 27.3341 35.1804 27.2039 35.4406C27.9543 36.0311 28.7753 36.526 29.6479 36.9138L31.8371 35.0883C31.6457 34.9073 31.4301 34.7537 31.1965 34.6322C31.129 34.5962 31.06 34.5622 30.99 34.5304C29.9459 34.0555 28.6676 34.0598 27.8171 34.6975C27.8138 34.6998 27.8106 34.7024 27.8071 34.705C27.7792 34.7257 27.7504 34.7489 27.7243 34.7707Z" fill="url(#paint24_linear_1293_146)"/>
<path d="M23.3308 8.96987L21.1913 10.7539C21.3827 10.9349 21.5983 11.0885 21.8319 11.21C21.8994 11.246 21.9684 11.28 22.0383 11.3118C23.0718 11.7817 24.3313 11.785 25.1819 11.1667C25.2218 11.1381 25.2542 11.1132 25.2917 11.0819C25.5166 10.8944 25.6984 10.6652 25.7862 10.452C25.0327 9.85756 24.2078 9.35964 23.3308 8.96987Z" fill="url(#paint25_linear_1293_146)"/>
<path d="M15.5012 15.4987L13.3121 17.3242C14.1847 17.712 15.0057 18.2069 15.7562 18.7974C16.0734 18.6845 16.3311 18.554 16.5656 18.3584C16.5916 18.3366 16.6195 18.3125 16.6443 18.2894C16.6473 18.2865 16.6505 18.2838 16.6532 18.2811C17.0319 17.9294 17.2257 17.486 17.2169 17.0525C17.2078 16.6172 16.9921 16.1941 16.5471 15.8908C16.486 15.8489 16.4226 15.8103 16.3574 15.7751C16.1023 15.6389 15.8112 15.5474 15.5012 15.4987Z" fill="url(#paint26_linear_1293_146)"/>
<path d="M24.7275 19.4799C23.1284 20.8133 22.6631 23.4088 23.5934 25.3562C24.5236 27.3035 26.6625 27.7274 28.2758 26.3821C29.8748 25.0487 30.3401 22.4532 29.4099 20.5059C28.4796 18.5585 26.3408 18.1346 24.7275 19.4799Z" fill="url(#paint27_linear_1293_146)"/>
<path d="M25.9103 21.8039C26.1927 21.8692 26.4852 22.06 26.8239 22.4519L27.535 21.8589C27.5257 21.8426 27.5163 21.8263 27.507 21.81C27.419 21.6583 27.3144 21.5169 27.1953 21.3882C27.1315 21.3199 27.063 21.2563 26.9903 21.1976C26.9103 21.1337 26.9099 20.9947 26.9874 20.916C27.0851 20.817 27.1828 20.7181 27.2805 20.6192C27.3419 20.5574 27.4305 20.5553 27.4881 20.6134C27.5849 20.7101 27.6802 20.8188 27.7676 20.9254C27.8881 21.0723 27.9989 21.227 28.0993 21.3884L28.3478 21.1811C28.4204 21.1206 28.5159 21.1297 28.5647 21.2104C28.5877 21.2508 28.5956 21.2981 28.5871 21.3439C28.5786 21.3896 28.5542 21.4309 28.5182 21.4604L28.2644 21.6721C28.4692 22.0913 28.5557 22.484 28.5179 22.8396C28.4796 23.1977 28.3197 23.4941 28.0384 23.7289C27.766 23.9561 27.4893 24.0364 27.2081 23.9698C26.9287 23.9036 26.6388 23.6911 26.3384 23.3322C26.0751 23.553 25.8118 23.7738 25.5485 23.9946C25.6499 24.1708 25.7679 24.3368 25.901 24.4904C25.9844 24.5862 26.0741 24.6764 26.1694 24.7604C26.2507 24.8322 26.2524 24.9782 26.1705 25.0595C26.0442 25.1851 25.9179 25.3107 25.7915 25.4363C25.7782 25.451 25.762 25.4627 25.7439 25.4706C25.7257 25.4786 25.7062 25.4826 25.6864 25.4825C25.6666 25.4824 25.647 25.4781 25.629 25.4699C25.611 25.4617 25.5949 25.4498 25.5818 25.435C25.4843 25.3292 25.3931 25.2176 25.3089 25.1009C25.1855 24.9288 25.0732 24.7491 24.9728 24.5627C24.96 24.5389 24.9471 24.515 24.9343 24.4911L24.6639 24.7166C24.5908 24.7776 24.4964 24.7691 24.4541 24.6825L24.4528 24.6799C24.4325 24.6376 24.4267 24.5898 24.4365 24.5439C24.4462 24.498 24.4709 24.4567 24.5067 24.4263L24.7808 24.1977C24.6493 23.886 24.576 23.5878 24.5641 23.3091C24.5579 23.1904 24.5633 23.0713 24.5802 22.9536C24.636 22.5759 24.8069 22.2721 25.0918 22.0345C25.3552 21.8148 25.6289 21.7393 25.9103 21.8039ZM26.1246 23.0772C26.0107 22.9614 25.8975 22.8803 25.7988 22.861C25.7004 22.8416 25.602 22.8702 25.5063 22.95C25.4061 23.0306 25.3398 23.1458 25.3203 23.2729C25.3008 23.3988 25.3257 23.5327 25.399 23.6822L26.1246 23.0772ZM27.3284 22.9035C27.4188 22.9251 27.5063 22.9006 27.5911 22.8301C27.6794 22.7576 27.7363 22.6538 27.7498 22.5404C27.7663 22.4217 27.7391 22.2787 27.6887 22.1521L27.0358 22.6966C27.143 22.818 27.2378 22.8817 27.3284 22.9035Z" fill="white"/>
<path style="mix-blend-mode:multiply" opacity="0.2" d="M13.3447 17.2975L13.3121 17.3247C21.9632 21.1812 20.9965 33.0579 29.6476 36.9144L39.4543 28.7367C38.9405 28.6829 38.4238 28.6608 37.9073 28.6705C37.2037 28.6848 36.5028 28.7622 35.813 28.9017C34.9705 29.0711 34.0492 29.3475 33.0287 29.7829C27.9871 31.9416 26.5304 30.1425 25.6455 27.0989C25.4026 26.292 25.1922 25.4037 24.9377 24.5007C24.8256 24.1037 24.7005 23.7035 24.5614 23.3062C24.2882 22.5283 23.9601 21.7613 23.5648 21.0491C22.2711 18.6137 20.0087 16.9701 17.2174 17.053C16.6941 17.0629 16.1732 17.1252 15.6623 17.2388C15.5205 17.2695 15.3772 17.2927 15.233 17.3081C14.6897 17.3686 14.0579 17.3477 13.3447 17.2975Z" fill="url(#paint28_linear_1293_146)"/>
<path d="M21.7728 19.0451C21.4735 19.1649 21.3192 19.4828 21.4301 19.7518L28.4254 36.7938C28.545 37.0836 28.9617 37.291 29.2705 37.1614L40.5606 32.4239C40.8629 32.297 40.987 31.858 40.8615 31.5745L33.8089 14.801C33.6929 14.5376 33.3584 14.4182 33.0654 14.5355L21.7728 19.0451Z" fill="url(#paint29_linear_1293_146)"/>
<path d="M21.5867 18.7082C21.2852 18.8287 21.1301 19.1492 21.2421 19.4205L28.3666 36.6796C28.487 36.9712 28.84 37.1034 29.1508 36.973L40.5116 32.2083C40.8158 32.0808 40.9611 31.7428 40.8349 31.4575L33.7062 14.4402C33.5893 14.1744 33.2524 14.0536 32.9573 14.1716L21.5867 18.7082Z" fill="url(#paint30_linear_1293_146)"/>
<g opacity="0.7">
<path d="M30.1638 30.5044L31.3702 33.3048C31.3977 33.3659 31.4468 33.4147 31.5079 33.442C31.5691 33.4693 31.6382 33.4731 31.702 33.4528L32.4074 33.2135C32.4375 33.2037 32.4652 33.1878 32.4887 33.1666C32.5122 33.1454 32.531 33.1195 32.5437 33.0905C32.5565 33.0616 32.5631 33.0302 32.5629 32.9986C32.5627 32.9669 32.5559 32.9357 32.5428 32.9069L31.3277 30.1079C31.3001 30.0477 31.2513 29.9997 31.1906 29.973C31.1299 29.9463 31.0616 29.9428 30.9985 29.9632L30.2992 30.2015C30.2694 30.211 30.2419 30.2268 30.2186 30.2477C30.1953 30.2686 30.1767 30.2941 30.1639 30.3227C30.1511 30.3513 30.1445 30.3822 30.1445 30.4135C30.1444 30.4448 30.151 30.4758 30.1638 30.5044Z" fill="#F4F7FA"/>
<path d="M28.5757 26.8182L29.7601 29.5674C29.7875 29.6275 29.836 29.6754 29.8965 29.702C29.9569 29.7286 30.025 29.732 30.0878 29.7116L30.7862 29.4735C30.816 29.464 30.8434 29.4483 30.8666 29.4275C30.8899 29.4067 30.9085 29.3812 30.9212 29.3527C30.934 29.3242 30.9406 29.2933 30.9405 29.2621C30.9405 29.2309 30.9339 29.2 30.9212 29.1715L29.7283 26.4238C29.7009 26.3645 29.6525 26.3174 29.5926 26.2913C29.5326 26.2653 29.4652 26.2623 29.4031 26.2827L28.7107 26.5198C28.6812 26.5291 28.6541 26.5446 28.631 26.5651C28.6079 26.5857 28.5894 26.6108 28.5767 26.639C28.564 26.6671 28.5573 26.6976 28.5572 26.7285C28.557 26.7594 28.5633 26.79 28.5757 26.8182Z" fill="#F4F7FA"/>
<path d="M27.0172 23.2006L28.1802 25.8999C28.2074 25.959 28.2555 26.0061 28.3152 26.032C28.3749 26.0579 28.4421 26.0609 28.5039 26.0404L29.1955 25.8035C29.2248 25.7943 29.2519 25.7789 29.2749 25.7584C29.298 25.738 29.3164 25.7129 29.3291 25.6848C29.3418 25.6567 29.3484 25.6263 29.3486 25.5955C29.3487 25.5647 29.3423 25.5342 29.3299 25.506L28.1587 22.8081C28.1314 22.7497 28.0835 22.7035 28.0243 22.6781C27.965 22.6528 27.8985 22.6501 27.8374 22.6706L27.1517 22.9065C27.1226 22.9156 27.0958 22.9308 27.0729 22.951C27.0501 22.9711 27.0317 22.9959 27.019 23.0236C27.0064 23.0513 26.9997 23.0814 26.9994 23.1119C26.999 23.1424 27.0051 23.1726 27.0172 23.2006Z" fill="#F4F7FA"/>
<path d="M25.4861 19.6473L26.6281 22.2982C26.6552 22.3564 26.7028 22.4025 26.7618 22.4278C26.8208 22.4531 26.8871 22.4557 26.9479 22.4351L27.6328 22.1994C27.6618 22.1903 27.6886 22.1753 27.7114 22.1551C27.7342 22.135 27.7525 22.1103 27.7651 22.0827C27.7778 22.055 27.7845 22.025 27.7847 21.9946C27.785 21.9642 27.7789 21.9341 27.7668 21.9062L26.6166 19.2568C26.566 19.1403 26.4232 19.08 26.2992 19.1228L25.62 19.3575C25.5913 19.3664 25.5647 19.3813 25.5421 19.4011C25.5195 19.421 25.5013 19.4453 25.4887 19.4726C25.476 19.4999 25.4693 19.5296 25.4688 19.5597C25.4684 19.5898 25.4743 19.6196 25.4861 19.6473Z" fill="#F4F7FA"/>
</g>
<path d="M33.5473 30.6843L34.1163 32.0124C34.2198 32.2541 34.5163 32.3636 34.775 32.2557L36.1836 31.668C36.4414 31.5605 36.5667 31.2754 36.4623 31.0347L35.8882 29.7121C35.7844 29.473 35.4894 29.3646 35.2325 29.4712L33.829 30.0534C33.5713 30.1603 33.4444 30.4441 33.5473 30.6843Z" fill="url(#paint31_linear_1293_146)"/>
<path d="M33.7226 30.7216L34.2116 31.8622C34.3074 32.0856 34.5802 32.1864 34.8194 32.0866L36.0291 31.5821C36.2677 31.4826 36.3831 31.2203 36.2865 30.9977L35.7936 29.8613C35.6976 29.6398 35.4261 29.5401 35.1882 29.6388L33.9824 30.1392C33.7439 30.2381 33.6273 30.4993 33.7226 30.7216ZM36.2265 31.0227C36.3097 31.2144 36.2102 31.4402 36.0048 31.5259L34.7952 32.0303C34.5892 32.1162 34.3544 32.0295 34.2718 31.8371L33.7827 30.6966C33.7006 30.5052 33.8011 30.2803 34.0064 30.195L35.2124 29.6945C35.4172 29.6095 35.651 29.6954 35.7337 29.8862L36.2265 31.0227Z" fill="url(#paint32_linear_1293_146)"/>
<path d="M35.0207 29.7414L35.8368 31.6293L35.8969 31.6042L35.0806 29.7165L35.0207 29.7414Z" fill="url(#paint33_linear_1293_146)"/>
<path d="M34.567 29.9289L35.3817 31.8183L35.4418 31.7933L34.627 29.904L34.567 29.9289Z" fill="url(#paint34_linear_1293_146)"/>
<path d="M34.1134 30.1174L34.9267 32.0083L34.9869 31.9832L34.1735 30.0925L34.1134 30.1174Z" fill="url(#paint35_linear_1293_146)"/>
<path d="M34.1011 30.924L34.328 31.4527C34.3857 31.587 34.5508 31.648 34.6947 31.588L35.7505 31.1482C35.8942 31.0883 35.9641 30.9297 35.9061 30.7957L35.6778 30.2685C35.6199 30.1349 35.4553 30.0743 35.3119 30.1339L34.2578 30.5719C34.1141 30.6316 34.0435 30.79 34.1011 30.924Z" fill="#FEC045"/>
<path d="M34.0708 30.9361L34.2978 31.4648C34.3623 31.615 34.5457 31.6827 34.7066 31.6156L35.7625 31.1758C35.9231 31.1089 36.0008 30.9326 35.936 30.7828L35.7076 30.2556C35.6429 30.1062 35.4599 30.039 35.2996 30.1055L34.2456 30.5434C34.085 30.6102 34.0065 30.7863 34.0708 30.9361ZM35.876 30.8078C35.9274 30.9267 35.8657 31.0666 35.7382 31.1197L34.6825 31.5595C34.5548 31.6127 34.4092 31.5589 34.358 31.4397L34.131 30.9111C34.0799 30.7922 34.1422 30.6524 34.2697 30.5994L35.3238 30.1614C35.451 30.1085 35.5963 30.162 35.6476 30.2805L35.876 30.8078Z" fill="url(#paint36_linear_1293_146)"/>
<path style="mix-blend-mode:multiply" opacity="0.15" d="M28.9057 29.7688C29.3228 31.2671 29.6908 32.1792 30.4758 33.0525C31.5539 34.2517 32.8941 34.7956 33.7315 35.0514L29.1511 36.9724C28.8403 37.1027 28.4873 36.9706 28.3669 36.6789L21.2424 19.4199C21.1303 19.1485 21.2855 18.828 21.587 18.7075L23.4074 17.9796C26.1931 19.865 27.2484 21.794 27.6901 23.2412C28.2238 24.9897 27.9152 26.2097 28.9057 29.7688Z" fill="url(#paint37_linear_1293_146)"/>
<g style="mix-blend-mode:multiply" opacity="0.42">
<path d="M27.6233 30.5599L29.2319 34.4227C29.2485 34.4588 29.2788 34.4868 29.316 34.5007C29.3533 34.5146 29.3945 34.5131 29.4307 34.4968L30.0787 34.2264C30.1157 34.2122 30.1457 34.1839 30.162 34.1478C30.1783 34.1116 30.1796 34.0704 30.1657 34.0333L28.5511 30.1768C28.5209 30.1045 28.4323 30.0718 28.3542 30.104L27.7106 30.3697C27.6324 30.402 27.5931 30.4876 27.6233 30.5599Z" fill="url(#paint38_linear_1293_146)"/>
<path d="M24.5144 23.149L26.6549 28.2875C26.6854 28.3607 26.7748 28.3941 26.8535 28.3618L27.5016 28.0957C27.5199 28.0888 27.5367 28.0785 27.551 28.0651C27.5653 28.0518 27.5769 28.0358 27.585 28.018C27.5931 28.0002 27.5976 27.981 27.5982 27.9614C27.5989 27.9419 27.5957 27.9224 27.5889 27.9041L25.4407 22.7739C25.4107 22.7023 25.3224 22.6695 25.2445 22.701L24.6019 22.9612C24.5239 22.9928 24.4845 23.0773 24.5144 23.149Z" fill="url(#paint39_linear_1293_146)"/>
</g>
<path style="mix-blend-mode:multiply" opacity="0.26" d="M31.0875 16.9225C30.306 17.2364 29.9486 18.1426 30.2873 18.9392C30.6228 19.7282 31.5152 20.1102 32.2824 19.7997C33.0486 19.4895 33.4106 18.6016 33.0893 17.8093C32.765 17.0093 31.8679 16.609 31.0875 16.9225Z" fill="url(#paint40_linear_1293_146)"/>
<g opacity="0.53">
<path d="M34.0478 28.9672C34.0236 29.0279 34.0243 29.0956 34.0496 29.1558C34.075 29.2159 34.123 29.2637 34.1833 29.2888C34.2129 29.3015 34.2449 29.3082 34.2772 29.3084C34.3095 29.3087 34.3415 29.3024 34.3713 29.2901C34.4012 29.2777 34.4282 29.2596 34.451 29.2366C34.4737 29.2137 34.4916 29.1864 34.5036 29.1564C34.5273 29.0956 34.526 29.0279 34.5002 28.9679C34.4744 28.908 34.426 28.8606 34.3655 28.836C34.3361 28.8237 34.3045 28.8173 34.2725 28.8172C34.2406 28.8171 34.2089 28.8234 34.1794 28.8356C34.1498 28.8477 34.123 28.8657 34.1004 28.8883C34.0778 28.9108 34.06 28.9377 34.0478 28.9672Z" fill="#F4F7FA"/>
<path d="M32.8583 28.6238C32.8627 28.6349 32.8692 28.645 32.8776 28.6535C32.8859 28.662 32.8958 28.6687 32.9068 28.6733C32.9294 28.6825 32.9547 28.6824 32.9772 28.6731C32.9997 28.6639 33.0177 28.6461 33.0272 28.6237C33.324 27.9331 34.1226 27.6043 34.83 27.8806C34.8525 27.8898 34.8777 27.8898 34.9002 27.8805C34.9226 27.8712 34.9405 27.8535 34.95 27.8311C34.9542 27.82 34.9562 27.8081 34.9558 27.7962C34.9554 27.7843 34.9527 27.7725 34.9477 27.7617C34.9427 27.7508 34.9357 27.7411 34.9269 27.733C34.9181 27.7249 34.9078 27.7187 34.8966 27.7146C34.0978 27.4053 33.1969 27.7759 32.8597 28.5539C32.8549 28.5649 32.8523 28.5767 32.852 28.5887C32.8518 28.6007 32.854 28.6127 32.8583 28.6238Z" fill="#F4F7FA"/>
<path d="M33.1946 28.7645C33.1991 28.7757 33.2057 28.7858 33.2142 28.7944C33.2227 28.803 33.2327 28.8098 33.2439 28.8144C33.2666 28.8238 33.292 28.8238 33.3147 28.8144C33.3374 28.8051 33.3555 28.7871 33.365 28.7645C33.5814 28.2519 34.1726 28.0083 34.6952 28.2159C34.7178 28.2252 34.7432 28.2253 34.7659 28.2159C34.7885 28.2066 34.8065 28.1887 34.816 28.1661C34.8203 28.1548 34.8223 28.1428 34.822 28.1307C34.8216 28.1187 34.8189 28.1068 34.8139 28.0958C34.809 28.0848 34.8019 28.0749 34.7931 28.0666C34.7843 28.0584 34.7739 28.052 34.7626 28.0477C34.1473 27.8053 33.4519 28.0917 33.1954 28.6939C33.1906 28.705 33.1881 28.717 33.1879 28.7291C33.1878 28.7412 33.1901 28.7532 33.1946 28.7645Z" fill="#F4F7FA"/>
<path d="M33.5356 28.9074C33.5426 28.9244 33.5545 28.939 33.5698 28.9493C33.5851 28.9596 33.6031 28.9651 33.6215 28.9651C33.6399 28.9651 33.6579 28.9597 33.6732 28.9494C33.6886 28.9392 33.7005 28.9247 33.7075 28.9076C33.7744 28.7485 33.9015 28.6223 34.061 28.5565C34.2205 28.4906 34.3996 28.4905 34.5593 28.5561C34.5705 28.5609 34.5826 28.5634 34.5948 28.5635C34.6071 28.5636 34.6192 28.5612 34.6305 28.5565C34.6418 28.5518 34.652 28.5449 34.6606 28.5362C34.6692 28.5275 34.676 28.5172 34.6806 28.5059C34.6851 28.4945 34.6874 28.4824 34.6871 28.4701C34.6869 28.4579 34.6843 28.4459 34.6794 28.4347C34.6744 28.4235 34.6673 28.4134 34.6584 28.405C34.6495 28.3966 34.6391 28.39 34.6276 28.3857C34.4221 28.3022 34.1919 28.3028 33.9868 28.3874C33.8857 28.4287 33.7939 28.4896 33.7165 28.5667C33.6391 28.6437 33.5777 28.7353 33.5359 28.8361C33.5312 28.8474 33.5287 28.8595 33.5286 28.8717C33.5286 28.884 33.531 28.8961 33.5356 28.9074Z" fill="#F4F7FA"/>
</g>
<path d="M30.5714 27.3292C30.5814 30.4164 33.0033 32.8371 36.0884 32.7324C39.299 32.6233 41.9905 29.8414 41.9798 26.5229C41.969 23.2043 39.2606 20.804 36.0508 21.1488C32.9664 21.4801 30.5614 24.242 30.5714 27.3292Z" fill="url(#paint41_linear_1293_146)"/>
<path d="M29.7363 27.0665C29.7463 30.1537 32.1682 32.5744 35.2533 32.4697C38.464 32.3606 41.1555 29.5787 41.1447 26.2602C41.1339 22.9416 38.4256 20.5413 35.2157 20.8861C32.1314 21.2174 29.7263 23.9793 29.7363 27.0665Z" fill="url(#paint42_linear_1293_146)"/>
<path d="M29.9789 27.0489C29.9885 30.0001 32.3058 32.3103 35.2529 32.2053C38.3144 32.0962 40.8766 29.4414 40.8663 26.2794C40.8561 23.1174 38.2778 20.8258 35.217 21.1495C32.2705 21.461 29.9693 24.0976 29.9789 27.0489Z" fill="url(#paint43_linear_1293_146)"/>
<path d="M30.1536 27.0366C30.1629 29.8901 32.4049 32.1211 35.253 32.0162C38.2078 31.9074 40.6777 29.3436 40.6678 26.2935C40.6578 23.2434 38.1725 21.0298 35.2183 21.3386C32.3708 21.6363 30.1444 24.1831 30.1536 27.0366Z" fill="url(#paint44_linear_1293_146)"/>
<path d="M35.2501 22.3088C35.1752 22.3179 35.1062 22.3539 35.0559 22.4102C35.0056 22.4664 34.9775 22.539 34.9769 22.6145L34.9786 23.1399C34.6723 23.1753 34.3684 23.229 34.0685 23.3008C33.8446 23.3542 33.6222 23.4176 33.4013 23.491C33.3363 23.5129 33.2805 23.5559 33.2428 23.6131C33.205 23.6704 33.1875 23.7386 33.1931 23.807L33.2597 24.4656C33.2628 24.5056 33.2756 24.5443 33.297 24.5783C33.3184 24.6123 33.3478 24.6406 33.3826 24.6607C33.4174 24.6808 33.4566 24.692 33.4967 24.6935C33.5369 24.6951 33.5768 24.6867 33.613 24.6693C33.7585 24.6039 33.9079 24.5477 34.0604 24.501C34.3355 24.4177 34.6186 24.3639 34.905 24.3403L34.9824 24.3337L34.9873 25.8383C34.1973 26.0621 33.6176 26.3616 33.2435 26.7372C32.8712 27.1109 32.6862 27.5763 32.6885 28.1332C32.6905 28.736 32.8983 29.2185 33.312 29.5806C33.7285 29.9452 34.3126 30.1488 35.0645 30.1913L35.0664 30.7712C35.0659 30.8071 35.0727 30.8427 35.0865 30.8759C35.1003 30.909 35.1207 30.9391 35.1465 30.9641C35.1723 30.9891 35.2029 31.0085 35.2364 31.0213C35.27 31.034 35.3058 31.0398 35.3417 31.0382L35.3466 31.038C35.4209 31.0337 35.4908 31.001 35.5419 30.9468C35.5929 30.8926 35.6213 30.8208 35.6211 30.7463L35.6192 30.1743L35.7414 30.1684C36.0813 30.1528 36.4199 30.1156 36.7552 30.057C36.9914 30.0153 37.2251 29.9607 37.4554 29.8936C37.5224 29.8746 37.5807 29.8331 37.6206 29.7761C37.6604 29.719 37.6794 29.65 37.6742 29.5806L37.5956 28.734C37.5786 28.5509 37.3943 28.445 37.2205 28.5142C37.0194 28.5944 36.8139 28.6626 36.6048 28.7186C36.2824 28.8048 35.9527 28.861 35.6199 28.8864L35.6096 27.2127C36.368 27.0224 36.934 26.7424 37.3075 26.3727C37.6814 26.0013 37.8676 25.5274 37.8662 24.9509C37.8642 24.3548 37.6592 23.8957 37.251 23.5737C36.8454 23.2537 36.2698 23.0957 35.5279 23.0985L35.5262 22.5614C35.527 22.526 35.5203 22.4908 35.5064 22.4581C35.4925 22.4255 35.4718 22.3962 35.4457 22.3723C35.4195 22.3483 35.3885 22.3303 35.3548 22.3193C35.3211 22.3084 35.2854 22.3048 35.2501 22.3088ZM35.5319 24.3163C35.7665 24.3327 35.9495 24.3965 36.0809 24.5079C36.2124 24.6195 36.2785 24.7699 36.2792 24.9589C36.2798 25.138 36.2196 25.2878 36.0986 25.4084C35.9779 25.5287 35.7904 25.6251 35.5364 25.6975L35.5319 24.3163ZM35.0553 27.3486L35.0603 28.8835C34.8053 28.8848 34.6094 28.8246 34.4726 28.7029C34.336 28.5815 34.2673 28.4095 34.2666 28.1869C34.266 27.9839 34.3287 27.8154 34.4549 27.6811C34.5813 27.5467 34.7814 27.4358 35.0553 27.3486Z" fill="url(#paint45_linear_1293_146)"/>
<path style="mix-blend-mode:multiply" opacity="0.3" d="M36.1588 27.7154C35.9816 26.0197 34.4203 25.3067 34.6187 23.7458C34.741 22.7837 35.4672 21.9709 36.2782 21.3355C38.7453 21.5861 40.659 23.622 40.6677 26.293C40.6776 29.3431 38.2077 31.9069 35.2529 32.0157C34.9724 32.0259 34.6915 32.0132 34.4131 31.9774C35.583 30.8058 36.3111 29.1722 36.1588 27.7154Z" fill="url(#paint46_linear_1293_146)"/>
<path d="M33.4738 15.0132C33.4805 17.0922 35.1115 18.7224 37.1891 18.6519C39.3512 18.5784 41.1638 16.705 41.1565 14.4702C41.1493 12.2354 39.3254 10.619 37.1638 10.8512C35.0867 11.0743 33.467 12.9342 33.4738 15.0132Z" fill="url(#paint47_linear_1293_146)"/>
<path d="M32.9123 14.8355C32.919 16.9145 34.55 18.5447 36.6276 18.4741C38.7897 18.4007 40.6023 16.5273 40.595 14.2925C40.5878 12.0577 38.7639 10.4413 36.6022 10.6734C34.5252 10.8965 32.9055 12.7565 32.9123 14.8355Z" fill="url(#paint48_linear_1293_146)"/>
<path d="M33.0751 14.8248C33.0815 16.8122 34.642 18.368 36.6267 18.2973C38.6885 18.2238 40.4139 16.4359 40.407 14.3065C40.4001 12.1772 38.6638 10.634 36.6026 10.8519C34.6183 11.0617 33.0686 12.8373 33.0751 14.8248Z" fill="url(#paint49_linear_1293_146)"/>
<path d="M33.1914 14.816C33.1976 16.7379 34.7076 18.2405 36.6259 18.1698C38.616 18.0966 40.2795 16.3698 40.2728 14.3155C40.2661 12.2612 38.5922 10.7703 36.6025 10.9783C34.6847 11.1788 33.1852 12.8941 33.1914 14.816Z" fill="url(#paint50_linear_1293_146)"/>
<path d="M36.6249 11.6327C36.5744 11.6388 36.5279 11.6631 36.494 11.701C36.4602 11.7388 36.4412 11.7878 36.4408 11.8386L36.4419 12.1924C36.2357 12.2163 36.031 12.2525 35.829 12.3008C35.6782 12.3368 35.5284 12.3795 35.3796 12.4289C35.3359 12.4437 35.2983 12.4726 35.2729 12.5112C35.2474 12.5497 35.2357 12.5957 35.2394 12.6417L35.2843 13.0853C35.2864 13.1123 35.295 13.1384 35.3094 13.1613C35.3238 13.1842 35.3436 13.2032 35.367 13.2167C35.3905 13.2302 35.4169 13.2378 35.4439 13.2389C35.4709 13.2399 35.4978 13.2343 35.5222 13.2226C35.6202 13.1785 35.7208 13.1406 35.8236 13.1092C36.0088 13.0531 36.1995 13.0168 36.3924 13.001L36.4446 12.9965L36.4479 14.0099C35.9158 14.1606 35.5253 14.3623 35.2734 14.6153C35.0227 14.867 34.898 15.1804 34.8996 15.5555C34.9009 15.9615 35.0409 16.2864 35.3195 16.5304C35.6 16.776 35.9934 16.913 36.4998 16.9417L36.5011 17.3322C36.5008 17.3564 36.5054 17.3804 36.5147 17.4027C36.5239 17.4251 36.5377 17.4453 36.555 17.4621C36.5724 17.479 36.593 17.4921 36.6156 17.5007C36.6382 17.5093 36.6624 17.5131 36.6865 17.5121L36.6898 17.5119C36.7399 17.509 36.787 17.487 36.8213 17.4505C36.8557 17.414 36.8748 17.3657 36.8747 17.3155L36.8735 16.9302L36.9557 16.9262C37.1847 16.9157 37.4127 16.8907 37.6385 16.8512C37.7976 16.8231 37.9551 16.7864 38.1102 16.7411C38.1552 16.7283 38.1945 16.7004 38.2214 16.662C38.2482 16.6236 38.261 16.5771 38.2575 16.5303L38.2046 15.9601C38.1931 15.8369 38.069 15.7655 37.9519 15.8121C37.8165 15.8661 37.678 15.9121 37.5372 15.9497C37.3201 16.0078 37.098 16.0457 36.8739 16.0628L36.867 14.9355C37.3778 14.8074 37.759 14.6188 38.0105 14.3698C38.2623 14.1196 38.3878 13.8004 38.3868 13.4122C38.3855 13.0107 38.2474 12.7015 37.9725 12.4846C37.6993 12.2691 37.3116 12.1627 36.812 12.1646L36.8108 11.8028C36.8114 11.779 36.8068 11.7552 36.7975 11.7333C36.7881 11.7113 36.7742 11.6916 36.7566 11.6754C36.7389 11.6593 36.7181 11.6472 36.6953 11.6398C36.6726 11.6324 36.6486 11.63 36.6249 11.6327ZM36.8146 12.9848C36.9726 12.9958 37.0959 13.0388 37.1844 13.1138C37.273 13.189 37.3175 13.2903 37.3179 13.4176C37.3196 13.4737 37.3096 13.5295 37.2887 13.5816C37.2677 13.6337 37.2363 13.6809 37.1963 13.7203C37.115 13.8014 36.9888 13.8663 36.8176 13.915L36.8146 12.9848ZM36.4936 15.0271L36.497 16.0608C36.3252 16.0617 36.1933 16.0212 36.1012 15.9392C36.0091 15.8574 35.9629 15.7416 35.9624 15.5917C35.962 15.455 36.0043 15.3414 36.0892 15.251C36.1744 15.1605 36.3091 15.0858 36.4936 15.0271Z" fill="url(#paint51_linear_1293_146)"/>
<path style="mix-blend-mode:multiply" opacity="0.3" d="M37.2369 15.2733C37.1176 14.1312 36.0661 13.651 36.1997 12.5997C36.282 11.9518 36.7711 11.4043 37.3174 10.9764C38.979 11.1452 40.2679 12.5164 40.2737 14.3153C40.2804 16.3696 38.6169 18.0963 36.6268 18.1696C36.4379 18.1765 36.2487 18.1679 36.0612 18.1439C36.8491 17.3547 37.3395 16.2545 37.2369 15.2733Z" fill="url(#paint52_linear_1293_146)"/>
<path d="M21.5392 30.6224L20.3469 45.0964C20.3161 45.4698 20.4305 45.82 20.6693 46.0703C20.8776 46.2939 21.1619 46.4318 21.4666 46.4569L39.7275 47.9351C40.5012 47.9977 41.162 47.4454 41.2145 46.7081L42.3116 31.3098C42.3633 30.585 41.7865 29.9563 41.0174 29.9338L22.8728 29.4026C22.1843 29.3825 21.5954 29.9408 21.5392 30.6224Z" fill="url(#paint53_linear_1293_146)"/>
<path d="M20.6493 46.0715C20.8606 46.2953 21.1473 46.4329 21.454 46.4578L39.7215 47.9361C40.4951 47.9987 41.162 47.4466 41.2146 46.7092L42.3117 31.3109C42.3633 30.5862 41.7866 29.9574 41.0174 29.9349L40.8062 29.9287C40.7309 30.3263 40.6296 30.7728 40.5328 31.2012C40.5193 31.2607 40.5056 31.3251 40.4924 31.3821C40.3801 31.8766 40.2838 32.2833 40.2666 32.3357C39.7029 34.0422 38.9044 36.0035 37.2072 36.962C34.6137 38.4277 31.3231 38.1766 28.5933 38.9834C26.7956 39.5148 24.9507 40.231 23.5229 41.4244C22.4798 42.2963 21.6005 43.3702 21.0883 44.625C20.9003 45.0935 20.7534 45.5775 20.6493 46.0715Z" fill="url(#paint54_linear_1293_146)"/>
<g opacity="0.7">
<path d="M22.9244 45.8227L22.9252 45.8227L23.5542 45.8595C23.5893 45.8609 23.6235 45.8486 23.6497 45.8252C23.6758 45.8019 23.6919 45.7693 23.6945 45.7343C23.7003 45.663 23.6474 45.61 23.5759 45.6044L22.9481 45.5649L22.9474 45.5649C22.8399 45.5653 22.7351 45.5232 22.6345 45.4903C22.6188 45.4844 22.602 45.4818 22.5853 45.4824C22.5685 45.4831 22.552 45.4871 22.5368 45.4942C22.5216 45.5013 22.508 45.5114 22.4967 45.5238C22.4855 45.5363 22.4768 45.5508 22.4713 45.5667C22.4489 45.6344 22.4848 45.7167 22.5524 45.7389C22.6725 45.7782 22.7963 45.8231 22.9244 45.8227ZM24.5393 45.9244L25.5294 46.0022C25.5465 46.0037 25.5638 46.0018 25.5802 45.9966C25.5966 45.9914 25.6118 45.983 25.625 45.9719C25.6381 45.9608 25.649 45.9472 25.6568 45.9319C25.6647 45.9166 25.6694 45.8999 25.6708 45.8827C25.6722 45.8655 25.6701 45.8483 25.6648 45.8319C25.6594 45.8156 25.6509 45.8004 25.6397 45.7874C25.6285 45.7743 25.6148 45.7636 25.5994 45.7559C25.584 45.7482 25.5672 45.7436 25.5501 45.7424L24.56 45.6654C24.543 45.6639 24.5258 45.6659 24.5095 45.6711C24.4932 45.6763 24.4781 45.6847 24.4651 45.6957C24.452 45.7068 24.4413 45.7203 24.4335 45.7355C24.4257 45.7508 24.4209 45.7674 24.4196 45.7844C24.4182 45.8015 24.4202 45.8187 24.4255 45.8349C24.4308 45.8512 24.4392 45.8663 24.4503 45.8793C24.4615 45.8923 24.4751 45.9029 24.4903 45.9107C24.5056 45.9184 24.5222 45.9231 24.5393 45.9244ZM26.5254 46.0804L27.5273 46.1592C27.5446 46.1608 27.5621 46.159 27.5787 46.1538C27.5953 46.1486 27.6107 46.1402 27.624 46.129C27.6373 46.1178 27.6482 46.1041 27.6562 46.0886C27.6641 46.0731 27.6689 46.0562 27.6703 46.0389C27.6716 46.0216 27.6695 46.0042 27.6641 45.9876C27.6586 45.9711 27.65 45.9559 27.6386 45.9427C27.6272 45.9296 27.6133 45.9189 27.5977 45.9112C27.5821 45.9034 27.5652 45.8989 27.5478 45.8978L26.546 45.8199C26.5288 45.8183 26.5114 45.8202 26.4949 45.8254C26.4784 45.8306 26.4631 45.839 26.4499 45.8502C26.4367 45.8613 26.4259 45.875 26.418 45.8903C26.4101 45.9057 26.4053 45.9225 26.4039 45.9397C26.4026 45.957 26.4046 45.9743 26.41 45.9907C26.4154 46.0072 26.424 46.0223 26.4353 46.0354C26.4466 46.0485 26.4604 46.0592 26.4758 46.067C26.4913 46.0747 26.5081 46.0793 26.5254 46.0804ZM28.5352 46.2384L29.5491 46.3181C29.5666 46.3198 29.5842 46.318 29.601 46.3128C29.6178 46.3076 29.6333 46.2991 29.6467 46.2878C29.6602 46.2766 29.6712 46.2627 29.6793 46.2471C29.6873 46.2315 29.6921 46.2145 29.6935 46.197C29.6948 46.1795 29.6927 46.1619 29.6872 46.1452C29.6816 46.1286 29.6728 46.1132 29.6613 46.1C29.6498 46.0868 29.6357 46.076 29.6199 46.0683C29.6042 46.0606 29.587 46.0561 29.5695 46.0551L28.5557 45.9762C28.5383 45.9746 28.5208 45.9764 28.5041 45.9816C28.4875 45.9868 28.472 45.9953 28.4586 46.0065C28.4453 46.0177 28.4343 46.0315 28.4263 46.047C28.4183 46.0626 28.4135 46.0795 28.4122 46.0969C28.4108 46.1143 28.4129 46.1318 28.4184 46.1484C28.4239 46.165 28.4326 46.1803 28.444 46.1934C28.4555 46.2066 28.4695 46.2174 28.4851 46.2251C28.5008 46.2328 28.5178 46.2373 28.5352 46.2384ZM30.5692 46.3982L31.5955 46.4789C31.6131 46.4807 31.6309 46.4789 31.6479 46.4738C31.6648 46.4686 31.6805 46.4601 31.6942 46.4487C31.7078 46.4373 31.7189 46.4234 31.7271 46.4076C31.7352 46.3918 31.7401 46.3746 31.7414 46.3569C31.7428 46.3393 31.7405 46.3215 31.7349 46.3047C31.7293 46.2879 31.7204 46.2724 31.7086 46.2591C31.6969 46.2458 31.6826 46.235 31.6667 46.2273C31.6507 46.2196 31.6334 46.2152 31.6157 46.2143L30.5895 46.1345C30.572 46.1327 30.5543 46.1345 30.5374 46.1397C30.5206 46.1449 30.5049 46.1534 30.4914 46.1647C30.4779 46.176 30.4668 46.1899 30.4587 46.2056C30.4507 46.2213 30.4458 46.2384 30.4445 46.256C30.4431 46.2735 30.4453 46.2912 30.4509 46.3079C30.4564 46.3247 30.4653 46.3401 30.4769 46.3533C30.4885 46.3666 30.5027 46.3774 30.5185 46.3851C30.5344 46.3928 30.5516 46.3973 30.5692 46.3982ZM32.6279 46.56L33.6666 46.6416C33.6844 46.6435 33.7024 46.6419 33.7196 46.6367C33.7367 46.6315 33.7526 46.623 33.7664 46.6115C33.7802 46.6001 33.7915 46.586 33.7997 46.5701C33.8079 46.5541 33.8128 46.5367 33.8142 46.5189C33.8155 46.501 33.8133 46.4831 33.8075 46.4661C33.8018 46.4491 33.7927 46.4335 33.7808 46.4201C33.7689 46.4067 33.7544 46.3959 33.7383 46.3882C33.7221 46.3805 33.7045 46.3762 33.6866 46.3754L32.648 46.2946C32.6303 46.2928 32.6124 46.2945 32.5954 46.2997C32.5783 46.3048 32.5625 46.3134 32.5488 46.3248C32.5352 46.3362 32.5239 46.3502 32.5158 46.3661C32.5076 46.3819 32.5027 46.3992 32.5014 46.417C32.5 46.4347 32.5023 46.4525 32.5079 46.4694C32.5136 46.4863 32.5226 46.5019 32.5344 46.5152C32.5462 46.5285 32.5606 46.5394 32.5766 46.5471C32.5927 46.5548 32.6101 46.5591 32.6279 46.56ZM34.7116 46.7237L35.7631 46.8063C35.781 46.8084 35.7992 46.8068 35.8166 46.8016C35.8339 46.7964 35.85 46.7878 35.864 46.7763C35.8779 46.7648 35.8893 46.7505 35.8976 46.7345C35.9059 46.7184 35.9109 46.7008 35.9122 46.6828C35.9136 46.6647 35.9113 46.6466 35.9054 46.6295C35.8996 46.6124 35.8904 46.5966 35.8783 46.5831C35.8662 46.5697 35.8515 46.5588 35.8352 46.5511C35.8188 46.5434 35.801 46.5392 35.7829 46.5385L34.7316 46.4567C34.7137 46.4547 34.6956 46.4564 34.6784 46.4615C34.6611 46.4667 34.6451 46.4753 34.6312 46.4868C34.6174 46.4983 34.606 46.5125 34.5978 46.5285C34.5895 46.5444 34.5846 46.5619 34.5832 46.5799C34.5819 46.5978 34.5842 46.6159 34.59 46.6329C34.5957 46.65 34.6049 46.6657 34.6169 46.6791C34.6289 46.6925 34.6434 46.7034 34.6597 46.7111C34.676 46.7187 34.6937 46.723 34.7116 46.7237ZM36.8209 46.8895L37.8853 46.9731C37.9033 46.975 37.9216 46.9732 37.9389 46.968C37.9563 46.9627 37.9724 46.9541 37.9864 46.9426C38.0004 46.9311 38.012 46.917 38.0206 46.901C38.0291 46.885 38.0343 46.8674 38.0361 46.8494C38.0379 46.8127 38.0251 46.7768 38.0005 46.7495C37.976 46.7222 37.9416 46.7057 37.905 46.7036L36.8407 46.6208C36.8228 46.619 36.8046 46.6208 36.7874 46.6261C36.7701 46.6313 36.7541 46.6399 36.7402 46.6514C36.7262 46.6628 36.7147 46.6769 36.7063 46.6929C36.6978 46.7088 36.6926 46.7262 36.6909 46.7442C36.689 46.7807 36.7016 46.8164 36.726 46.8436C36.7504 46.8708 36.7845 46.8873 36.8209 46.8895ZM38.956 47.0259C38.9656 47.0267 38.9752 47.0265 38.9848 47.0254C39.3715 46.9816 39.7331 46.8121 40.0141 46.5428C40.0271 46.5303 40.0374 46.5153 40.0443 46.4987C40.0513 46.482 40.0547 46.4641 40.0544 46.4461C40.0541 46.4281 40.0501 46.4103 40.0427 46.3938C40.0352 46.3774 40.0245 46.3627 40.0111 46.3506C39.9837 46.3251 39.9475 46.311 39.9101 46.3111C39.8726 46.3112 39.8366 46.3255 39.8093 46.3512C39.5739 46.5768 39.271 46.7191 38.9471 46.7562C38.9291 46.7578 38.9116 46.763 38.8956 46.7715C38.8796 46.78 38.8655 46.7917 38.8542 46.8058C38.8428 46.8198 38.8344 46.8361 38.8294 46.8535C38.8244 46.8709 38.823 46.8891 38.8252 46.907C38.8303 46.9387 38.846 46.9678 38.8698 46.9894C38.8936 47.011 38.924 47.0239 38.956 47.0259ZM21.8224 45.1491C21.8465 45.1509 21.8706 45.1459 21.892 45.1347C21.9134 45.1234 21.9312 45.1065 21.9435 45.0856C21.9557 45.0648 21.9618 45.041 21.9612 45.0168C21.9606 44.9926 21.9532 44.9692 21.9399 44.949C21.7741 44.7006 21.6977 44.4031 21.7233 44.1056C21.7247 44.0888 21.7228 44.0719 21.7176 44.0559C21.7125 44.0399 21.7042 44.0251 21.6933 44.0123C21.6824 43.9995 21.669 43.989 21.654 43.9814C21.639 43.9738 21.6227 43.9693 21.6059 43.968C21.5719 43.9657 21.5383 43.9768 21.5124 43.999C21.4865 44.0212 21.4705 44.0527 21.4677 44.0867C21.4371 44.4415 21.5281 44.7961 21.7257 45.0924C21.7364 45.1086 21.7507 45.1221 21.7675 45.1319C21.7842 45.1418 21.803 45.1476 21.8224 45.1491ZM40.3523 45.6671C40.4288 45.6728 40.4985 45.6227 40.5065 45.5498C40.5087 45.5298 40.5128 45.5125 40.5142 45.4922L40.5838 44.5211C40.5892 44.4464 40.5418 44.3804 40.463 44.3749C40.4455 44.3732 40.4278 44.3752 40.4111 44.3806C40.3944 44.3861 40.379 44.3949 40.3659 44.4066C40.3527 44.4183 40.3421 44.4325 40.3347 44.4485C40.3273 44.4644 40.3233 44.4817 40.3229 44.4993L40.2532 45.4694C40.252 45.4864 40.236 45.5014 40.2341 45.5182C40.2317 45.5359 40.2328 45.554 40.2376 45.5712C40.2424 45.5885 40.2507 45.6046 40.262 45.6185C40.2733 45.6324 40.2873 45.6439 40.3032 45.6521C40.3191 45.6604 40.3365 45.6653 40.3544 45.6665C40.3562 45.6666 40.3506 45.667 40.3523 45.6671ZM21.6106 43.7352C21.6812 43.7403 21.7191 43.6875 21.7249 43.6167L21.8042 42.6463C21.81 42.5756 21.7814 42.5141 21.7109 42.5093C21.6403 42.5044 21.6025 42.5574 21.5967 42.628L21.5174 43.5975C21.5116 43.6682 21.5401 43.73 21.6106 43.7352ZM40.5171 43.6203C40.5346 43.6219 40.5523 43.6199 40.569 43.6144C40.5857 43.6089 40.6011 43.6001 40.6143 43.5884C40.6274 43.5767 40.638 43.5624 40.6454 43.5464C40.6528 43.5305 40.6569 43.5131 40.6573 43.4955L40.7307 42.4711C40.7361 42.3965 40.6887 42.3313 40.6099 42.3262C40.5924 42.3246 40.5748 42.3267 40.5581 42.3323C40.5414 42.3378 40.526 42.3467 40.5129 42.3584C40.4998 42.3702 40.4892 42.3844 40.4818 42.4004C40.4744 42.4164 40.4704 42.4337 40.47 42.4513L40.3965 43.4747C40.3911 43.5493 40.4384 43.6149 40.5171 43.6203ZM21.7692 41.796C21.8398 41.8007 21.8777 41.7475 21.8834 41.6769L21.9626 40.7085C21.9683 40.6379 21.9398 40.577 21.8692 40.5726C21.7987 40.5681 21.7609 40.6215 21.7552 40.6919L21.676 41.6595C21.6702 41.73 21.6987 41.7913 21.7692 41.796ZM40.664 41.5732C40.6815 41.5747 40.6992 41.5726 40.7159 41.567C40.7326 41.5614 40.7479 41.5524 40.7611 41.5407C40.7742 41.5289 40.7848 41.5146 40.7922 41.4987C40.7995 41.4827 40.8036 41.4654 40.8041 41.4478L40.8773 40.4255C40.8826 40.3511 40.8353 40.2865 40.7566 40.2819C40.739 40.2805 40.7214 40.2827 40.7047 40.2883C40.6881 40.294 40.6727 40.303 40.6596 40.3147C40.6465 40.3265 40.636 40.3408 40.6286 40.3568C40.6212 40.3728 40.6172 40.3901 40.6167 40.4077L40.5434 41.4289C40.538 41.5034 40.5853 41.5683 40.664 41.5732ZM21.9274 39.8607C21.998 39.865 22.0359 39.8115 22.0416 39.741L22.1206 38.7746C22.1263 38.7042 22.0978 38.6439 22.0273 38.6399C21.9568 38.6358 21.919 38.6895 21.9133 38.7598L21.8342 39.7254C21.8285 39.7958 21.857 39.8564 21.9274 39.8607ZM40.8105 39.5306C40.8281 39.5319 40.8457 39.5297 40.8624 39.524C40.8791 39.5183 40.8944 39.5093 40.9075 39.4975C40.9206 39.4857 40.9312 39.4714 40.9386 39.4554C40.9459 39.4394 40.95 39.422 40.9505 39.4044L41.0236 38.3844C41.0289 38.3101 40.9816 38.2462 40.9029 38.242C40.8853 38.2408 40.8677 38.2431 40.8511 38.2488C40.8344 38.2546 40.8191 38.2636 40.806 38.2755C40.793 38.2873 40.7824 38.3016 40.7751 38.3176C40.7677 38.3336 40.7636 38.3509 40.7631 38.3685L40.6899 39.3876C40.6846 39.4618 40.7319 39.5261 40.8105 39.5306ZM22.0854 37.9295C22.1558 37.9334 22.1937 37.8795 22.1995 37.8092L22.2783 36.8447C22.284 36.7745 22.2554 36.7147 22.185 36.7111C22.1145 36.7075 22.0768 36.7616 22.071 36.8317L21.9922 37.7953C21.9864 37.8655 22.0149 37.9256 22.0854 37.9295ZM40.9567 37.4924C40.9743 37.4936 40.9919 37.4912 41.0086 37.4854C41.0253 37.4796 41.0406 37.4705 41.0536 37.4587C41.0667 37.4469 41.0773 37.4325 41.0846 37.4165C41.092 37.4005 41.0961 37.3831 41.0966 37.3655L41.1696 36.3477C41.1749 36.2736 41.1275 36.2103 41.0489 36.2066C41.0313 36.2055 41.0137 36.2079 40.9971 36.2138C40.9804 36.2196 40.9651 36.2287 40.9521 36.2406C40.9391 36.2525 40.9286 36.2668 40.9212 36.2828C40.9138 36.2988 40.9097 36.3162 40.9092 36.3338L40.8362 37.3506C40.8309 37.4248 40.8781 37.4884 40.9567 37.4924ZM22.243 36.0022C22.3134 36.0057 22.3513 35.9514 22.357 35.8813L22.4357 34.9188C22.4414 34.8487 22.4128 34.7895 22.3424 34.7863C22.272 34.7831 22.2342 34.8375 22.2285 34.9076L22.1498 35.8691C22.144 35.9392 22.1725 35.9987 22.243 36.0022ZM41.1026 35.4586C41.1202 35.4596 41.1379 35.4572 41.1545 35.4513C41.1712 35.4454 41.1864 35.4362 41.1995 35.4244C41.2125 35.4125 41.223 35.3981 41.2304 35.382C41.2378 35.366 41.2419 35.3487 41.2424 35.331L41.3152 34.3154C41.3205 34.2415 41.2732 34.1789 41.1946 34.1756C41.177 34.1746 41.1594 34.1772 41.1428 34.1831C41.1262 34.189 41.1109 34.1982 41.0979 34.2101C41.0849 34.2221 41.0744 34.2365 41.067 34.2525C41.0597 34.2685 41.0556 34.2859 41.055 34.3035L40.9822 35.3181C40.9768 35.3921 41.0241 35.455 41.1026 35.4586ZM22.4002 34.0789C22.4706 34.0819 22.5085 34.0273 22.5142 33.9573L22.5927 32.9969C22.5984 32.927 22.5698 32.8683 22.4994 32.8655C22.4291 32.8628 22.3913 32.9175 22.3856 32.9874L22.3071 33.9469C22.3013 34.0169 22.3299 34.0758 22.4002 34.0789ZM41.2482 33.4292C41.2658 33.4301 41.2835 33.4275 41.3001 33.4215C41.3167 33.4156 41.332 33.4063 41.345 33.3944C41.358 33.3825 41.3685 33.368 41.3759 33.352C41.3832 33.3359 41.3873 33.3186 41.3879 33.3009L41.4426 32.5385C41.4483 32.4476 41.4461 32.3565 41.436 32.266C41.4284 32.1927 41.3573 32.1415 41.2793 32.1501C41.201 32.1594 41.1576 32.2264 41.1651 32.2996C41.1729 32.3748 41.188 32.4518 41.1825 32.5282L41.1278 33.29C41.1225 33.3638 41.1697 33.4261 41.2482 33.4292ZM22.5572 32.1595C22.6275 32.1621 22.6654 32.1072 22.6711 32.0373L22.6863 31.8516C22.7057 31.6146 22.808 31.3851 22.9461 31.1872C22.9871 31.1284 22.9831 31.0503 22.9255 31.0124C22.8679 30.9746 22.7976 30.9918 22.7567 31.0505C22.5956 31.2855 22.4998 31.559 22.4792 31.8432L22.464 32.0287C22.4583 32.0985 22.4868 32.1568 22.5572 32.1595ZM40.8407 31.5267C40.8805 31.5281 40.9192 31.5138 40.9485 31.4868C40.9618 31.4752 40.9727 31.4609 40.9802 31.4448C40.9877 31.4287 40.9919 31.4113 40.9923 31.3935C40.9927 31.3758 40.9894 31.3582 40.9826 31.3418C40.9759 31.3254 40.9658 31.3105 40.953 31.2983C40.6734 31.0366 40.3151 30.8748 39.934 30.838C39.8974 30.8341 39.8608 30.844 39.8312 30.8659C39.8017 30.8877 39.7814 30.9199 39.7744 30.9559C39.7721 30.9735 39.7733 30.9914 39.7782 31.0084C39.783 31.0255 39.7913 31.0414 39.8026 31.0551C39.8138 31.0688 39.8278 31.0801 39.8435 31.0882C39.8593 31.0963 39.8766 31.1011 39.8943 31.1023C40.2136 31.1334 40.5137 31.2692 40.7478 31.4886C40.773 31.5123 40.8061 31.5258 40.8407 31.5267ZM23.6263 30.6629C23.6422 30.6634 23.658 30.661 23.673 30.6559C23.8293 30.603 23.9938 30.5787 24.1587 30.5841L24.5952 30.5984C24.6296 30.5993 24.6631 30.5872 24.689 30.5644C24.7148 30.5416 24.731 30.5098 24.7343 30.4755C24.7357 30.459 24.7337 30.4424 24.7284 30.4267C24.7231 30.411 24.7146 30.3965 24.7035 30.3842C24.6924 30.3719 24.6788 30.362 24.6637 30.3552C24.6486 30.3483 24.6323 30.3447 24.6157 30.3444L24.1792 30.3305C23.9826 30.3242 23.7865 30.3534 23.6002 30.4167C23.5678 30.4272 23.5406 30.4498 23.5245 30.4799C23.5083 30.5099 23.5044 30.545 23.5135 30.5779C23.521 30.6021 23.5359 30.6234 23.5561 30.6386C23.5764 30.6539 23.6009 30.6624 23.6263 30.6629ZM25.574 30.6304L26.5585 30.6625C26.5933 30.6636 26.6271 30.6515 26.6532 30.6286C26.6793 30.6056 26.6957 30.5736 26.699 30.539C26.7004 30.5224 26.6983 30.5056 26.6929 30.4898C26.6875 30.4739 26.6789 30.4594 26.6676 30.447C26.6563 30.4346 26.6426 30.4247 26.6274 30.4178C26.6121 30.411 26.5956 30.4073 26.5789 30.4071L25.5944 30.3757C25.5599 30.3747 25.5262 30.3868 25.5003 30.4097C25.4743 30.4326 25.4581 30.4644 25.4547 30.4988C25.4534 30.5154 25.4554 30.5321 25.4608 30.5479C25.4661 30.5637 25.4746 30.5782 25.4858 30.5905C25.497 30.6028 25.5106 30.6127 25.5257 30.6196C25.5409 30.6264 25.5573 30.6301 25.574 30.6304ZM27.5489 30.6949L28.5451 30.7275C28.5801 30.7287 28.6143 30.7165 28.6406 30.6935C28.667 30.6704 28.6836 30.6382 28.687 30.6033C28.6883 30.5864 28.6861 30.5695 28.6806 30.5536C28.6751 30.5376 28.6664 30.523 28.6549 30.5105C28.6435 30.4981 28.6297 30.4881 28.6143 30.4812C28.5988 30.4744 28.5822 30.4707 28.5653 30.4706L27.5692 30.4387C27.5343 30.4376 27.5003 30.4498 27.4741 30.4728C27.4479 30.4958 27.4314 30.5279 27.428 30.5626C27.4267 30.5793 27.4288 30.5962 27.4343 30.6121C27.4398 30.628 27.4484 30.6426 27.4597 30.655C27.4711 30.6674 27.4848 30.6773 27.5002 30.6842C27.5155 30.6911 27.5321 30.6947 27.5489 30.6949ZM29.5472 30.7603L30.5552 30.7932C30.5906 30.7946 30.6251 30.7824 30.6517 30.7592C30.6784 30.736 30.6952 30.7035 30.6987 30.6683C30.6999 30.6513 30.6976 30.6342 30.692 30.6181C30.6864 30.6021 30.6775 30.5873 30.6659 30.5748C30.6544 30.5623 30.6403 30.5523 30.6248 30.5454C30.6092 30.5385 30.5923 30.5349 30.5753 30.5347L29.5673 30.5026C29.5322 30.5013 29.4979 30.5135 29.4714 30.5366C29.4449 30.5598 29.4282 30.5921 29.4247 30.6271C29.4234 30.644 29.4257 30.661 29.4312 30.677C29.4368 30.693 29.4456 30.7077 29.4571 30.7202C29.4686 30.7327 29.4825 30.7427 29.498 30.7496C29.5135 30.7565 29.5302 30.7601 29.5472 30.7603ZM31.5693 30.8264L32.5894 30.8597C32.625 30.8612 32.6598 30.849 32.6868 30.8256C32.7137 30.8023 32.7307 30.7695 32.7344 30.7341C32.7355 30.7169 32.7332 30.6997 32.7274 30.6835C32.7216 30.6673 32.7126 30.6524 32.7009 30.6398C32.6892 30.6272 32.675 30.6172 32.6592 30.6103C32.6435 30.6034 32.6265 30.5998 32.6093 30.5997L31.5893 30.5671C31.5538 30.5658 31.5192 30.578 31.4924 30.6012C31.4657 30.6245 31.4488 30.6571 31.4452 30.6924C31.444 30.7095 31.4463 30.7266 31.452 30.7428C31.4577 30.7589 31.4666 30.7737 31.4783 30.7863C31.4899 30.7988 31.504 30.8089 31.5196 30.8158C31.5353 30.8227 31.5522 30.8263 31.5693 30.8264ZM33.6157 30.8933L34.6481 30.927C34.684 30.9286 34.7192 30.9164 34.7464 30.8929C34.7737 30.8694 34.7909 30.8364 34.7946 30.8007C34.7957 30.7833 34.7932 30.766 34.7874 30.7496C34.7815 30.7333 34.7723 30.7183 34.7604 30.7056C34.7486 30.693 34.7342 30.6829 34.7183 30.676C34.7024 30.669 34.6852 30.6655 34.6678 30.6654L33.6355 30.6325C33.5998 30.631 33.5648 30.6432 33.5377 30.6666C33.5107 30.69 33.4936 30.7229 33.4899 30.7585C33.4888 30.7757 33.4912 30.793 33.497 30.8093C33.5028 30.8256 33.5119 30.8405 33.5237 30.8531C33.5355 30.8657 33.5497 30.8758 33.5655 30.8827C33.5814 30.8896 33.5984 30.8932 33.6157 30.8933ZM35.6868 30.961L36.7317 30.9952C36.768 30.9969 36.8035 30.9846 36.831 30.961C36.8585 30.9374 36.876 30.9041 36.8798 30.868C36.8808 30.8505 36.8783 30.833 36.8723 30.8165C36.8663 30.8001 36.8569 30.785 36.8449 30.7723C36.8329 30.7595 36.8183 30.7494 36.8022 30.7424C36.7861 30.7355 36.7688 30.732 36.7513 30.732L35.7064 30.6986C35.6703 30.697 35.635 30.7092 35.6076 30.7328C35.5803 30.7563 35.563 30.7895 35.5592 30.8254C35.5581 30.8428 35.5607 30.8602 35.5666 30.8766C35.5725 30.893 35.5817 30.908 35.5937 30.9207C35.6056 30.9334 35.6201 30.9436 35.6361 30.9505C35.6521 30.9574 35.6693 30.961 35.6868 30.961ZM37.783 31.0296L38.8407 31.0641C38.8773 31.0659 38.9132 31.0537 38.941 31.0299C38.9688 31.0062 38.9865 30.9726 38.9904 30.9362C38.9914 30.9186 38.9887 30.9009 38.9826 30.8843C38.9764 30.8677 38.967 30.8525 38.9548 30.8397C38.9426 30.8269 38.9279 30.8167 38.9116 30.8097C38.8953 30.8028 38.8778 30.7992 38.8601 30.7993L37.8025 30.7655C37.7661 30.7638 37.7304 30.7761 37.7028 30.7998C37.6751 30.8235 37.6576 30.8568 37.6537 30.893C37.6527 30.9106 37.6553 30.9282 37.6614 30.9447C37.6674 30.9613 37.6768 30.9764 37.6889 30.9892C37.701 31.002 37.7156 31.0121 37.7318 31.0191C37.748 31.026 37.7654 31.0296 37.783 31.0296Z" fill="white"/>
</g>
<path d="M20.8169 34.6107C20.8702 34.5771 20.9308 34.5569 20.9936 34.5518C21.0563 34.5466 21.1194 34.5567 21.1774 34.5812L24.8944 36.1572C25.4276 36.3856 25.7929 36.9237 25.7465 37.5039L25.6234 39.0459C25.5741 39.6633 25.0768 40.1807 24.4657 40.3174L20.6271 41.171C20.5669 41.1845 20.5043 41.1839 20.4444 41.1691C20.3844 41.1544 20.3287 41.1259 20.2816 41.086C20.2351 41.0463 20.1986 40.9963 20.1749 40.9399C20.1512 40.8836 20.141 40.8224 20.1452 40.7615L20.6278 34.9236C20.6325 34.8603 20.6521 34.7989 20.6849 34.7445C20.7178 34.6901 20.763 34.6443 20.8169 34.6107Z" fill="black"/>
<path d="M23.2807 38.1074C23.2723 38.2084 23.2843 38.3102 23.316 38.4065C23.3478 38.5028 23.3986 38.5918 23.4654 38.6681C23.5322 38.7444 23.6137 38.8064 23.705 38.8506C23.7964 38.8947 23.8956 38.92 23.9969 38.925C24.4287 38.9499 24.8074 38.6225 24.8419 38.1938C24.8502 38.0925 24.838 37.9905 24.806 37.894C24.774 37.7975 24.7229 37.7084 24.6557 37.6321C24.5885 37.5558 24.5066 37.4939 24.4148 37.45C24.3231 37.4061 24.2235 37.3811 24.1219 37.3767C23.6914 37.3538 23.3153 37.6809 23.2807 38.1074Z" fill="url(#paint55_linear_1293_146)"/>
<defs>
<linearGradient id="paint0_linear_1293_146" x1="47.38" y1="24.15" x2="39.7088" y2="85.0966" gradientUnits="userSpaceOnUse">
<stop stop-color="#39FDA1"/>
<stop offset="1" stop-color="#04AA5D"/>
</linearGradient>
<linearGradient id="paint1_linear_1293_146" x1="45.1025" y1="42.6367" x2="40.673" y2="54.8928" gradientUnits="userSpaceOnUse">
<stop stop-color="#FCB148"/>
<stop offset="0.0521" stop-color="#FDBA46"/>
<stop offset="0.1424" stop-color="#FFC244"/>
<stop offset="0.3183" stop-color="#FFC444"/>
<stop offset="0.4849" stop-color="#FDB946"/>
<stop offset="0.7754" stop-color="#F99C4D"/>
<stop offset="0.8658" stop-color="#F8924F"/>
<stop offset="1" stop-color="#F8924F"/>
</linearGradient>
<linearGradient id="paint2_linear_1293_146" x1="9.90025" y1="49.4857" x2="7.7605" y2="49.592" gradientUnits="userSpaceOnUse">
<stop stop-color="#444B8C"/>
<stop offset="0.9964" stop-color="#26264F"/>
</linearGradient>
<linearGradient id="paint3_linear_1293_146" x1="8.1095" y1="47.0089" x2="9.28207" y2="48.9217" gradientUnits="userSpaceOnUse">
<stop stop-color="#FFC444"/>
<stop offset="0.9964" stop-color="#F36F56"/>
</linearGradient>
<linearGradient id="paint4_linear_1293_146" x1="8.50724" y1="12.6319" x2="25.9176" y2="56.0417" gradientUnits="userSpaceOnUse">
<stop stop-color="#039D55"/>
<stop offset="1" stop-color="#047942"/>
</linearGradient>
<linearGradient id="paint5_linear_1293_146" x1="7.67747" y1="50.3576" x2="4.72937" y2="50.3672" gradientUnits="userSpaceOnUse">
<stop stop-color="#444B8C"/>
<stop offset="0.9964" stop-color="#26264F"/>
</linearGradient>
<linearGradient id="paint6_linear_1293_146" x1="6.07251" y1="50.2135" x2="4.92874" y2="47.8656" gradientUnits="userSpaceOnUse">
<stop stop-color="#FFC444"/>
<stop offset="0.9964" stop-color="#F36F56"/>
</linearGradient>
<linearGradient id="paint7_linear_1293_146" x1="12.1819" y1="49.1139" x2="7.5769" y2="32.7951" gradientUnits="userSpaceOnUse">
<stop stop-color="#AA80F9"/>
<stop offset="0.9964" stop-color="#6165D7"/>
</linearGradient>
<linearGradient id="paint8_linear_1293_146" x1="5.34901" y1="11.6409" x2="28.0505" y2="51.8924" gradientUnits="userSpaceOnUse">
<stop stop-color="#039D55"/>
<stop offset="1" stop-color="#047942"/>
</linearGradient>
<linearGradient id="paint9_linear_1293_146" x1="11.2025" y1="17.9957" x2="12.0611" y2="26.8051" gradientUnits="userSpaceOnUse">
<stop stop-color="#FBFF31"/>
<stop offset="1" stop-color="#DB9B0B"/>
</linearGradient>
<linearGradient id="paint10_linear_1293_146" x1="8.97864" y1="17.8508" x2="4.7561" y2="33.0159" gradientUnits="userSpaceOnUse">
<stop stop-color="#311944"/>
<stop offset="1" stop-color="#893976"/>
</linearGradient>
<linearGradient id="paint11_linear_1293_146" x1="6.92387" y1="42.5255" x2="0.195804" y2="31.9947" gradientUnits="userSpaceOnUse">
<stop stop-color="#AA80F9"/>
<stop offset="0.9964" stop-color="#6165D7"/>
</linearGradient>
<linearGradient id="paint12_linear_1293_146" x1="7.00533" y1="16.0921" x2="8.2796" y2="31.465" gradientUnits="userSpaceOnUse">
<stop stop-color="#FBFF31"/>
<stop offset="1" stop-color="#DB9B0B"/>
</linearGradient>
<linearGradient id="paint13_linear_1293_146" x1="7.48988" y1="20.8679" x2="9.05316" y2="17.5857" gradientUnits="userSpaceOnUse">
<stop stop-color="#FFC444"/>
<stop offset="0.9964" stop-color="#F36F56"/>
</linearGradient>
<linearGradient id="paint14_linear_1293_146" x1="8.4408" y1="15.6567" x2="8.27447" y2="18.4906" gradientUnits="userSpaceOnUse">
<stop stop-color="#444B8C"/>
<stop offset="0.9964" stop-color="#26264F"/>
</linearGradient>
<linearGradient id="paint15_linear_1293_146" x1="8.46531" y1="17.7312" x2="9.32939" y2="24.0336" gradientUnits="userSpaceOnUse">
<stop stop-color="#FFC444"/>
<stop offset="0.9964" stop-color="#F36F56"/>
</linearGradient>
<linearGradient id="paint16_linear_1293_146" x1="9.22761" y1="18.3901" x2="9.20817" y2="19.1915" gradientUnits="userSpaceOnUse">
<stop stop-color="#FFC444"/>
<stop offset="1" stop-color="#F36F56"/>
</linearGradient>
<linearGradient id="paint17_linear_1293_146" x1="10.968" y1="16.3132" x2="6.74589" y2="31.4768" gradientUnits="userSpaceOnUse">
<stop stop-color="#311944"/>
<stop offset="1" stop-color="#893976"/>
</linearGradient>
<linearGradient id="paint18_linear_1293_146" x1="4.61785" y1="17.203" x2="5.4191" y2="28.7108" gradientUnits="userSpaceOnUse">
<stop stop-color="#FBFF31"/>
<stop offset="1" stop-color="#DB9B0B"/>
</linearGradient>
<linearGradient id="paint19_linear_1293_146" x1="10.5256" y1="26.9949" x2="10.4206" y2="24.4227" gradientUnits="userSpaceOnUse">
<stop stop-color="#FFC444"/>
<stop offset="0.9964" stop-color="#F36F56"/>
</linearGradient>
<linearGradient id="paint20_linear_1293_146" x1="9.2337" y1="28.389" x2="9.14461" y2="26.2052" gradientUnits="userSpaceOnUse">
<stop stop-color="#FFC444"/>
<stop offset="0.9964" stop-color="#F36F56"/>
</linearGradient>
<linearGradient id="paint21_linear_1293_146" x1="48.9042" y1="25.8412" x2="18.3469" y2="26.5487" gradientUnits="userSpaceOnUse">
<stop stop-color="#444B8C"/>
<stop offset="0.9964" stop-color="#26264F"/>
</linearGradient>
<linearGradient id="paint22_linear_1293_146" x1="40.4309" y1="17.0053" x2="6.64863" y2="31.3902" gradientUnits="userSpaceOnUse">
<stop stop-color="#DB9B0B"/>
<stop offset="0.9964" stop-color="#039D55"/>
</linearGradient>
<linearGradient id="paint23_linear_1293_146" x1="45.1185" y1="25.4037" x2="4.73735" y2="42.5984" gradientUnits="userSpaceOnUse">
<stop stop-color="#AA80F9"/>
<stop offset="0.9964" stop-color="#6165D7"/>
</linearGradient>
<linearGradient id="paint24_linear_1293_146" x1="48.9721" y1="27.152" x2="6.46886" y2="45.2503" gradientUnits="userSpaceOnUse">
<stop stop-color="#AA80F9"/>
<stop offset="0.9964" stop-color="#6165D7"/>
</linearGradient>
<linearGradient id="paint25_linear_1293_146" x1="23.055" y1="8.20608" x2="23.1563" y2="11.4766" gradientUnits="userSpaceOnUse">
<stop stop-color="#FBFF31"/>
<stop offset="1" stop-color="#DB9B0B"/>
</linearGradient>
<linearGradient id="paint26_linear_1293_146" x1="14.894" y1="14.5592" x2="15.0687" y2="18.5823" gradientUnits="userSpaceOnUse">
<stop stop-color="#FBFF31"/>
<stop offset="1" stop-color="#DB9B0B"/>
</linearGradient>
<linearGradient id="paint27_linear_1293_146" x1="29.842" y1="21.509" x2="23.162" y2="24.3535" gradientUnits="userSpaceOnUse">
<stop stop-color="#AA80F9"/>
<stop offset="0.9964" stop-color="#6165D7"/>
</linearGradient>
<linearGradient id="paint28_linear_1293_146" x1="34.0888" y1="33.212" x2="17.7537" y2="13.6215" gradientUnits="userSpaceOnUse">
<stop stop-color="#AA80F9"/>
<stop offset="0.9964" stop-color="#6165D7"/>
</linearGradient>
<linearGradient id="paint29_linear_1293_146" x1="25.3559" y1="14.691" x2="33.9527" y2="36.6501" gradientUnits="userSpaceOnUse">
<stop stop-color="#311944"/>
<stop offset="1" stop-color="#893976"/>
</linearGradient>
<linearGradient id="paint30_linear_1293_146" x1="34.7435" y1="33.9367" x2="24.3677" y2="2.49957" gradientUnits="userSpaceOnUse">
<stop offset="0.0036" stop-color="#039D55"/>
<stop offset="1" stop-color="#9571F6"/>
</linearGradient>
<linearGradient id="paint31_linear_1293_146" x1="39.2742" y1="34.4602" x2="30.2765" y2="26.06" gradientUnits="userSpaceOnUse">
<stop stop-color="#F57E53"/>
<stop offset="0.0045" stop-color="#F68252"/>
<stop offset="0.042" stop-color="#F99A4D"/>
<stop offset="0.084" stop-color="#FCAD49"/>
<stop offset="0.1333" stop-color="#FEBA46"/>
<stop offset="0.1962" stop-color="#FFC244"/>
<stop offset="0.3183" stop-color="#FFC444"/>
<stop offset="0.455" stop-color="#FDB946"/>
<stop offset="0.6941" stop-color="#F99C4C"/>
<stop offset="0.9964" stop-color="#F36F56"/>
</linearGradient>
<linearGradient id="paint32_linear_1293_146" x1="35.4351" y1="31.9118" x2="34.8082" y2="29.7455" gradientUnits="userSpaceOnUse">
<stop stop-color="#FF9085"/>
<stop offset="1" stop-color="#FB6FBB"/>
</linearGradient>
<linearGradient id="paint33_linear_1293_146" x1="35.8402" y1="31.6283" x2="35.271" y2="29.6614" gradientUnits="userSpaceOnUse">
<stop stop-color="#FF9085"/>
<stop offset="1" stop-color="#FB6FBB"/>
</linearGradient>
<linearGradient id="paint34_linear_1293_146" x1="35.386" y1="31.8171" x2="34.8165" y2="29.8492" gradientUnits="userSpaceOnUse">
<stop stop-color="#FF9085"/>
<stop offset="1" stop-color="#FB6FBB"/>
</linearGradient>
<linearGradient id="paint35_linear_1293_146" x1="34.9319" y1="32.0068" x2="34.3622" y2="30.0379" gradientUnits="userSpaceOnUse">
<stop stop-color="#FF9085"/>
<stop offset="1" stop-color="#FB6FBB"/>
</linearGradient>
<linearGradient id="paint36_linear_1293_146" x1="35.2495" y1="31.4608" x2="34.8909" y2="30.2216" gradientUnits="userSpaceOnUse">
<stop stop-color="#FF9085"/>
<stop offset="1" stop-color="#FB6FBB"/>
</linearGradient>
<linearGradient id="paint37_linear_1293_146" x1="30.7891" y1="35.2777" x2="20.7302" y2="4.8004" gradientUnits="userSpaceOnUse">
<stop stop-color="#FB6FBB"/>
<stop offset="1" stop-color="#FF9085"/>
</linearGradient>
<linearGradient id="paint38_linear_1293_146" x1="29.7566" y1="34.4035" x2="28.4999" y2="30.0608" gradientUnits="userSpaceOnUse">
<stop stop-color="#FB6FBB"/>
<stop offset="1" stop-color="#FF9085"/>
</linearGradient>
<linearGradient id="paint39_linear_1293_146" x1="27.1742" y1="28.27" x2="25.5379" y2="22.6152" gradientUnits="userSpaceOnUse">
<stop stop-color="#FB6FBB"/>
<stop offset="1" stop-color="#FF9085"/>
</linearGradient>
<linearGradient id="paint40_linear_1293_146" x1="32.0987" y1="19.8661" x2="31.585" y2="16.804" gradientUnits="userSpaceOnUse">
<stop stop-color="#FF9085"/>
<stop offset="1" stop-color="#FB6FBB"/>
</linearGradient>
<linearGradient id="paint41_linear_1293_146" x1="38.2332" y1="27.5458" x2="44.8948" y2="29.6599" gradientUnits="userSpaceOnUse">
<stop stop-color="#FCB148"/>
<stop offset="0.0521" stop-color="#FDBA46"/>
<stop offset="0.1424" stop-color="#FFC244"/>
<stop offset="0.3183" stop-color="#FFC444"/>
<stop offset="0.4849" stop-color="#FDB946"/>
<stop offset="0.7754" stop-color="#F99C4D"/>
<stop offset="0.8658" stop-color="#F8924F"/>
<stop offset="1" stop-color="#F8924F"/>
</linearGradient>
<linearGradient id="paint42_linear_1293_146" x1="32.8279" y1="20.9399" x2="38.8114" y2="34.0275" gradientUnits="userSpaceOnUse">
<stop stop-color="#FFDB44"/>
<stop offset="1" stop-color="#FEEF06"/>
</linearGradient>
<linearGradient id="paint43_linear_1293_146" x1="33.9661" y1="34.7752" x2="35.0921" y2="28.5092" gradientUnits="userSpaceOnUse">
<stop stop-color="#FCB148"/>
<stop offset="0.0521" stop-color="#FDBA46"/>
<stop offset="0.1424" stop-color="#FFC244"/>
<stop offset="0.3183" stop-color="#FFC444"/>
<stop offset="0.4849" stop-color="#FDB946"/>
<stop offset="0.7754" stop-color="#F99C4D"/>
<stop offset="0.8658" stop-color="#F8924F"/>
<stop offset="1" stop-color="#F8924F"/>
</linearGradient>
<linearGradient id="paint44_linear_1293_146" x1="36.3642" y1="24.6314" x2="31.6732" y2="34.6739" gradientUnits="userSpaceOnUse">
<stop stop-color="#FCB148"/>
<stop offset="0.0521" stop-color="#FDBA46"/>
<stop offset="0.1424" stop-color="#FFC244"/>
<stop offset="0.3183" stop-color="#FFC444"/>
<stop offset="0.4849" stop-color="#FDB946"/>
<stop offset="0.7754" stop-color="#F99C4D"/>
<stop offset="0.8658" stop-color="#F8924F"/>
<stop offset="1" stop-color="#F8924F"/>
</linearGradient>
<linearGradient id="paint45_linear_1293_146" x1="36.5449" y1="22.4726" x2="34.1986" y2="31.382" gradientUnits="userSpaceOnUse">
<stop stop-color="#FFDB44"/>
<stop offset="1" stop-color="#FEEF06"/>
</linearGradient>
<linearGradient id="paint46_linear_1293_146" x1="37.7558" y1="25.2753" x2="33.0743" y2="35.2975" gradientUnits="userSpaceOnUse">
<stop stop-color="#FCB148"/>
<stop offset="0.0521" stop-color="#FDBA46"/>
<stop offset="0.1424" stop-color="#FFC244"/>
<stop offset="0.3183" stop-color="#FFC444"/>
<stop offset="0.4849" stop-color="#FDB946"/>
<stop offset="0.7754" stop-color="#F99C4D"/>
<stop offset="0.8658" stop-color="#F8924F"/>
<stop offset="1" stop-color="#F8924F"/>
</linearGradient>
<linearGradient id="paint47_linear_1293_146" x1="38.6335" y1="15.1591" x2="43.1196" y2="16.5828" gradientUnits="userSpaceOnUse">
<stop stop-color="#FCB148"/>
<stop offset="0.0521" stop-color="#FDBA46"/>
<stop offset="0.1424" stop-color="#FFC244"/>
<stop offset="0.3183" stop-color="#FFC444"/>
<stop offset="0.4849" stop-color="#FDB946"/>
<stop offset="0.7754" stop-color="#F99C4D"/>
<stop offset="0.8658" stop-color="#F8924F"/>
<stop offset="1" stop-color="#F8924F"/>
</linearGradient>
<linearGradient id="paint48_linear_1293_146" x1="34.9942" y1="10.7097" x2="39.0237" y2="19.5232" gradientUnits="userSpaceOnUse">
<stop stop-color="#FFDB44"/>
<stop offset="1" stop-color="#FEEF06"/>
</linearGradient>
<linearGradient id="paint49_linear_1293_146" x1="35.7602" y1="20.0279" x2="36.5185" y2="15.8082" gradientUnits="userSpaceOnUse">
<stop stop-color="#FCB148"/>
<stop offset="0.0521" stop-color="#FDBA46"/>
<stop offset="0.1424" stop-color="#FFC244"/>
<stop offset="0.3183" stop-color="#FFC444"/>
<stop offset="0.4849" stop-color="#FDB946"/>
<stop offset="0.7754" stop-color="#F99C4D"/>
<stop offset="0.8658" stop-color="#F8924F"/>
<stop offset="1" stop-color="#F8924F"/>
</linearGradient>
<linearGradient id="paint50_linear_1293_146" x1="37.3743" y1="13.1961" x2="34.2149" y2="19.9598" gradientUnits="userSpaceOnUse">
<stop stop-color="#FCB148"/>
<stop offset="0.0521" stop-color="#FDBA46"/>
<stop offset="0.1424" stop-color="#FFC244"/>
<stop offset="0.3183" stop-color="#FFC444"/>
<stop offset="0.4849" stop-color="#FDB946"/>
<stop offset="0.7754" stop-color="#F99C4D"/>
<stop offset="0.8658" stop-color="#F8924F"/>
<stop offset="1" stop-color="#F8924F"/>
</linearGradient>
<linearGradient id="paint51_linear_1293_146" x1="37.4969" y1="11.743" x2="35.9166" y2="17.7436" gradientUnits="userSpaceOnUse">
<stop stop-color="#FFDB44"/>
<stop offset="1" stop-color="#FEEF06"/>
</linearGradient>
<linearGradient id="paint52_linear_1293_146" x1="38.3126" y1="13.6299" x2="35.1595" y2="20.38" gradientUnits="userSpaceOnUse">
<stop stop-color="#FCB148"/>
<stop offset="0.0521" stop-color="#FDBA46"/>
<stop offset="0.1424" stop-color="#FFC244"/>
<stop offset="0.3183" stop-color="#FFC444"/>
<stop offset="0.4849" stop-color="#FDB946"/>
<stop offset="0.7754" stop-color="#F99C4D"/>
<stop offset="0.8658" stop-color="#F8924F"/>
<stop offset="1" stop-color="#F8924F"/>
</linearGradient>
<linearGradient id="paint53_linear_1293_146" x1="28.1407" y1="10.9183" x2="34.1466" y2="62.3603" gradientUnits="userSpaceOnUse">
<stop stop-color="#039D55"/>
<stop offset="1" stop-color="#047942"/>
</linearGradient>
<linearGradient id="paint54_linear_1293_146" x1="-29.6262" y1="15.4402" x2="53.5052" y2="46.5026" gradientUnits="userSpaceOnUse">
<stop stop-color="#039D55"/>
<stop offset="1" stop-color="#039D55"/>
</linearGradient>
<linearGradient id="paint55_linear_1293_146" x1="19.0603" y1="36.2823" x2="25.6316" y2="38.7377" gradientUnits="userSpaceOnUse">
<stop stop-color="#FFC444"/>
<stop offset="0.9964" stop-color="#F36F56"/>
</linearGradient>
</defs>
</svg>
