<svg viewBox="0 0 400 400" xmlns="http://www.w3.org/2000/svg" fill="none">
  <!-- soft brand blob -->
  <path d="M70 120C40 70 120 30 200 36c90 7 150-20 168 56 17 70-26 120-70 156-52 42-150 56-210 18C26 240 96 168 70 120Z" fill="#FBEAD9"/>
  <!-- wall art frames -->
  <rect x="96" y="74" width="58" height="46" rx="6" stroke="#1F4C5C" stroke-width="5"/>
  <circle cx="118" cy="92" r="7" fill="#E97B2C"/>
  <path d="M104 112l16-14 12 9 10-7v12z" fill="#2C6075"/>
  <rect x="170" y="84" width="40" height="36" rx="6" stroke="#1F4C5C" stroke-width="5"/>
  <path d="M178 112l10-9 8 6 7-5v8z" fill="#E97B2C"/>
  <!-- floor line -->
  <path d="M40 300h320" stroke="#1F4C5C" stroke-width="4" stroke-linecap="round" opacity="0.4"/>
  <!-- plant -->
  <path d="M300 300c-6-40 6-78 26-96-2 30-6 64-12 96z" fill="#2C6075"/>
  <path d="M308 300c14-30 36-46 58-48-16 22-36 38-44 48z" fill="#1F4C5C"/>
  <path d="M296 300c-22-16-32-44-30-70 18 18 30 44 36 70z" fill="#E97B2C" opacity="0.85"/>
  <rect x="288" y="300" width="40" height="34" rx="6" fill="#E97B2C"/>
  <!-- sofa -->
  <rect x="86" y="206" width="170" height="40" rx="16" fill="#1F4C5C"/>
  <rect x="86" y="176" width="30" height="78" rx="14" fill="#1F4C5C"/>
  <rect x="226" y="176" width="30" height="78" rx="14" fill="#1F4C5C"/>
  <rect x="112" y="160" width="118" height="60" rx="14" fill="#2C6075"/>
  <rect x="122" y="186" width="46" height="40" rx="10" fill="#E97B2C"/>
  <rect x="174" y="186" width="46" height="40" rx="10" fill="#F4A35C"/>
  <rect x="104" y="246" width="18" height="34" rx="5" fill="#143742"/>
  <rect x="220" y="246" width="18" height="34" rx="5" fill="#143742"/>
  <!-- floor lamp -->
  <path d="M300 206l26-30" stroke="#143742" stroke-width="5" stroke-linecap="round"/>
  <path d="M326 176l-2 124" stroke="#143742" stroke-width="5" stroke-linecap="round"/>
  <path d="M300 178h44l-10 28h-24z" fill="#E97B2C"/>
  <rect x="316" y="298" width="20" height="6" rx="3" fill="#143742"/>
</svg>
