<?xml version="1.0" encoding="UTF-8"?>
<svg id="Layer_2" data-name="Layer 2" xmlns="http://www.w3.org/2000/svg" xmlns:xlink="http://www.w3.org/1999/xlink" viewBox="0 0 116.8 125.39">
  <defs>
    <style>
      .cls-1 {
        fill: #010101;
      }

      .cls-2 {
        filter: url(#outer-glow-1);
      }

      .cls-3 {
        fill: #fff;
      }

      .cls-4 {
        fill: #ea2529;
      }
    </style>
    <filter id="outer-glow-1" x="0" y="0" width="116.8" height="125.39" filterUnits="userSpaceOnUse">
      <feOffset dx="0" dy="0"/>
      <feGaussianBlur result="blur" stdDeviation="6.81"/>
      <feFlood flood-color="#fff" flood-opacity=".5"/>
      <feComposite in2="blur" operator="in"/>
      <feComposite in="SourceGraphic"/>
    </filter>
  </defs>
  <g id="Layer_1-2" data-name="Layer 1">
    <g>
      <g class="cls-2">
        <path class="cls-3" d="M48.84,5.34c0-2.94,2.39-5.34,5.34-5.34h5.88c2.94,0,5.34,2.39,5.34,5.34l3.06,1.33c.49-1.37,1.52-2.49,2.83-3.09.72-.32,1.45-.47,2.2-.47.67,0,1.33.13,1.97.37l6.88,2.79c1.39.57,2.47,1.68,2.99,3.07.51,1.38.44,2.93-.22,4.25l1.49,1.13c.89-1.1,2.19-1.81,3.6-1.95.25-.03.44-.03.57-.03,1.27,0,2.49.45,3.45,1.27l5.57,4.72c1.11.96,1.79,2.33,1.87,3.79s-.45,2.9-1.46,3.96l.91,1.59c.87-.54,1.84-.82,2.85-.82.51,0,.97.07,1.44.19,1.42.4,2.63,1.39,3.31,2.71l3.59,7c.66,1.29.77,2.82.29,4.19-.47,1.35-1.5,2.48-2.81,3.09l.19,1.76c.47-.14.98-.21,1.49-.21,1.15,0,2.26.37,3.19,1.06,1.35,1.01,2.15,2.61,2.15,4.28v9.45c0,2.01-1.12,3.77-2.77,4.68v6.31c0,2.01-.82,3.82-2.15,5.14.63.88,1.01,1.95,1.01,3.11v5.96c0,3.52-2.86,6.38-6.38,6.38h-7.38c-1.13,1.5-2.92,2.44-4.86,2.44-1.58,0-3.07-.63-4.17-1.67-.8.63-1.72,1.07-2.67,1.25-.03,0-.06,0-.09.01-.34.05-.63.08-.91.08h-1.52c-1.7,0-3.28-.83-4.28-2.15-.07,0-.15-.01-.22-.03-1.09,1.22-2.45,1.87-3.6,2.09-.39.07-.69.09-.99.09h-1.51c-1.73,0-3.29-.81-4.28-2.13-.2-.01-.41-.04-.61-.07-.35.06-.71.09-1.06.09h-6.72c-1.13,1.5-2.92,2.44-4.86,2.44-.27,0-.55-.02-.82-.05-.27.03-.54.05-.81.05-1.95,0-3.75-.95-4.88-2.46-.16.01-.33.02-.49.02h-2.79c-.39,0-.77-.03-1.14-.1-.45.12-.91.18-1.37.18h-.42c-.33,0-.67-.03-1-.08-.96,1.41-2.58,2.35-4.42,2.35h-6.23c-1.14,0-2.26-.37-3.17-1.05l-.74,1.19-14.84,27.74c-.93,1.73-2.73,2.81-4.7,2.81-.63,0-1.26-.11-1.86-.33-2.48-.93-3.92-3.57-3.35-6.16l4.22-18.75c-.79.44-1.69.67-2.59.67-1.34,0-2.63-.5-3.61-1.41-1.7-1.55-2.21-4.03-1.24-6.14l.41-.9c-.59-.87-.92-1.91-.92-3.01v-30.05c0-2.05,1.18-3.86,2.91-4.75L12.6,19.42c.38-1.34,1.23-2.45,2.4-3.16L37,3.05c.84-.5,1.79-.76,2.75-.76.35,0,.71.03,1.06.11.35-.07.7-.11,1.05-.11h.19c2.36.08,4.41,1.74,5,4.03"/>
      </g>
      <g>
        <g>
          <path class="cls-4" d="M101.14,65.51c-1.04,0-1.89.85-1.89,1.89v3.98h-3.42v-6.03h-10.59v1.4c0,.94.76,1.7,1.7,1.7h5.8v2.93h-10.59v-5.87h-7.15c-1,0-1.81.8-1.81,1.78v4.09h-3.42v-5.87h-7.32c-1,0-1.81.81-1.81,1.81v6.99h6.16c-.14.61-.76,2.69-3.23,4.4h3.66s2.42-1.65,2.53-4.4c0-.06,0-.12,0-.18v.18h37.06c1.04,0,1.89-.85,1.89-1.89v-6.91h-7.56ZM63.55,71.32v-2.83h3.26v2.83h-3.26ZM79.31,71.32h-3.32v-2.83h3.32v2.83ZM105.6,71.32h-3.26v-2.83h3.26v2.83Z"/>
          <path class="cls-4" d="M69.74,74.31h0v-.18c0,.06,0,.12,0,.18Z"/>
          <path class="cls-4" d="M50.64,65.51c-2.14,0-3.88,1.74-3.88,3.88v-9.43h-1.47c-.81,0-1.47.66-1.47,1.47v12.88h13.35c.91,0,1.65-.74,1.65-1.65v-7.16h-8.18ZM55.72,71.37h-8.96c0-1.62,1.31-2.93,2.93-2.93h6.03v2.93Z"/>
          <path class="cls-4" d="M69.74,74.13v.18h0c0-.06,0-.12,0-.18Z"/>
          <circle class="cls-4" cx="77.57" cy="62.9" r="1.63"/>
          <circle class="cls-4" cx="52.14" cy="62.9" r="1.63"/>
          <path class="cls-4" d="M107.56,80.66v5.96c0,.58-.47,1.05-1.05,1.05h-17.7v-5.96c0-.58.47-1.05,1.05-1.05h.42v5.7h5.1v-1.43h-2.46c-.58,0-1.05-.47-1.05-1.05v-.42h4.93v.1h.05v2.79h2.23v-1.72c0-.58.47-1.05,1.05-1.05h.42v2.77h2.12v-4.66c0-.58.47-1.05,1.05-1.05h.42v5.7h1.96v-4.66c0-.58.47-1.05,1.05-1.05h.42Z"/>
          <path class="cls-4" d="M45.97,86.83s-.02-.08-.02-.13v-.08c0,.07,0,.14.02.21Z"/>
          <path class="cls-4" d="M50.83,83.6v3.03c0,.58-.47,1.05-1.05,1.05h-2.79c-.51,0-.93-.36-1.03-.84h0c-.01-.07-.02-.14-.02-.21v-1.56h-1.47v2.69h-.42c-.58,0-1.05-.47-1.05-1.05v-2.06s0-.03,0-.04c.02-.56.48-1.01,1.05-1.01h3.35v2.61h1.96v-1.56c0-.58.47-1.05,1.05-1.05h.42Z"/>
          <path class="cls-4" d="M87.67,83.6v3.59c0,.07,0,.13,0,.2-.07,2.19-1.25,2.41-1.25,2.41h-1.52c1.37-.91,1.32-2.11,1.31-2.26,0-.01,0-.02,0-.02v-2.86c0-.58.47-1.05,1.05-1.05h.42Z"/>
          <path class="cls-4" d="M87.67,87.18v.15s0,.03,0,.04c0-.07,0-.13,0-.2Z"/>
          <path class="cls-4" d="M71.38,80.66h.48v6.02c0,.54-.44.98-.98.98h-.48v-6.02c0-.54.44-.98.98-.98Z"/>
          <path class="cls-4" d="M69,80.66c-.58,0-1.05.47-1.05,1.05v4.66h-1.63v-2.77h-4.02c-1.11,0-2.01.9-2.01,2.01v-2.01h-.42c-.58,0-1.05.47-1.05,1.05v1.72h-1.96v-2.77h-.42c-.58,0-1.05.47-1.05,1.05v1.72h-2.28v-5.7h-.42c-.58,0-1.05.47-1.05,1.05v5.96h16.72c.58,0,1.05-.47,1.05-1.05v-5.96h-.42ZM64.85,86.37h-4.5c.22-.84.98-1.47,1.89-1.47h2.61v1.47Z"/>
          <path class="cls-4" d="M81.22,83.6c-.31,0-.56.25-.56.56v2.95c0,.31.25.56.56.56h2.95c.31,0,.56-.25.56-.56v-3.51h-3.51ZM83.51,86.37h-1.63v-1.47h1.63v1.47Z"/>
          <path class="cls-4" d="M77.08,83.6h-3.51c-.31,0-.56.25-.56.56v2.95c0,.31.25.56.56.56h2.05c0,.38-.15,1.35-1.31,2.12h1.52s1.25-.24,1.25-2.61h0s0-.05,0-.07v-3.51ZM74.14,84.9h1.63v1.47h-1.63v-1.47Z"/>
          <circle class="cls-4" cx="94.27" cy="89.38" r=".73"/>
          <circle class="cls-4" cx="99" cy="82.21" r=".73"/>
          <circle class="cls-4" cx="100.63" cy="82.21" r=".73"/>
          <circle class="cls-4" cx="81.88" cy="82.21" r=".73"/>
          <circle class="cls-4" cx="83.51" cy="82.21" r=".73"/>
          <circle class="cls-4" cx="44.4" cy="82.21" r=".73"/>
          <circle class="cls-4" cx="46.03" cy="82.21" r=".73"/>
          <circle class="cls-4" cx="50.1" cy="82.21" r=".73"/>
          <circle class="cls-4" cx="55.15" cy="89.38" r=".73"/>
          <circle class="cls-4" cx="56.78" cy="89.38" r=".73"/>
        </g>
        <g>
          <path class="cls-1" d="M17.75,21.5c7.33-4.4,14.67-8.8,22-13.2l-13.37,41.89,14.34-7.82-5.87,15.16h-7.15l-5.73,16.3-5.87-16.3H7.8l9.94-36.02Z"/>
          <path class="cls-1" d="M41.87,8.3l2.1,8.4c3.26-1.02,6.67-1.68,10.21-1.93V6h5.88v8.73c3.72.22,7.32.9,10.75,1.98l2.68-7.6,6.85,2.77-3.59,7.19c3.26,1.57,6.3,3.53,9.07,5.82l4.96-6.16,5.57,4.73-5.76,6.02c2.3,2.56,4.31,5.39,5.97,8.43l7.41-4.67,3.59,7.01-8.24,3.76c1.25,3.42,2.09,7.04,2.47,10.8l9.68-2.82v9.45h-18.33c.05-.7.07-1.41.07-2.12,0-15.69-10.97-29.02-26.24-33.89-5.95-1.9-12.32-2.08-18.41-.66-4.64,1-9.27,2.07-13.71,5.04l7.01-21.51Z"/>
          <path class="cls-1" d="M5.33,90.02h3.78v-23.86h2.64l7.53,23.86h3.91l7.43-23.86h2.64l-.85,23.86h6.23v-30.06h-9.29l-5.85,18.79c-.46,1.48-2.56,1.48-3.02,0l-5.88-18.79H5.33v30.06Z"/>
          <polygon class="cls-1" points="11.98 92.24 11.98 74.96 17.91 92.4 23.95 92.69 8.96 120.72 15.14 93.21 15.14 90.61 5.36 96.15 7.15 92.24 11.98 92.24"/>
          <polygon class="cls-1" points="29.48 77.73 23.94 92.73 30.95 81.48 29.48 77.73"/>
          <path class="cls-1" d="M86.32,61.43h0c-.22-.01-.39-.2-.38-.42.02-.4.02-.81.02-1.21,0-16.31-13.27-29.58-29.58-29.58-11.23,0-21.3,6.19-26.38,16.18-.1.2-.34.28-.54.18h0c-.2-.1-.29-.35-.18-.55,2.47-4.86,6.21-8.97,10.83-11.9,4.86-3.09,10.49-4.72,16.28-4.72,16.76,0,30.4,13.64,30.4,30.4,0,.41,0,.83-.02,1.24,0,.23-.2.4-.43.39Z"/>
        </g>
      </g>
    </g>
  </g>
</svg>